<?xml version="1.0" encoding="UTF-8"?>
<!DOCTYPE svg PUBLIC "-//W3C//DTD SVG 1.1//EN" "http://www.w3.org/Graphics/SVG/1.1/DTD/svg11.dtd">
<svg version="1.1" xmlns="http://www.w3.org/2000/svg" xmlns:xlink="http://www.w3.org/1999/xlink" x="0" y="0" width="50.384" height="51.125" viewBox="0, 0, 50.384, 51.125">
  <defs>
    <linearGradient id="Gradient_1" gradientUnits="userSpaceOnUse" x1="25.155" y1="1.006" x2="26.239" y2="50.116">
      <stop offset="0.017" stop-color="#4070A3" stop-opacity="0.855"/>
      <stop offset="1" stop-color="#284C74"/>
    </linearGradient>
  </defs>
  <g id="surface1" transform="translate(-0.5, 0)">
    <g>
      <path d="M25.692,50.125 C12.331,50.125 1.5,39.128 1.5,25.563 C1.5,11.997 12.331,1 25.692,1 C39.053,1 49.884,11.997 49.884,25.563 C49.884,39.128 39.053,50.125 25.692,50.125 z" fill="url(#Gradient_1)"/>
      <path d="M25.692,50.125 C12.331,50.125 1.5,39.128 1.5,25.563 C1.5,11.997 12.331,1 25.692,1 C39.053,1 49.884,11.997 49.884,25.563 C49.884,39.128 39.053,50.125 25.692,50.125 z" fill-opacity="0" stroke="#A1A1A1" stroke-width="1.5" stroke-opacity="0.341"/>
    </g>
  </g>
</svg>
