<?xml version="1.0" encoding="UTF-8"?>
<!DOCTYPE svg PUBLIC "-//W3C//DTD SVG 1.1//EN" "http://www.w3.org/Graphics/SVG/1.1/DTD/svg11.dtd">
<svg version="1.1" xmlns="http://www.w3.org/2000/svg" xmlns:xlink="http://www.w3.org/1999/xlink" x="0" y="0" width="37.012" height="41.711" viewBox="0, 0, 37.012, 41.711">
  <defs>
    <clipPath id="Clip_1">
      <path d="M7.637,1.802 L46.649,1.802 L46.649,47.537 L7.637,47.537 z M36.539,9.802 L36.065,9.97 C35.769,10.154 35.481,10.338 35.209,10.546 C34.649,10.978 34.089,11.41 33.545,11.842 C33.001,12.274 32.457,12.706 31.897,13.138 C31.353,13.618 30.825,14.106 30.297,14.586 C29.761,15.074 29.225,15.554 28.697,16.034 L26.409,18.21 C26.361,18.266 26.297,18.29 26.233,18.306 C26.169,18.322 26.121,18.354 26.065,18.402 C26.009,18.146 25.961,17.922 25.913,17.714 C25.865,17.514 25.817,17.314 25.801,17.106 C25.745,16.522 25.697,15.938 25.641,15.37 C25.593,14.802 25.545,14.218 25.497,13.634 C25.465,13.41 25.321,13.13 25.057,12.818 C24.793,12.498 24.537,12.314 24.313,12.258 C24.033,12.162 23.737,12.13 23.417,12.162 C23.097,12.202 22.801,12.122 22.521,11.922 C22.473,11.866 22.409,11.858 22.329,11.882 C22.257,11.906 22.185,11.93 22.105,11.954 C21.897,12.002 21.705,12.082 21.529,12.162 C21.353,12.258 21.177,12.29 21.001,12.258 C20.745,12.21 20.529,12.226 20.345,12.306 C20.169,12.378 19.977,12.466 19.785,12.562 C19.602,12.674 19.506,12.77 19.498,12.85 C19.482,12.946 19.498,13.058 19.554,13.218 C19.801,14.034 20.041,14.834 20.273,15.634 C20.505,16.434 20.729,17.25 20.961,18.058 C21.089,18.514 21.225,18.978 21.361,19.426 C21.497,19.89 21.633,20.338 21.761,20.77 C21.833,21.026 21.913,21.266 21.993,21.506 C22.065,21.746 22.153,21.986 22.257,22.218 C22.361,22.498 22.305,22.722 22.105,22.898 C21.945,23.082 21.793,23.25 21.625,23.418 C21.465,23.586 21.305,23.762 21.153,23.97 C20.337,24.994 19.546,26.002 18.754,27.001 C17.962,28.009 17.178,29.025 16.394,30.073 C16.138,30.401 15.914,30.753 15.722,31.121 C15.53,31.489 15.338,31.865 15.13,32.241 C14.698,33.057 14.33,33.905 14.026,34.769 C13.722,35.633 13.594,36.545 13.65,37.505 C13.674,37.945 13.794,38.321 14.01,38.633 C14.226,38.953 14.514,39.225 14.866,39.457 C14.946,39.505 15.05,39.521 15.178,39.513 C15.298,39.497 15.402,39.505 15.482,39.537 C15.482,39.353 15.466,39.217 15.458,39.113 C15.45,39.009 15.45,38.905 15.482,38.801 C15.53,38.577 15.61,38.353 15.706,38.121 C15.802,37.889 15.866,37.665 15.898,37.433 C15.946,36.929 16.114,36.497 16.394,36.161 C16.666,35.809 16.954,35.465 17.226,35.105 C17.354,34.977 17.458,34.929 17.53,34.953 C17.738,34.953 17.882,34.905 17.97,34.801 C18.058,34.705 18.138,34.585 18.218,34.457 C18.298,34.337 18.362,34.217 18.41,34.113 C18.458,34.017 18.538,33.937 18.634,33.889 C19.05,33.681 19.338,33.393 19.53,33.025 C19.722,32.657 19.961,32.313 20.233,31.985 C20.361,31.857 20.489,31.713 20.601,31.585 C20.713,31.441 20.833,31.281 20.961,31.105 C20.937,31.073 20.921,31.057 20.921,31.025 L20.889,30.993 C21.017,30.865 21.113,30.737 21.209,30.625 C21.297,30.513 21.401,30.401 21.529,30.305 C21.737,30.097 21.929,29.921 22.121,29.769 C22.313,29.617 22.513,29.441 22.713,29.233 C22.841,29.105 22.969,28.985 23.097,28.873 C23.225,28.761 23.161,28.625 22.905,28.473 C23.081,28.345 23.257,28.225 23.417,28.113 C23.577,27.993 23.753,27.889 23.929,27.785 C23.985,27.761 24.057,27.777 24.137,27.841 C24.233,27.905 24.297,27.961 24.353,28.017 C24.777,28.721 25.193,29.441 25.593,30.169 C25.977,30.897 26.409,31.601 26.865,32.289 C27.801,33.841 28.905,35.185 30.177,36.329 C30.457,36.577 30.745,36.801 31.057,36.977 C31.353,37.153 31.673,37.313 32.009,37.433 C32.361,37.561 32.729,37.657 33.113,37.721 C33.497,37.785 33.865,37.865 34.217,37.969 C34.569,38.065 34.849,37.953 35.057,37.625 C34.441,37.497 33.961,37.233 33.609,36.841 C33.257,36.449 32.889,36.065 32.505,35.681 C32.457,35.633 32.433,35.569 32.441,35.505 C32.457,35.441 32.465,35.385 32.465,35.329 C32.465,35.201 32.465,35.081 32.465,34.953 C32.465,34.825 32.441,34.721 32.393,34.649 C32.233,34.369 32.065,34.105 31.873,33.857 C31.689,33.625 31.481,33.361 31.289,33.081 C31.177,32.953 31.073,32.817 30.961,32.681 C30.841,32.545 30.849,32.353 30.985,32.129 C30.985,32.073 30.953,32.025 30.905,31.969 C30.777,31.697 30.649,31.425 30.521,31.169 C30.393,30.913 30.249,30.657 30.105,30.409 C29.897,30.025 29.705,29.633 29.529,29.241 C29.353,28.849 29.201,28.433 29.073,28.001 C28.921,27.489 28.745,26.985 28.561,26.474 C28.369,25.97 28.201,25.458 28.041,24.946 C27.993,24.794 27.977,24.626 27.993,24.45 C28.001,24.274 28.009,24.098 28.009,23.922 C27.961,23.762 27.913,23.65 27.857,23.57 C28.057,23.65 28.201,23.65 28.273,23.586 C28.345,23.522 28.401,23.442 28.425,23.346 C28.449,23.242 28.473,23.138 28.505,23.018 C28.529,22.898 28.593,22.81 28.697,22.738 L28.161,22.738 C28.161,22.706 28.153,22.69 28.137,22.674 C28.129,22.658 28.121,22.642 28.121,22.618 C28.169,22.594 28.209,22.562 28.233,22.522 C28.265,22.482 28.297,22.482 28.345,22.498 C28.905,22.498 29.433,22.306 29.913,21.89 C30.297,21.57 30.665,21.25 31.033,20.946 C31.401,20.642 31.777,20.322 32.161,19.986 C32.265,19.914 32.369,19.842 32.489,19.778 C32.601,19.714 32.705,19.634 32.809,19.538 C33.488,18.943 33.086,19.304 34,18.44 L34.409,18.082 C34.585,17.954 34.769,17.842 34.953,17.746 C35.145,17.642 35.345,17.522 35.545,17.394 C35.753,17.274 35.945,17.146 36.121,17.018 C36.297,16.89 36.489,16.77 36.697,16.642 C36.969,16.514 37.241,16.402 37.497,16.314 C37.745,16.226 38.009,16.114 38.289,15.986 C38.441,15.89 38.545,15.81 38.601,15.762 C38.873,15.538 39.145,15.306 39.417,15.074 C39.689,14.85 39.961,14.634 40.233,14.434 C40.489,14.226 40.633,14.066 40.649,13.938 C40.681,13.81 40.633,13.602 40.505,13.33 C40.457,13.25 40.401,13.17 40.345,13.09 C40.297,13.026 40.249,12.93 40.201,12.834 C40.401,12.546 40.337,12.338 40.009,12.178 C39.825,12.082 39.665,11.962 39.513,11.826 C39.353,11.682 39.209,11.546 39.049,11.418 C39.033,11.394 39.017,11.362 39.017,11.322 C39.017,11.282 39.001,11.242 38.977,11.186 C38.921,11.138 38.897,11.074 38.881,11.002 C38.873,10.93 38.841,10.866 38.785,10.81 C38.633,10.61 38.441,10.498 38.217,10.482 C37.993,10.474 37.769,10.466 37.569,10.466 C37.465,10.466 37.385,10.466 37.305,10.45 C37.225,10.434 37.137,10.434 37.033,10.434 L37.033,10.314 C37.137,10.258 37.233,10.21 37.321,10.17 C37.409,10.13 37.497,10.082 37.569,10.026 C37.497,9.946 37.417,9.898 37.337,9.882 C37.265,9.866 37.177,9.842 37.073,9.826 L36.539,9.802 z"/>
    </clipPath>
    <filter id="Shadow_2">
      <feGaussianBlur in="SourceAlpha" stdDeviation="2.5"/>
      <feOffset dx="0" dy="2" result="offsetblur"/>
      <feFlood flood-color="#000000"/>
      <feComposite in2="offsetblur" operator="in"/>
    </filter>
  </defs>
  <g id="surface1" transform="translate(-8.637, -4.826)">
    <g>
      <path d="M36.539,9.802 L37.073,9.826 C37.177,9.842 37.265,9.866 37.337,9.882 C37.417,9.898 37.497,9.946 37.569,10.026 C37.497,10.082 37.409,10.13 37.321,10.17 C37.233,10.21 37.137,10.258 37.033,10.314 L37.033,10.434 C37.137,10.434 37.225,10.434 37.305,10.45 C37.385,10.466 37.465,10.466 37.569,10.466 C37.769,10.466 37.993,10.474 38.217,10.482 C38.441,10.498 38.633,10.61 38.785,10.81 C38.841,10.866 38.873,10.93 38.881,11.002 C38.897,11.074 38.921,11.138 38.977,11.186 C39.001,11.242 39.017,11.282 39.017,11.322 C39.017,11.362 39.033,11.394 39.049,11.418 C39.209,11.546 39.353,11.682 39.513,11.826 C39.665,11.962 39.825,12.082 40.009,12.178 C40.337,12.338 40.401,12.546 40.201,12.834 C40.249,12.93 40.297,13.026 40.345,13.09 C40.401,13.17 40.457,13.25 40.505,13.33 C40.633,13.602 40.681,13.81 40.649,13.938 C40.633,14.066 40.489,14.226 40.233,14.434 C39.961,14.634 39.689,14.85 39.417,15.074 C39.145,15.306 38.873,15.538 38.601,15.762 C38.545,15.81 38.441,15.89 38.289,15.986 C38.009,16.114 37.745,16.226 37.497,16.314 C37.241,16.402 36.969,16.514 36.697,16.642 C36.489,16.77 36.297,16.89 36.121,17.018 C35.945,17.146 35.753,17.274 35.545,17.394 C35.345,17.522 35.145,17.642 34.953,17.746 C34.769,17.842 34.585,17.954 34.409,18.082 L34,18.44 C33.086,19.304 33.488,18.943 32.809,19.538 C32.705,19.634 32.601,19.714 32.489,19.778 C32.369,19.842 32.265,19.914 32.161,19.986 C31.777,20.322 31.401,20.642 31.033,20.946 C30.665,21.25 30.297,21.57 29.913,21.89 C29.433,22.306 28.905,22.498 28.345,22.498 C28.297,22.482 28.265,22.482 28.233,22.522 C28.209,22.562 28.169,22.594 28.121,22.618 C28.121,22.642 28.129,22.658 28.137,22.674 C28.153,22.69 28.161,22.706 28.161,22.738 L28.697,22.738 C28.593,22.81 28.529,22.898 28.505,23.018 C28.473,23.138 28.449,23.242 28.425,23.346 C28.401,23.442 28.345,23.522 28.273,23.586 C28.201,23.65 28.057,23.65 27.857,23.57 C27.913,23.65 27.961,23.762 28.009,23.922 C28.009,24.098 28.001,24.274 27.993,24.45 C27.977,24.626 27.993,24.794 28.041,24.946 C28.201,25.458 28.369,25.97 28.561,26.474 C28.745,26.985 28.921,27.489 29.073,28.001 C29.201,28.433 29.353,28.849 29.529,29.241 C29.705,29.633 29.897,30.025 30.105,30.409 C30.249,30.657 30.393,30.913 30.521,31.169 C30.649,31.425 30.777,31.697 30.905,31.969 C30.953,32.025 30.985,32.073 30.985,32.129 C30.849,32.353 30.841,32.545 30.961,32.681 C31.073,32.817 31.177,32.953 31.289,33.081 C31.481,33.361 31.689,33.625 31.873,33.857 C32.065,34.105 32.233,34.369 32.393,34.649 C32.441,34.721 32.465,34.825 32.465,34.953 C32.465,35.081 32.465,35.201 32.465,35.329 C32.465,35.385 32.457,35.441 32.441,35.505 C32.433,35.569 32.457,35.633 32.505,35.681 C32.889,36.065 33.257,36.449 33.609,36.841 C33.961,37.233 34.441,37.497 35.057,37.625 C34.849,37.953 34.569,38.065 34.217,37.969 C33.865,37.865 33.497,37.785 33.113,37.721 C32.729,37.657 32.361,37.561 32.009,37.433 C31.673,37.313 31.353,37.153 31.057,36.977 C30.745,36.801 30.457,36.577 30.177,36.329 C28.905,35.185 27.801,33.841 26.865,32.289 C26.409,31.601 25.977,30.897 25.593,30.169 C25.193,29.441 24.777,28.721 24.353,28.017 C24.297,27.961 24.233,27.905 24.137,27.841 C24.057,27.777 23.985,27.761 23.929,27.785 C23.753,27.889 23.577,27.993 23.417,28.113 C23.257,28.225 23.081,28.345 22.905,28.473 C23.161,28.625 23.225,28.761 23.097,28.873 C22.969,28.985 22.841,29.105 22.713,29.233 C22.513,29.441 22.313,29.617 22.121,29.769 C21.929,29.921 21.737,30.097 21.529,30.305 C21.401,30.401 21.297,30.513 21.209,30.625 C21.113,30.737 21.017,30.865 20.889,30.993 L20.921,31.025 C20.921,31.057 20.937,31.073 20.961,31.105 C20.833,31.281 20.713,31.441 20.601,31.585 C20.489,31.713 20.361,31.857 20.233,31.985 C19.961,32.313 19.722,32.657 19.53,33.025 C19.338,33.393 19.05,33.681 18.634,33.889 C18.538,33.937 18.458,34.017 18.41,34.113 C18.362,34.217 18.298,34.337 18.218,34.457 C18.138,34.585 18.058,34.705 17.97,34.801 C17.882,34.905 17.738,34.953 17.53,34.953 C17.458,34.929 17.354,34.977 17.226,35.105 C16.954,35.465 16.666,35.809 16.394,36.161 C16.114,36.497 15.946,36.929 15.898,37.433 C15.866,37.665 15.802,37.889 15.706,38.121 C15.61,38.353 15.53,38.577 15.482,38.801 C15.45,38.905 15.45,39.009 15.458,39.113 C15.466,39.217 15.482,39.353 15.482,39.537 C15.402,39.505 15.298,39.497 15.178,39.513 C15.05,39.521 14.946,39.505 14.866,39.457 C14.514,39.225 14.226,38.953 14.01,38.633 C13.794,38.321 13.674,37.945 13.65,37.505 C13.594,36.545 13.722,35.633 14.026,34.769 C14.33,33.905 14.698,33.057 15.13,32.241 C15.338,31.865 15.53,31.489 15.722,31.121 C15.914,30.753 16.138,30.401 16.394,30.073 C17.178,29.025 17.962,28.009 18.754,27.001 C19.546,26.002 20.337,24.994 21.153,23.97 C21.305,23.762 21.465,23.586 21.625,23.418 C21.793,23.25 21.945,23.082 22.105,22.898 C22.305,22.722 22.361,22.498 22.257,22.218 C22.153,21.986 22.065,21.746 21.993,21.506 C21.913,21.266 21.833,21.026 21.761,20.77 C21.633,20.338 21.497,19.89 21.361,19.426 C21.225,18.978 21.089,18.514 20.961,18.058 C20.729,17.25 20.505,16.434 20.273,15.634 C20.041,14.834 19.801,14.034 19.554,13.218 C19.498,13.058 19.482,12.946 19.498,12.85 C19.506,12.77 19.602,12.674 19.785,12.562 C19.977,12.466 20.169,12.378 20.345,12.306 C20.529,12.226 20.745,12.21 21.001,12.258 C21.177,12.29 21.353,12.258 21.529,12.162 C21.705,12.082 21.897,12.002 22.105,11.954 C22.185,11.93 22.257,11.906 22.329,11.882 C22.409,11.858 22.473,11.866 22.521,11.922 C22.801,12.122 23.097,12.202 23.417,12.162 C23.737,12.13 24.033,12.162 24.313,12.258 C24.537,12.314 24.793,12.498 25.057,12.818 C25.321,13.13 25.465,13.41 25.497,13.634 C25.545,14.218 25.593,14.802 25.641,15.37 C25.697,15.938 25.745,16.522 25.801,17.106 C25.817,17.314 25.865,17.514 25.913,17.714 C25.961,17.922 26.009,18.146 26.065,18.402 C26.121,18.354 26.169,18.322 26.233,18.306 C26.297,18.29 26.361,18.266 26.409,18.21 L28.697,16.034 C29.225,15.554 29.761,15.074 30.297,14.586 C30.825,14.106 31.353,13.618 31.897,13.138 C32.457,12.706 33.001,12.274 33.545,11.842 C34.089,11.41 34.649,10.978 35.209,10.546 C35.481,10.338 35.769,10.154 36.065,9.97 L36.539,9.802 z" clip-path="url(#Clip_1)" filter="url(#Shadow_2)" fill="rgba(0,0,0,0.75)"/>
      <path d="M28.697,22.738 C28.593,22.81 28.529,22.898 28.505,23.018 C28.473,23.138 28.449,23.242 28.425,23.346 C28.401,23.442 28.345,23.522 28.273,23.586 C28.201,23.65 28.057,23.65 27.857,23.57 C27.913,23.65 27.961,23.762 28.009,23.922 C28.009,24.098 28.001,24.274 27.993,24.45 C27.977,24.626 27.993,24.794 28.041,24.946 C28.201,25.458 28.369,25.97 28.561,26.474 C28.745,26.985 28.921,27.489 29.073,28.001 C29.201,28.433 29.353,28.849 29.529,29.241 C29.705,29.633 29.897,30.025 30.105,30.409 C30.249,30.657 30.393,30.913 30.521,31.169 C30.649,31.425 30.777,31.697 30.905,31.969 C30.953,32.025 30.985,32.073 30.985,32.129 C30.849,32.353 30.841,32.545 30.961,32.681 C31.073,32.817 31.177,32.953 31.289,33.081 C31.481,33.361 31.689,33.625 31.873,33.857 C32.065,34.105 32.233,34.369 32.393,34.649 C32.441,34.721 32.465,34.825 32.465,34.953 C32.465,35.081 32.465,35.201 32.465,35.329 C32.465,35.385 32.457,35.441 32.441,35.505 C32.433,35.569 32.457,35.633 32.505,35.681 C32.889,36.065 33.257,36.449 33.609,36.841 C33.961,37.233 34.441,37.497 35.057,37.625 C34.849,37.953 34.569,38.065 34.217,37.969 C33.865,37.865 33.497,37.785 33.113,37.721 C32.729,37.657 32.361,37.561 32.009,37.433 C31.673,37.313 31.353,37.153 31.057,36.977 C30.745,36.801 30.457,36.577 30.177,36.329 C28.905,35.185 27.801,33.841 26.865,32.289 C26.409,31.601 25.977,30.897 25.593,30.169 C25.193,29.441 24.777,28.721 24.353,28.017 C24.297,27.961 24.233,27.905 24.137,27.841 C24.057,27.777 23.985,27.761 23.929,27.785 C23.753,27.889 23.577,27.993 23.417,28.113 C23.257,28.225 23.081,28.345 22.905,28.473 C23.161,28.625 23.225,28.761 23.097,28.873 C22.969,28.985 22.841,29.105 22.713,29.233 C22.513,29.441 22.313,29.617 22.121,29.769 C21.929,29.921 21.737,30.097 21.529,30.305 C21.401,30.401 21.297,30.513 21.209,30.625 C21.113,30.737 21.017,30.865 20.889,30.993 L20.921,31.025 C20.921,31.057 20.937,31.073 20.961,31.105 C20.833,31.281 20.713,31.441 20.601,31.585 C20.489,31.713 20.361,31.857 20.233,31.985 C19.961,32.313 19.722,32.657 19.53,33.025 C19.338,33.393 19.05,33.681 18.634,33.889 C18.538,33.937 18.458,34.017 18.41,34.113 C18.362,34.217 18.298,34.337 18.218,34.457 C18.138,34.585 18.058,34.705 17.97,34.801 C17.882,34.905 17.738,34.953 17.53,34.953 C17.458,34.929 17.354,34.977 17.226,35.105 C16.954,35.465 16.666,35.809 16.394,36.161 C16.114,36.497 15.946,36.929 15.898,37.433 C15.866,37.665 15.802,37.889 15.706,38.121 C15.61,38.353 15.53,38.577 15.482,38.801 C15.45,38.905 15.45,39.009 15.458,39.113 C15.466,39.217 15.482,39.353 15.482,39.537 C15.402,39.505 15.298,39.497 15.178,39.513 C15.05,39.521 14.946,39.505 14.866,39.457 C14.514,39.225 14.226,38.953 14.01,38.633 C13.794,38.321 13.674,37.945 13.65,37.505 C13.594,36.545 13.722,35.633 14.026,34.769 C14.33,33.905 14.698,33.057 15.13,32.241 C15.338,31.865 15.53,31.489 15.722,31.121 C15.914,30.753 16.138,30.401 16.394,30.073 C17.178,29.025 17.962,28.009 18.754,27.001 C19.546,26.002 20.337,24.994 21.153,23.97 C21.305,23.762 21.465,23.586 21.625,23.418 C21.793,23.25 21.945,23.082 22.105,22.898 C22.305,22.722 22.361,22.498 22.257,22.218 C22.153,21.986 22.065,21.746 21.993,21.506 C21.913,21.266 21.833,21.026 21.761,20.77 C21.633,20.338 21.497,19.89 21.361,19.426 C21.225,18.978 21.089,18.514 20.961,18.058 C20.729,17.25 20.505,16.434 20.273,15.634 C20.041,14.834 19.801,14.034 19.554,13.218 C19.498,13.058 19.482,12.946 19.498,12.85 C19.506,12.77 19.602,12.674 19.785,12.562 C19.977,12.466 20.169,12.378 20.345,12.306 C20.529,12.226 20.745,12.21 21.001,12.258 C21.177,12.29 21.353,12.258 21.529,12.162 C21.705,12.082 21.897,12.002 22.105,11.954 C22.185,11.93 22.257,11.906 22.329,11.882 C22.409,11.858 22.473,11.866 22.521,11.922 C22.801,12.122 23.097,12.202 23.417,12.162 C23.737,12.13 24.033,12.162 24.313,12.258 C24.537,12.314 24.793,12.498 25.057,12.818 C25.321,13.13 25.465,13.41 25.497,13.634 C25.545,14.218 25.593,14.802 25.641,15.37 C25.697,15.938 25.745,16.522 25.801,17.106 C25.817,17.314 25.865,17.514 25.913,17.714 C25.961,17.922 26.009,18.146 26.065,18.402 C26.121,18.354 26.169,18.322 26.233,18.306 C26.297,18.29 26.361,18.266 26.409,18.21 L28.697,16.034 C29.225,15.554 29.761,15.074 30.297,14.586 C30.825,14.106 31.353,13.618 31.897,13.138 C32.457,12.706 33.001,12.274 33.545,11.842 C34.089,11.41 34.649,10.978 35.209,10.546 C35.481,10.338 35.769,10.154 36.065,9.97 C36.361,9.794 36.697,9.746 37.073,9.826 C37.177,9.842 37.265,9.866 37.337,9.882 C37.417,9.898 37.497,9.946 37.569,10.026 C37.497,10.082 37.409,10.13 37.321,10.17 C37.233,10.21 37.137,10.258 37.033,10.314 L37.033,10.434 C37.137,10.434 37.225,10.434 37.305,10.45 C37.385,10.466 37.465,10.466 37.569,10.466 C37.769,10.466 37.993,10.474 38.217,10.482 C38.441,10.498 38.633,10.61 38.785,10.81 C38.841,10.866 38.873,10.93 38.881,11.002 C38.897,11.074 38.921,11.138 38.977,11.186 C39.001,11.242 39.017,11.282 39.017,11.322 C39.017,11.362 39.033,11.394 39.049,11.418 C39.209,11.546 39.353,11.682 39.513,11.826 C39.665,11.962 39.825,12.082 40.009,12.178 C40.337,12.338 40.401,12.546 40.201,12.834 C40.249,12.93 40.297,13.026 40.345,13.09 C40.401,13.17 40.457,13.25 40.505,13.33 C40.633,13.602 40.681,13.81 40.649,13.938 C40.633,14.066 40.489,14.226 40.233,14.434 C39.961,14.634 39.689,14.85 39.417,15.074 C39.145,15.306 38.873,15.538 38.601,15.762 C38.545,15.81 38.441,15.89 38.289,15.986 C38.009,16.114 37.745,16.226 37.497,16.314 C37.241,16.402 36.969,16.514 36.697,16.642 C36.489,16.77 36.297,16.89 36.121,17.018 C35.945,17.146 35.753,17.274 35.545,17.394 C35.345,17.522 35.145,17.642 34.953,17.746 C34.769,17.842 34.585,17.954 34.409,18.082 C34.129,18.314 33.865,18.562 33.609,18.81 C33.353,19.058 33.089,19.306 32.809,19.538 C32.705,19.634 32.601,19.714 32.489,19.778 C32.369,19.842 32.265,19.914 32.161,19.986 C31.777,20.322 31.401,20.642 31.033,20.946 C30.665,21.25 30.297,21.57 29.913,21.89 C29.433,22.306 28.905,22.498 28.345,22.498 C28.297,22.482 28.265,22.482 28.233,22.522 C28.209,22.562 28.169,22.594 28.121,22.618 C28.121,22.642 28.129,22.658 28.137,22.674 C28.153,22.69 28.161,22.706 28.161,22.738 z M28.697,22.738" fill="#F8AE18"/>
    </g>
  </g>
</svg>
