<?xml version="1.0" encoding="UTF-8"?>
<svg xmlns="http://www.w3.org/2000/svg" xmlns:xlink="http://www.w3.org/1999/xlink" width="48pt" height="48pt" viewBox="0 0 48 48" version="1.1">
<g id="surface1">
<path style=" stroke:none;fill-rule:nonzero;fill:rgb(0%,0%,0%);fill-opacity:1;" d="M 40 16 L 34.378906 16 C 33.480469 14.441406 32.238281 13.101562 30.738281 12.078125 L 34 8.820312 L 31.179688 6 L 26.839844 10.339844 C 25.921875 10.121094 24.980469 10 24 10 C 23.019531 10 22.078125 10.121094 21.179688 10.339844 L 16.820312 6 L 14 8.820312 L 17.238281 12.078125 C 15.761719 13.101562 14.519531 14.441406 13.621094 16 L 8 16 L 8 20 L 12.179688 20 C 12.078125 20.660156 12 21.320312 12 22 L 12 24 L 8 24 L 8 28 L 12 28 L 12 30 C 12 30.679688 12.078125 31.339844 12.179688 32 L 8 32 L 8 36 L 13.621094 36 C 15.699219 39.578125 19.558594 42 24 42 C 28.441406 42 32.300781 39.578125 34.378906 36 L 40 36 L 40 32 L 35.820312 32 C 35.921875 31.339844 36 30.679688 36 30 L 36 28 L 40 28 L 40 24 L 36 24 L 36 22 C 36 21.320312 35.921875 20.660156 35.820312 20 L 40 20 Z M 28 32 L 20 32 L 20 28 L 28 28 Z M 28 24 L 20 24 L 20 20 L 28 20 Z M 28 24 "/>
</g>
</svg>
