<?xml version="1.0" encoding="UTF-8"?>
<svg xmlns="http://www.w3.org/2000/svg" width="48pt"
     height="48pt" viewBox="0 0 48 48" version="1.1">
    <g id="surface1">
        <path style=" stroke:none;fill-rule:nonzero;fill:rgb(0%,0%,0%);fill-opacity:1;"
              d="M 31 11 C 33.203125 11 35 9.203125 35 7 C 35 4.796875 33.203125 3 31 3 C 28.796875 3 27 4.796875 27 7 C 27 9.203125 28.796875 11 31 11 Z M 10 24 C 4.398438 24 0 28.398438 0 34 C 0 39.601562 4.398438 44 10 44 C 15.601562 44 20 39.601562 20 34 C 20 28.398438 15.601562 24 10 24 Z M 10 41 C 6.203125 41 3 37.796875 3 34 C 3 30.203125 6.203125 27 10 27 C 13.796875 27 17 30.203125 17 34 C 17 37.796875 13.796875 41 10 41 Z M 21.601562 21 L 26.398438 16.203125 L 28 17.796875 C 30.601562 20.398438 34 22 38.203125 22 L 38.203125 18 C 35.203125 18 32.796875 16.796875 31 15 L 27.203125 11.203125 C 26.203125 10.398438 25.203125 10 24 10 C 22.796875 10 21.796875 10.398438 21.203125 11.203125 L 15.601562 16.796875 C 14.796875 17.601562 14.398438 18.601562 14.398438 19.601562 C 14.398438 20.796875 14.796875 21.796875 15.601562 22.398438 L 22 28 L 22 38 L 26 38 L 26 25.601562 Z M 38 24 C 32.398438 24 28 28.398438 28 34 C 28 39.601562 32.398438 44 38 44 C 43.601562 44 48 39.601562 48 34 C 48 28.398438 43.601562 24 38 24 Z M 38 41 C 34.203125 41 31 37.796875 31 34 C 31 30.203125 34.203125 27 38 27 C 41.796875 27 45 30.203125 45 34 C 45 37.796875 41.796875 41 38 41 Z M 38 41 "/>
    </g>
</svg>
