<?xml version="1.0" encoding="UTF-8"?>
<svg xmlns="http://www.w3.org/2000/svg" width="48pt"
     height="48pt" viewBox="0 0 48 48" version="1.1">
    <g id="surface1">
        <path style=" stroke:none;fill-rule:nonzero;fill:rgb(0%,0%,0%);fill-opacity:1;"
              d="M 8 12 L 12 12 L 12 36 L 8 36 L 8 12 M 14 12 L 16 12 L 16 36 L 14 36 L 14 12 M 18 12 L 24 12 L 24 36 L 18 36 L 18 12 M 26 12 L 28 12 L 28 36 L 26 36 L 26 12 M 32 12 L 36 12 L 36 36 L 32 36 L 32 12 M 38 12 L 40 12 L 40 36 L 38 36 L 38 12 M 4 8 L 4 16 L 0 16 L 0 8 C 0 5.789062 1.789062 4 4 4 L 12 4 L 12 8 L 4 8 M 44 4 C 46.210938 4 48 5.789062 48 8 L 48 16 L 44 16 L 44 8 L 36 8 L 36 4 L 44 4 M 4 32 L 4 40 L 12 40 L 12 44 L 4 44 C 1.789062 44 0 42.210938 0 40 L 0 32 L 4 32 M 44 40 L 44 32 L 48 32 L 48 40 C 48 42.210938 46.210938 44 44 44 L 36 44 L 36 40 Z M 44 40 "/>
    </g>
</svg>
