<?xml version="1.0" encoding="UTF-8"?>
<!DOCTYPE svg PUBLIC "-//W3C//DTD SVG 1.1//EN" "http://www.w3.org/Graphics/SVG/1.1/DTD/svg11.dtd">
<svg version="1.1" xmlns="http://www.w3.org/2000/svg" xmlns:xlink="http://www.w3.org/1999/xlink" x="0" y="0" width="48" height="48" viewBox="0, 0, 48, 48">
  <g id="surface1">
    <path d="M29.549,14.091 C31.295,14.091 32.72,12.667 32.72,10.921 C32.72,9.174 31.295,7.75 29.549,7.75 C27.802,7.75 26.378,9.174 26.378,10.921 C26.378,12.667 27.802,14.091 29.549,14.091 z M12.902,24.396 C8.462,24.396 4.976,27.883 4.976,32.323 C4.976,36.763 8.462,40.25 12.902,40.25 C17.343,40.25 20.829,36.763 20.829,32.323 C20.829,27.883 17.343,24.396 12.902,24.396 z M12.902,37.872 C9.893,37.872 7.354,35.333 7.354,32.323 C7.354,29.313 9.893,26.774 12.902,26.774 C15.912,26.774 18.451,29.313 18.451,32.323 C18.451,35.333 15.912,37.872 12.902,37.872 z M22.099,22.018 L25.901,18.216 L27.171,19.479 C29.233,21.541 31.927,22.811 35.259,22.811 L35.259,19.64 C32.881,19.64 30.973,18.687 29.549,17.262 L26.539,14.252 C25.746,13.615 24.954,13.299 24,13.299 C23.046,13.299 22.254,13.615 21.783,14.252 L17.343,18.687 C16.705,19.324 16.389,20.117 16.389,20.91 C16.389,21.857 16.705,22.65 17.343,23.127 L22.415,27.567 L22.415,35.494 L25.585,35.494 L25.585,25.666 z M35.098,24.396 C30.657,24.396 27.171,27.883 27.171,32.323 C27.171,36.763 30.657,40.25 35.098,40.25 C39.538,40.25 43.024,36.763 43.024,32.323 C43.024,27.883 39.538,24.396 35.098,24.396 z M35.098,37.872 C32.088,37.872 29.549,35.333 29.549,32.323 C29.549,29.313 32.088,26.774 35.098,26.774 C38.107,26.774 40.646,29.313 40.646,32.323 C40.646,35.333 38.107,37.872 35.098,37.872 z M35.098,37.872" fill="#000000"/>
  </g>
</svg>
