<?xml version="1.0" encoding="UTF-8"?>
<svg xmlns="http://www.w3.org/2000/svg" width="48pt"
     height="48pt" viewBox="0 0 48 48" version="1.1">
    <g id="surface1">
        <path style=" stroke:none;fill-rule:nonzero;fill:rgb(0%,0%,0%);fill-opacity:1;"
              d="M 40 16 L 34.375 16 C 33.484375 14.4375 32.234375 13.101562 30.734375 12.078125 L 34 8.820312 L 31.179688 6 L 26.84375 10.34375 C 25.921875 10.125 24.984375 10 24 10 C 23.015625 10 22.078125 10.125 21.179688 10.34375 L 16.820312 6 L 14 8.820312 L 17.234375 12.078125 C 15.765625 13.101562 14.515625 14.4375 13.625 16 L 8 16 L 8 20 L 12.179688 20 C 12.078125 20.65625 12 21.320312 12 22 L 12 24 L 8 24 L 8 28 L 12 28 L 12 30 C 12 30.679688 12.078125 31.34375 12.179688 32 L 8 32 L 8 36 L 13.625 36 C 15.703125 39.578125 19.5625 42 24 42 C 28.4375 42 32.296875 39.578125 34.375 36 L 40 36 L 40 32 L 35.820312 32 C 35.921875 31.34375 36 30.679688 36 30 L 36 28 L 40 28 L 40 24 L 36 24 L 36 22 C 36 21.320312 35.921875 20.65625 35.820312 20 L 40 20 Z M 28 32 L 20 32 L 20 28 L 28 28 Z M 28 24 L 20 24 L 20 20 L 28 20 Z M 28 24 "/>
    </g>
</svg>
