<?xml version="1.0" encoding="UTF-8"?>
<!DOCTYPE svg PUBLIC "-//W3C//DTD SVG 1.1//EN" "http://www.w3.org/Graphics/SVG/1.1/DTD/svg11.dtd">
<svg version="1.1" xmlns="http://www.w3.org/2000/svg" xmlns:xlink="http://www.w3.org/1999/xlink" x="0" y="0" width="48" height="48" viewBox="0, 0, 48, 48">
  <g id="surface1">
    <path d="M37.844,10.023 C37.438,8.844 36.32,8 35,8 L13,8 C11.68,8 10.578,8.844 10.156,10.023 L6,22 L6,38 C6,39.102 6.898,40 8,40 L10,40 C11.102,40 12,39.102 12,38 L12,36 L36,36 L36,38 C36,39.102 36.898,40 38,40 L40,40 C41.102,40 42,39.102 42,38 L42,22 z M13,30 C11.344,30 10,28.656 10,27 C10,25.344 11.344,24 13,24 C14.656,24 16,25.344 16,27 C16,28.656 14.656,30 13,30 z M35,30 C33.344,30 32,28.656 32,27 C32,25.344 33.344,24 35,24 C36.656,24 38,25.344 38,27 C38,28.656 36.656,30 35,30 z M10,20 L13,11 L35,11 L38,20 z M10,20" fill="#000000"/>
  </g>
</svg>
