<?xml version="1.0" encoding="UTF-8"?>
<svg xmlns="http://www.w3.org/2000/svg" width="48pt"
     height="48pt" viewBox="0 0 48 48" version="1.1">
    <g id="surface1">
        <path style=" stroke:none;fill-rule:nonzero;fill:rgb(0%,0%,0%);fill-opacity:1;"
              d="M 24 4 C 12.9375 4 4 13 4 24 C 4 35.046875 12.953125 44 24 44 C 28.5 44 32.65625 42.476562 36 40 L 36 34.5625 C 33.0625 37.882812 28.78125 40 24 40 C 15.164062 40 8 32.835938 8 24 C 8 15.164062 15.164062 8 24 8 C 30.71875 8 36.460938 12.140625 38.820312 18 L 43.078125 18 C 40.539062 9.882812 33 4 24 4 M 22 14 L 22 26 L 32.5 32.296875 L 34 29.84375 L 25 24.5 L 25 14 L 22 14 M 40 22 L 40 36 L 44 36 L 44 22 L 40 22 M 40 40 L 40 44 L 44 44 L 44 40 Z M 40 40 "/>
    </g>
</svg>
