<?xml version="1.0" encoding="UTF-8"?>
<!DOCTYPE svg PUBLIC "-//W3C//DTD SVG 1.1//EN" "http://www.w3.org/Graphics/SVG/1.1/DTD/svg11.dtd">
<svg version="1.1" xmlns="http://www.w3.org/2000/svg" xmlns:xlink="http://www.w3.org/1999/xlink" x="0" y="0" width="24" height="24" viewBox="0, 0, 24, 24">
  <g id="Layer_1">
    <g>
      <path d="M20.043,18.74 C19.206,18.74 18.525,19.42 18.525,20.259 C18.525,21.097 19.206,21.777 20.043,21.777 C20.882,21.777 21.561,21.097 21.561,20.259 C21.561,19.42 20.882,18.74 20.043,18.74 z M20.043,21.017 C19.624,21.017 19.285,20.678 19.285,20.259 C19.285,19.839 19.624,19.499 20.043,19.499 C20.461,19.499 20.801,19.839 20.801,20.259 C20.802,20.677 20.461,21.017 20.043,21.017 z" fill="#000000"/>
      <path d="M12.103,18.74 C11.266,18.74 10.587,19.42 10.587,20.259 C10.587,21.097 11.266,21.777 12.103,21.777 C12.941,21.777 13.621,21.097 13.621,20.259 C13.621,19.42 12.942,18.74 12.103,18.74 z M12.103,21.017 C11.685,21.017 11.345,20.678 11.345,20.259 C11.345,19.839 11.684,19.499 12.103,19.499 C12.522,19.499 12.863,19.839 12.863,20.259 C12.862,20.677 12.523,21.017 12.103,21.017 z" fill="#000000"/>
      <path d="M23.405,18.74 L23.405,14.879 L20.947,11.277 L17.181,11.277 L17.178,18.67 L13.442,18.67 C13.825,18.994 14.088,19.448 14.161,19.967 L17.988,19.967 C18.131,18.953 18.993,18.171 20.045,18.171 C21.097,18.171 21.959,18.953 22.102,19.967 L24.002,19.967 L24.002,18.74 L23.405,18.74 z M18.288,14.775 L18.288,12.601 L20.555,12.612 L22.025,14.775 L18.288,14.775 z" fill="#000000"/>
      <path d="M7.875,18.67 L7.875,19.968 L10.048,19.968 C10.121,19.448 10.383,18.993 10.765,18.67 L7.875,18.67 z" fill="#000000"/>
      <path d="M1.296,7.346 L9.986,3.633 L18.675,7.346 L18.675,10.408 L19.971,10.408 L19.971,6.49 L9.986,2.224 L-0,6.49 L-0,19.969 L6.895,19.969 L6.895,18.698 L1.296,18.698 z" fill="#000000"/>
      <path d="M2.396,14.878 L6.895,14.878 L6.895,17.657 L2.396,17.657 z" fill="#000000"/>
      <path d="M7.742,14.878 L12.242,14.878 L12.242,17.657 L7.742,17.657 z" fill="#000000"/>
      <path d="M13.09,14.878 L16.174,14.878 L16.174,17.657 L13.09,17.657 z" fill="#000000"/>
      <path d="M2.396,11.059 L6.895,11.059 L6.895,13.838 L2.396,13.838 z" fill="#000000"/>
      <path d="M7.742,11.059 L12.242,11.059 L12.242,13.838 L7.742,13.838 z" fill="#000000"/>
      <path d="M7.742,7.238 L12.242,7.238 L12.242,10.017 L7.742,10.017 z" fill="#000000"/>
    </g>
  </g>
</svg>
