<?xml version="1.0" encoding="UTF-8"?>
<svg xmlns="http://www.w3.org/2000/svg" xmlns:xlink="http://www.w3.org/1999/xlink" width="48pt" height="48pt" viewBox="0 0 48 48" version="1.1">
<g id="surface1">
<path style=" stroke:none;fill-rule:nonzero;fill:rgb(0%,0%,0%);fill-opacity:1;" d="M 37.84375 12.023438 C 37.4375 10.84375 36.320312 10 35 10 L 13 10 C 11.679688 10 10.578125 10.84375 10.15625 12.023438 L 6 24 L 6 40 C 6 41.101562 6.898438 42 8 42 L 10 42 C 11.101562 42 12 41.101562 12 40 L 12 38 L 36 38 L 36 40 C 36 41.101562 36.898438 42 38 42 L 40 42 C 41.101562 42 42 41.101562 42 40 L 42 24 Z M 13 32 C 11.34375 32 10 30.65625 10 29 C 10 27.34375 11.34375 26 13 26 C 14.65625 26 16 27.34375 16 29 C 16 30.65625 14.65625 32 13 32 Z M 35 32 C 33.34375 32 32 30.65625 32 29 C 32 27.34375 33.34375 26 35 26 C 36.65625 26 38 27.34375 38 29 C 38 30.65625 36.65625 32 35 32 Z M 10 22 L 13 13 L 35 13 L 38 22 Z M 10 22 "/>
</g>
</svg>
