<svg xmlns="http://www.w3.org/2000/svg"
     viewBox="0 0 24 24" version="1.1" width="48" height="48">
    <g id="surface1">
        <path style=" "
              d="M 7 2 L 6.5 4 L 17.5 4 L 17 2 Z M 7 5 C 6.449219 5 6 5.449219 6 6 C 6 6.550781 6.449219 7 7 7 C 7.550781 7 8 6.550781 8 6 C 8 5.449219 7.550781 5 7 5 Z M 12 5 L 9.5 7 L 11 7 L 11 15 L 8 15 L 12 19 L 16 15 L 13 15 L 13 7 L 14.5 7 Z M 17 5 C 16.449219 5 16 5.449219 16 6 C 16 6.550781 16.449219 7 17 7 C 17.550781 7 18 6.550781 18 6 C 18 5.449219 17.550781 5 17 5 Z M 6 9 C 5.449219 9 5 9.449219 5 10 C 5 10.550781 5.449219 11 6 11 C 6.550781 11 7 10.550781 7 10 C 7 9.449219 6.550781 9 6 9 Z M 18 9 C 17.449219 9 17 9.449219 17 10 C 17 10.550781 17.449219 11 18 11 C 18.550781 11 19 10.550781 19 10 C 19 9.449219 18.550781 9 18 9 Z M 5 13 C 4.449219 13 4 13.449219 4 14 C 4 14.550781 4.449219 15 5 15 C 5.550781 15 6 14.550781 6 14 C 6 13.449219 5.550781 13 5 13 Z M 19 13 C 18.449219 13 18 13.449219 18 14 C 18 14.550781 18.449219 15 19 15 C 19.550781 15 20 14.550781 20 14 C 20 13.449219 19.550781 13 19 13 Z M 4 17 C 3.449219 17 3 17.449219 3 18 C 3 18.550781 3.449219 19 4 19 C 4.550781 19 5 18.550781 5 18 C 5 17.449219 4.550781 17 4 17 Z M 20 17 C 19.449219 17 19 17.449219 19 18 C 19 18.550781 19.449219 19 20 19 C 20.550781 19 21 18.550781 21 18 C 21 17.449219 20.550781 17 20 17 Z M 2.5 20 L 2 22 L 22 22 L 21.5 20 Z "/>
    </g>
</svg>