<?xml version="1.0" encoding="UTF-8"?>
<svg xmlns="http://www.w3.org/2000/svg" width="48pt"
     height="48pt" viewBox="0 0 48 48" version="1.1">
    <g id="surface1">
        <path style=" stroke:none;fill-rule:nonzero;fill:rgb(0%,0%,0%);fill-opacity:1;"
              d="M 24 32 C 26.210938 32 28 33.789062 28 36 C 28 38.210938 26.210938 40 24 40 C 21.789062 40 20 38.210938 20 36 C 20 33.789062 21.789062 32 24 32 M 24 20 C 26.210938 20 28 21.789062 28 24 C 28 26.210938 26.210938 28 24 28 C 21.789062 28 20 26.210938 20 24 C 20 21.789062 21.789062 20 24 20 M 24 8 C 26.210938 8 28 9.789062 28 12 C 28 14.210938 26.210938 16 24 16 C 21.789062 16 20 14.210938 20 12 C 20 9.789062 21.789062 8 24 8 Z M 24 8 "/>
    </g>
</svg>
