<?xml version="1.0" encoding="UTF-8"?>
<!DOCTYPE svg PUBLIC "-//W3C//DTD SVG 1.1//EN" "http://www.w3.org/Graphics/SVG/1.1/DTD/svg11.dtd">
<svg version="1.1" xmlns="http://www.w3.org/2000/svg" xmlns:xlink="http://www.w3.org/1999/xlink" x="0" y="0" width="48" height="48" viewBox="0, 0, 48, 48">
  <g id="Layer_1">
    <path d="M28.8,12 L40,12 L40,32 L26,32 L25.2,28 L14,28 L14,42 L10,42 L10,8 L28,8 L28.8,12 M28,28 L32,28 L32,24 L36,24 L36,20 L32,20 L32,16 L28,16 L28,20 L26,16 L26,12 L22,12 L22,16 L18,16 L18,12 L14,12 L14,16 L18,16 L18,20 L14,20 L14,24 L18,24 L18,20 L22,20 L22,24 L26,24 L26,20 L28,24 L28,28 M22,20 L22,16 L26,16 L26,20 L22,20 M28,20 L32,20 L32,24 L28,24 L28,20 z" fill="#000000"/>
  </g>
</svg>
