<?xml version="1.0" encoding="UTF-8"?>
<svg xmlns="http://www.w3.org/2000/svg" width="48pt"
     height="48pt" viewBox="0 0 48 48" version="1.1">
    <g id="surface1">
        <path style=" stroke:none;fill-rule:nonzero;fill:rgb(0%,0%,0%);fill-opacity:1;"
              d="M 7.101562 37.078125 L 9.921875 39.898438 L 13.515625 36.320312 L 10.679688 33.484375 M 22 44.898438 C 22.640625 44.898438 26 44.898438 26 44.898438 L 26 39 L 22 39 M 24 11 C 17.375 11 12 16.375 12 23 C 12 29.625 17.375 35 24 35 C 30.625 35 36 29.625 36 23 C 36 16.359375 30.625 11 24 11 M 40 25 L 46 25 L 46 21 L 40 21 M 34.484375 36.320312 L 38.078125 39.898438 L 40.898438 37.078125 L 37.320312 33.484375 M 40.898438 8.921875 L 38.078125 6.101562 L 34.484375 9.679688 L 37.320312 12.515625 M 26 1.101562 L 22 1.101562 L 22 7 L 26 7 M 8 21 L 2 21 L 2 25 L 8 25 M 13.515625 9.679688 L 9.921875 6.101562 L 7.101562 8.921875 L 10.679688 12.515625 Z M 13.515625 9.679688 "/>
    </g>
</svg>
