<?xml version="1.0" encoding="UTF-8"?>
<svg xmlns="http://www.w3.org/2000/svg" width="48pt"
     height="48pt" viewBox="0 0 48 48" version="1.1">
    <defs>
        <clipPath id="clip1">
            <path d="M 2 15 L 15 15 L 15 33 L 2 33 Z M 2 15 "/>
        </clipPath>
        <clipPath id="clip2">
            <path
                d="M 14.429688 18.734375 L 6.484375 18.734375 L 6.484375 21.945312 L 13.84375 21.945312 L 13.84375 25.289062 L 6.484375 25.289062 L 6.484375 32.664062 L 2.046875 32.664062 L 2.046875 15.390625 L 14.429688 15.390625 Z M 26.835938 32.664062 L 16.726562 32.664062 L 16.726562 29.601562 L 19.554688 29.601562 L 19.554688 18.453125 L 16.726562 18.453125 L 16.726562 15.390625 L 26.835938 15.390625 L 26.835938 18.453125 L 24.007812 18.453125 L 24.007812 29.601562 L 26.835938 29.601562 Z M 46.148438 32.664062 L 41 32.664062 L 37.273438 26.984375 L 33.484375 32.664062 L 28.5625 32.664062 L 34.6875 23.96875 L 28.695312 15.390625 L 33.828125 15.390625 L 37.429688 20.773438 L 41.125 15.390625 L 46.054688 15.390625 L 40.023438 23.789062 Z M 46.148438 32.664062 "/>
        </clipPath>
        <clipPath id="clip3">
            <path d="M 16 15 L 27 15 L 27 33 L 16 33 Z M 16 15 "/>
        </clipPath>
        <clipPath id="clip4">
            <path
                d="M 14.429688 18.734375 L 6.484375 18.734375 L 6.484375 21.945312 L 13.84375 21.945312 L 13.84375 25.289062 L 6.484375 25.289062 L 6.484375 32.664062 L 2.046875 32.664062 L 2.046875 15.390625 L 14.429688 15.390625 Z M 26.835938 32.664062 L 16.726562 32.664062 L 16.726562 29.601562 L 19.554688 29.601562 L 19.554688 18.453125 L 16.726562 18.453125 L 16.726562 15.390625 L 26.835938 15.390625 L 26.835938 18.453125 L 24.007812 18.453125 L 24.007812 29.601562 L 26.835938 29.601562 Z M 46.148438 32.664062 L 41 32.664062 L 37.273438 26.984375 L 33.484375 32.664062 L 28.5625 32.664062 L 34.6875 23.96875 L 28.695312 15.390625 L 33.828125 15.390625 L 37.429688 20.773438 L 41.125 15.390625 L 46.054688 15.390625 L 40.023438 23.789062 Z M 46.148438 32.664062 "/>
        </clipPath>
        <clipPath id="clip5">
            <path d="M 28 15 L 47 15 L 47 33 L 28 33 Z M 28 15 "/>
        </clipPath>
        <clipPath id="clip6">
            <path
                d="M 14.429688 18.734375 L 6.484375 18.734375 L 6.484375 21.945312 L 13.84375 21.945312 L 13.84375 25.289062 L 6.484375 25.289062 L 6.484375 32.664062 L 2.046875 32.664062 L 2.046875 15.390625 L 14.429688 15.390625 Z M 26.835938 32.664062 L 16.726562 32.664062 L 16.726562 29.601562 L 19.554688 29.601562 L 19.554688 18.453125 L 16.726562 18.453125 L 16.726562 15.390625 L 26.835938 15.390625 L 26.835938 18.453125 L 24.007812 18.453125 L 24.007812 29.601562 L 26.835938 29.601562 Z M 46.148438 32.664062 L 41 32.664062 L 37.273438 26.984375 L 33.484375 32.664062 L 28.5625 32.664062 L 34.6875 23.96875 L 28.695312 15.390625 L 33.828125 15.390625 L 37.429688 20.773438 L 41.125 15.390625 L 46.054688 15.390625 L 40.023438 23.789062 Z M 46.148438 32.664062 "/>
        </clipPath>
    </defs>
    <g id="surface1">
        <path style=" stroke:none;fill-rule:nonzero;fill:rgb(100%,0%,0%);fill-opacity:1;"
              d="M 48.054688 24.023438 C 48.054688 37.273438 37.3125 48.023438 24.054688 48.023438 C 10.804688 48.023438 0.0546875 37.273438 0.0546875 24.023438 C 0.0546875 10.765625 10.804688 0.0234375 24.054688 0.0234375 C 37.3125 0.0234375 48.054688 10.765625 48.054688 24.023438 Z M 48.054688 24.023438 "/>
        <g clip-path="url(#clip1)" clip-rule="nonzero">
            <g clip-path="url(#clip2)" clip-rule="nonzero">
                <path
                    style=" stroke:none;fill-rule:nonzero;fill:rgb(100%,100%,100%);fill-opacity:1;"
                    d="M 14.429688 18.734375 L 6.484375 18.734375 L 6.484375 21.945312 L 13.84375 21.945312 L 13.84375 25.289062 L 6.484375 25.289062 L 6.484375 32.664062 L 2.046875 32.664062 L 2.046875 15.390625 L 14.429688 15.390625 Z M 14.429688 18.734375 "/>
            </g>
        </g>
        <g clip-path="url(#clip3)" clip-rule="nonzero">
            <g clip-path="url(#clip4)" clip-rule="nonzero">
                <path
                    style=" stroke:none;fill-rule:nonzero;fill:rgb(100%,100%,100%);fill-opacity:1;"
                    d="M 26.835938 32.664062 L 16.726562 32.664062 L 16.726562 29.601562 L 19.554688 29.601562 L 19.554688 18.453125 L 16.726562 18.453125 L 16.726562 15.390625 L 26.835938 15.390625 L 26.835938 18.453125 L 24.007812 18.453125 L 24.007812 29.601562 L 26.835938 29.601562 Z M 26.835938 32.664062 "/>
            </g>
        </g>
        <g clip-path="url(#clip5)" clip-rule="nonzero">
            <g clip-path="url(#clip6)" clip-rule="nonzero">
                <path
                    style=" stroke:none;fill-rule:nonzero;fill:rgb(100%,100%,100%);fill-opacity:1;"
                    d="M 46.148438 32.664062 L 41 32.664062 L 37.273438 26.984375 L 33.484375 32.664062 L 28.5625 32.664062 L 34.6875 23.96875 L 28.695312 15.390625 L 33.828125 15.390625 L 37.429688 20.773438 L 41.125 15.390625 L 46.054688 15.390625 L 40.023438 23.789062 Z M 46.148438 32.664062 "/>
            </g>
        </g>
    </g>
</svg>
