<?xml version="1.0" encoding="UTF-8"?>
<svg xmlns="http://www.w3.org/2000/svg" xmlns:xlink="http://www.w3.org/1999/xlink" width="48pt" height="48pt" viewBox="0 0 48 48" version="1.1">
<g id="surface1">
<path style=" stroke:none;fill-rule:nonzero;fill:rgb(0%,0%,0%);fill-opacity:1;" d="M 14 26 L 42 26 L 42 22 L 14 22 M 14 38 L 42 38 L 42 34 L 14 34 M 14 14 L 42 14 L 42 10 L 14 10 M 4 22 L 7.601562 22 L 4 26.203125 L 4 28 L 10 28 L 10 26 L 6.398438 26 L 10 21.796875 L 10 20 L 4 20 M 6 16 L 8 16 L 8 8 L 4 8 L 4 10 L 6 10 M 4 34 L 8 34 L 8 35 L 6 35 L 6 37 L 8 37 L 8 38 L 4 38 L 4 40 L 10 40 L 10 32 L 4 32 Z M 4 34 "/>
</g>
</svg>
