<?xml version="1.0" encoding="UTF-8"?>
<svg xmlns="http://www.w3.org/2000/svg" width="48pt"
     height="48pt" viewBox="0 0 48 48" version="1.1">
    <g id="surface1">
        <path style=" stroke:none;fill-rule:nonzero;fill:rgb(0%,0%,0%);fill-opacity:1;"
              d="M 14 10 L 42 10 L 42 14 L 14 14 L 14 10 M 14 26 L 14 22 L 42 22 L 42 26 L 14 26 M 8 9 C 9.65625 9 11 10.34375 11 12 C 11 13.65625 9.65625 15 8 15 C 6.34375 15 5 13.65625 5 12 C 5 10.34375 6.34375 9 8 9 M 8 21 C 9.65625 21 11 22.34375 11 24 C 11 25.65625 9.65625 27 8 27 C 6.34375 27 5 25.65625 5 24 C 5 22.34375 6.34375 21 8 21 M 14 38 L 14 34 L 42 34 L 42 38 L 14 38 M 8 33 C 9.65625 33 11 34.34375 11 36 C 11 37.65625 9.65625 39 8 39 C 6.34375 39 5 37.65625 5 36 C 5 34.34375 6.34375 33 8 33 Z M 8 33 "/>
    </g>
</svg>
