<?xml version="1.0" encoding="UTF-8"?>
<svg xmlns="http://www.w3.org/2000/svg" width="48pt"
     height="48pt" viewBox="0 0 48 48" version="1.1">
    <g id="surface1">
        <path style=" stroke:none;fill-rule:nonzero;fill:rgb(0%,0%,0%);fill-opacity:1;"
              d="M 37.203125 13.234375 C 34.320312 13.234375 31.601562 14.359375 29.65625 16.296875 L 24 21.320312 L 20.960938 24 L 20.984375 24 L 15.601562 28.78125 C 14.320312 30.0625 12.625 30.765625 10.796875 30.765625 C 7.0625 30.765625 4.015625 27.734375 4.015625 24 C 4.015625 20.265625 7.0625 17.234375 10.796875 17.234375 C 12.625 17.234375 14.320312 17.9375 15.679688 19.296875 L 17.9375 21.296875 L 20.960938 18.625 L 18.4375 16.398438 C 16.398438 14.359375 13.679688 13.234375 10.796875 13.234375 C 4.84375 13.234375 0 18.078125 0 24 C 0 29.921875 4.84375 34.765625 10.796875 34.765625 C 13.679688 34.765625 16.398438 33.640625 18.34375 31.703125 L 24 26.703125 L 24.015625 26.71875 L 27.039062 24 L 27.015625 24 L 32.398438 19.21875 C 33.679688 17.9375 35.375 17.234375 37.203125 17.234375 C 40.9375 17.234375 43.984375 20.265625 43.984375 24 C 43.984375 27.734375 40.9375 30.765625 37.203125 30.765625 C 35.398438 30.765625 33.679688 30.0625 32.320312 28.703125 L 30.039062 26.679688 L 27.015625 29.359375 L 29.5625 31.601562 C 31.601562 33.625 34.296875 34.734375 37.203125 34.734375 C 43.15625 34.734375 48 29.921875 48 23.984375 C 48 18.039062 43.15625 13.234375 37.203125 13.234375 Z M 37.203125 13.234375 "/>
    </g>
</svg>
