<?xml version="1.0" encoding="UTF-8"?>
<svg xmlns="http://www.w3.org/2000/svg" xmlns:xlink="http://www.w3.org/1999/xlink" width="48pt" height="48pt" viewBox="0 0 48 48" version="1.1">
<g id="surface1">
<path style=" stroke:none;fill-rule:nonzero;fill:rgb(0%,0%,0%);fill-opacity:1;" d="M 37.199219 13.238281 C 34.320312 13.238281 31.601562 14.359375 29.660156 16.300781 L 24 21.320312 L 20.960938 24 L 20.980469 24 L 15.601562 28.78125 C 14.320312 30.058594 12.621094 30.761719 10.800781 30.761719 C 7.058594 30.761719 4.019531 27.738281 4.019531 24 C 4.019531 20.261719 7.058594 17.238281 10.800781 17.238281 C 12.621094 17.238281 14.320312 17.941406 15.679688 19.300781 L 17.941406 21.300781 L 20.960938 18.621094 L 18.441406 16.398438 C 16.398438 14.359375 13.679688 13.238281 10.800781 13.238281 C 4.839844 13.238281 0 18.078125 0 24 C 0 29.921875 4.839844 34.761719 10.800781 34.761719 C 13.679688 34.761719 16.398438 33.640625 18.339844 31.699219 L 24 26.699219 L 24.019531 26.71875 L 27.039062 24 L 27.019531 24 L 32.398438 19.21875 C 33.679688 17.941406 35.378906 17.238281 37.199219 17.238281 C 40.941406 17.238281 43.980469 20.261719 43.980469 24 C 43.980469 27.738281 40.941406 30.761719 37.199219 30.761719 C 35.398438 30.761719 33.679688 30.058594 32.320312 28.699219 L 30.039062 26.679688 L 27.019531 29.359375 L 29.558594 31.601562 C 31.601562 33.621094 34.300781 34.738281 37.199219 34.738281 C 43.160156 34.738281 48 29.921875 48 23.980469 C 48 18.039062 43.160156 13.238281 37.199219 13.238281 Z M 37.199219 13.238281 "/>
</g>
</svg>
