<?xml version="1.0" encoding="UTF-8"?>
<svg xmlns="http://www.w3.org/2000/svg" xmlns:xlink="http://www.w3.org/1999/xlink" width="48pt" height="48pt" viewBox="0 0 48 48" version="1.1">
<defs>
<linearGradient id="linear0" gradientUnits="userSpaceOnUse" x1="23.552" y1="4.006" x2="24.448" y2="43.994" >
<stop offset="0" style="stop-color:rgb(23.137255%,43.529412%,65.882353%);stop-opacity:1;"/>
<stop offset="1" style="stop-color:rgb(15.686275%,29.803922%,45.490196%);stop-opacity:0.960784;"/>
</linearGradient>
<linearGradient id="linear1" gradientUnits="userSpaceOnUse" x1="23.552" y1="4.006" x2="24.448" y2="43.994" >
<stop offset="0" style="stop-color:rgb(23.137255%,43.529412%,65.882353%);stop-opacity:1;"/>
<stop offset="1" style="stop-color:rgb(15.686275%,29.803922%,45.490196%);stop-opacity:0.960784;"/>
</linearGradient>
<clipPath id="clip1">
  <path d="M 4 4 L 44 4 L 44 44 L 4 44 Z M 4 4 "/>
</clipPath>
<clipPath id="clip2">
  <path d="M 44 10.25 C 44 6.796875 41.203125 4 37.75 4 L 10.25 4 C 6.796875 4 4 6.796875 4 10.25 L 4 37.75 C 4 41.203125 6.796875 44 10.25 44 L 37.75 44 C 41.203125 44 44 41.203125 44 37.75 Z M 44 10.25 "/>
</clipPath>
<filter id="alpha" filterUnits="objectBoundingBox" x="0%" y="0%" width="100%" height="100%">
  <feColorMatrix type="matrix" in="SourceGraphic" values="0 0 0 0 1 0 0 0 0 1 0 0 0 0 1 0 0 0 1 0"/>
</filter>
<mask id="mask0">
  <g filter="url(#alpha)">
<rect x="0" y="0" width="48" height="48" style="fill:rgb(0%,0%,0%);fill-opacity:0.501961;stroke:none;"/>
  </g>
</mask>
<linearGradient id="linear2" gradientUnits="userSpaceOnUse" x1="23.54" y1="4.044" x2="24.436" y2="44.032" >
<stop offset="0" style="stop-color:rgb(23.137255%,43.529412%,65.882353%);stop-opacity:1;"/>
<stop offset="1" style="stop-color:rgb(15.686275%,29.803922%,45.490196%);stop-opacity:0.960784;"/>
</linearGradient>
<clipPath id="clip3">
  <rect width="48" height="48"/>
</clipPath>
<g id="surface6" clip-path="url(#clip3)">
<path style=" stroke:none;fill-rule:nonzero;fill:url(#linear2);" d="M 43.988281 10.289062 C 43.988281 6.835938 41.191406 4.039062 37.738281 4.039062 L 10.238281 4.039062 C 6.785156 4.039062 3.988281 6.835938 3.988281 10.289062 L 3.988281 37.789062 C 3.988281 41.238281 6.785156 44.039062 10.238281 44.039062 L 37.738281 44.039062 C 41.191406 44.039062 43.988281 41.238281 43.988281 37.789062 Z M 43.988281 10.289062 "/>
</g>
</defs>
<g id="surface1">
<path style=" stroke:none;fill-rule:nonzero;fill:url(#linear0);" d="M 44 10.25 C 44 6.796875 41.203125 4 37.75 4 L 10.25 4 C 6.796875 4 4 6.796875 4 10.25 L 4 37.75 C 4 41.203125 6.796875 44 10.25 44 L 37.75 44 C 41.203125 44 44 41.203125 44 37.75 Z M 44 10.25 "/>
<path style=" stroke:none;fill-rule:nonzero;fill:url(#linear1);" d="M 37.75 4 C 41.203125 4 44 6.796875 44 10.25 L 44 37.75 C 44 41.203125 41.203125 44 37.75 44 L 10.25 44 C 6.796875 44 4 41.203125 4 37.75 L 4 10.25 C 4 6.796875 6.796875 4 10.25 4 Z M 37.75 4 "/>
<g clip-path="url(#clip1)" clip-rule="nonzero">
<g clip-path="url(#clip2)" clip-rule="nonzero">
<use xlink:href="#surface6" mask="url(#mask0)"/>
</g>
</g>
<path style=" stroke:none;fill-rule:nonzero;fill:rgb(97.254902%,68.235294%,9.411765%);fill-opacity:1;" d="M 31.042969 21.121094 C 30.945312 21.195312 30.882812 21.285156 30.855469 21.398438 C 30.832031 21.511719 30.804688 21.617188 30.785156 21.714844 C 30.757812 21.816406 30.707031 21.894531 30.632812 21.957031 C 30.558594 22.019531 30.425781 22.015625 30.226562 21.9375 C 30.277344 22.015625 30.324219 22.125 30.375 22.277344 C 30.375 22.449219 30.367188 22.621094 30.355469 22.796875 C 30.34375 22.96875 30.363281 23.132812 30.410156 23.28125 C 30.558594 23.777344 30.726562 24.277344 30.914062 24.773438 C 31.097656 25.273438 31.265625 25.769531 31.414062 26.265625 C 31.539062 26.6875 31.6875 27.09375 31.863281 27.476562 C 32.035156 27.863281 32.21875 28.242188 32.421875 28.617188 C 32.566406 28.863281 32.707031 29.113281 32.828125 29.363281 C 32.953125 29.609375 33.074219 29.871094 33.199219 30.144531 C 33.25 30.195312 33.277344 30.242188 33.277344 30.292969 C 33.148438 30.519531 33.144531 30.699219 33.257812 30.835938 C 33.367188 30.972656 33.472656 31.101562 33.574219 31.226562 C 33.769531 31.5 33.964844 31.757812 34.148438 31.988281 C 34.335938 32.226562 34.503906 32.480469 34.652344 32.757812 C 34.699219 32.828125 34.726562 32.929688 34.726562 33.054688 C 34.726562 33.179688 34.726562 33.300781 34.726562 33.425781 C 34.726562 33.476562 34.71875 33.535156 34.707031 33.597656 C 34.695312 33.65625 34.714844 33.714844 34.765625 33.761719 C 35.136719 34.136719 35.496094 34.515625 35.84375 34.898438 C 36.1875 35.285156 36.660156 35.539062 37.257812 35.664062 C 37.054688 35.984375 36.785156 36.097656 36.4375 36 C 36.089844 35.898438 35.730469 35.820312 35.359375 35.757812 C 34.984375 35.695312 34.625 35.601562 34.28125 35.476562 C 33.957031 35.355469 33.644531 35.207031 33.351562 35.03125 C 33.050781 34.855469 32.765625 34.644531 32.492188 34.398438 C 31.253906 33.28125 30.175781 31.964844 29.257812 30.449219 C 28.8125 29.78125 28.394531 29.089844 28.011719 28.382812 C 27.625 27.675781 27.222656 26.972656 26.804688 26.277344 C 26.753906 26.226562 26.6875 26.171875 26.597656 26.109375 C 26.511719 26.046875 26.445312 26.03125 26.394531 26.054688 C 26.21875 26.152344 26.050781 26.257812 25.890625 26.371094 C 25.730469 26.480469 25.5625 26.601562 25.386719 26.726562 C 25.636719 26.875 25.699219 27.007812 25.574219 27.117188 C 25.449219 27.226562 25.324219 27.347656 25.203125 27.46875 C 25.007812 27.667969 24.8125 27.84375 24.625 27.992188 C 24.441406 28.140625 24.246094 28.3125 24.050781 28.515625 C 23.925781 28.613281 23.820312 28.71875 23.734375 28.828125 C 23.644531 28.941406 23.542969 29.058594 23.417969 29.183594 L 23.457031 29.21875 C 23.457031 29.246094 23.464844 29.269531 23.492188 29.296875 C 23.367188 29.46875 23.25 29.625 23.136719 29.761719 C 23.027344 29.894531 22.90625 30.027344 22.785156 30.152344 C 22.511719 30.476562 22.285156 30.816406 22.097656 31.175781 C 21.910156 31.535156 21.621094 31.816406 21.222656 32.015625 C 21.125 32.0625 21.046875 32.136719 21 32.238281 C 20.949219 32.335938 20.886719 32.449219 20.8125 32.570312 C 20.738281 32.695312 20.65625 32.808594 20.570312 32.90625 C 20.484375 33.007812 20.34375 33.054688 20.144531 33.054688 C 20.070312 33.03125 19.96875 33.082031 19.847656 33.207031 C 19.574219 33.554688 19.300781 33.894531 19.027344 34.230469 C 18.757812 34.566406 18.59375 34.980469 18.546875 35.476562 C 18.519531 35.703125 18.457031 35.925781 18.359375 36.148438 C 18.261719 36.371094 18.1875 36.597656 18.136719 36.816406 C 18.113281 36.914062 18.105469 37.015625 18.117188 37.117188 C 18.128906 37.214844 18.136719 37.351562 18.136719 37.527344 C 18.0625 37.5 17.960938 37.492188 17.839844 37.507812 C 17.714844 37.519531 17.617188 37.5 17.539062 37.449219 C 17.195312 37.226562 16.914062 36.960938 16.703125 36.648438 C 16.492188 36.339844 16.375 35.976562 16.351562 35.550781 C 16.300781 34.609375 16.425781 33.714844 16.722656 32.871094 C 17.019531 32.027344 17.378906 31.207031 17.800781 30.410156 C 18 30.039062 18.191406 29.675781 18.375 29.3125 C 18.5625 28.953125 18.78125 28.613281 19.027344 28.289062 C 19.796875 27.269531 20.566406 26.273438 21.335938 25.289062 C 22.105469 24.308594 22.882812 23.324219 23.679688 22.328125 C 23.824219 22.128906 23.980469 21.949219 24.144531 21.789062 C 24.304688 21.625 24.457031 21.460938 24.609375 21.285156 C 24.804688 21.113281 24.855469 20.886719 24.757812 20.617188 C 24.65625 20.390625 24.570312 20.160156 24.496094 19.925781 C 24.421875 19.691406 24.347656 19.449219 24.273438 19.199219 C 24.148438 18.777344 24.019531 18.34375 23.882812 17.894531 C 23.746094 17.449219 23.617188 17.003906 23.492188 16.554688 C 23.269531 15.761719 23.046875 14.972656 22.820312 14.191406 C 22.597656 13.40625 22.363281 12.621094 22.117188 11.824219 C 22.066406 11.675781 22.046875 11.558594 22.058594 11.472656 C 22.070312 11.386719 22.164062 11.292969 22.339844 11.191406 C 22.535156 11.09375 22.722656 11.007812 22.894531 10.933594 C 23.070312 10.855469 23.28125 10.84375 23.527344 10.894531 C 23.703125 10.917969 23.875 10.886719 24.050781 10.800781 C 24.222656 10.714844 24.40625 10.644531 24.609375 10.597656 C 24.683594 10.570312 24.757812 10.546875 24.832031 10.523438 C 24.90625 10.496094 24.964844 10.507812 25.015625 10.558594 C 25.289062 10.757812 25.582031 10.835938 25.890625 10.800781 C 26.203125 10.765625 26.492188 10.796875 26.765625 10.894531 C 26.988281 10.945312 27.230469 11.125 27.492188 11.433594 C 27.753906 11.742188 27.894531 12.011719 27.917969 12.234375 C 27.96875 12.804688 28.015625 13.371094 28.066406 13.929688 C 28.117188 14.488281 28.164062 15.054688 28.214844 15.625 C 28.238281 15.824219 28.277344 16.023438 28.328125 16.21875 C 28.375 16.417969 28.425781 16.644531 28.476562 16.890625 C 28.527344 16.84375 28.582031 16.808594 28.644531 16.796875 C 28.707031 16.785156 28.761719 16.757812 28.8125 16.707031 L 31.042969 14.582031 C 31.5625 14.109375 32.085938 13.636719 32.605469 13.164062 C 33.125 12.695312 33.644531 12.222656 34.167969 11.75 C 34.714844 11.328125 35.253906 10.90625 35.785156 10.484375 C 36.316406 10.0625 36.859375 9.640625 37.402344 9.21875 C 37.675781 9.019531 37.957031 8.835938 38.242188 8.660156 C 38.527344 8.484375 38.855469 8.4375 39.226562 8.511719 C 39.324219 8.535156 39.414062 8.554688 39.484375 8.570312 C 39.5625 8.585938 39.636719 8.632812 39.710938 8.710938 C 39.636719 8.765625 39.554688 8.8125 39.46875 8.851562 C 39.382812 8.894531 39.289062 8.941406 39.191406 8.992188 L 39.191406 9.105469 C 39.289062 9.105469 39.375 9.113281 39.449219 9.125 C 39.527344 9.136719 39.613281 9.140625 39.710938 9.140625 C 39.90625 9.140625 40.121094 9.148438 40.34375 9.160156 C 40.566406 9.175781 40.753906 9.277344 40.898438 9.476562 C 40.949219 9.527344 40.980469 9.589844 40.992188 9.664062 C 41.007812 9.734375 41.035156 9.800781 41.085938 9.847656 C 41.113281 9.898438 41.125 9.941406 41.125 9.976562 C 41.125 10.015625 41.136719 10.046875 41.160156 10.070312 C 41.308594 10.195312 41.457031 10.324219 41.609375 10.464844 C 41.757812 10.601562 41.914062 10.714844 42.09375 10.816406 C 42.414062 10.964844 42.476562 11.175781 42.277344 11.449219 C 42.324219 11.546875 42.375 11.636719 42.425781 11.707031 C 42.476562 11.785156 42.527344 11.859375 42.574219 11.933594 C 42.699219 12.207031 42.746094 12.402344 42.722656 12.527344 C 42.699219 12.652344 42.5625 12.8125 42.316406 13.011719 C 42.042969 13.210938 41.777344 13.421875 41.515625 13.644531 C 41.253906 13.867188 40.984375 14.089844 40.714844 14.3125 C 40.664062 14.363281 40.566406 14.4375 40.414062 14.535156 C 40.144531 14.660156 39.882812 14.765625 39.636719 14.851562 C 39.386719 14.941406 39.125 15.046875 38.855469 15.167969 C 38.65625 15.292969 38.46875 15.414062 38.296875 15.539062 C 38.125 15.664062 37.9375 15.789062 37.738281 15.910156 C 37.539062 16.035156 37.347656 16.148438 37.160156 16.246094 C 36.976562 16.347656 36.796875 16.457031 36.625 16.582031 C 36.351562 16.804688 36.089844 17.042969 35.84375 17.289062 C 35.59375 17.535156 35.335938 17.773438 35.058594 17.996094 C 34.960938 18.097656 34.855469 18.175781 34.746094 18.234375 C 34.632812 18.296875 34.527344 18.367188 34.429688 18.441406 C 34.054688 18.765625 33.691406 19.074219 33.328125 19.371094 C 32.972656 19.671875 32.605469 19.980469 32.234375 20.300781 C 31.761719 20.699219 31.253906 20.894531 30.707031 20.894531 C 30.65625 20.871094 30.621094 20.878906 30.597656 20.914062 C 30.570312 20.953125 30.535156 20.984375 30.484375 21.007812 C 30.484375 21.035156 30.492188 21.050781 30.503906 21.066406 C 30.515625 21.074219 30.523438 21.097656 30.523438 21.121094 Z M 31.042969 21.121094 "/>
</g>
</svg>
