<?xml version="1.0" encoding="UTF-8"?>
<!DOCTYPE svg PUBLIC "-//W3C//DTD SVG 1.1//EN" "http://www.w3.org/Graphics/SVG/1.1/DTD/svg11.dtd">
<svg version="1.1" xmlns="http://www.w3.org/2000/svg" xmlns:xlink="http://www.w3.org/1999/xlink" x="0" y="0" width="24" height="24" viewBox="0, 0, 24, 24">
  <defs>
    <linearGradient id="Gradient_1" gradientUnits="userSpaceOnUse" x1="11.776" y1="2.003" x2="12.224" y2="21.997">
      <stop offset="0" stop-color="#3B6FA8"/>
      <stop offset="1" stop-color="#284C74" stop-opacity="0.959"/>
    </linearGradient>
    <linearGradient id="Gradient_2" gradientUnits="userSpaceOnUse" x1="11.776" y1="2.003" x2="12.224" y2="21.997">
      <stop offset="0" stop-color="#3B6FA8"/>
      <stop offset="1" stop-color="#284C74" stop-opacity="0.959"/>
    </linearGradient>
    <linearGradient id="Gradient_3" gradientUnits="userSpaceOnUse" x1="11.77" y1="2.022" x2="12.218" y2="22.016">
      <stop offset="0" stop-color="#3B6FA8"/>
      <stop offset="1" stop-color="#284C74" stop-opacity="0.959"/>
    </linearGradient>
    <clipPath id="Clip_1">
      <path d="M22,5.125 C22,3.399 20.601,2 18.875,2 L5.125,2 C3.399,2 2,3.399 2,5.125 L2,18.875 C2,20.601 3.399,22 5.125,22 L18.875,22 C20.601,22 22,20.601 22,18.875 L22,5.125 z"/>
    </clipPath>
  </defs>
  <g id="Ebene_1">
    <g>
      <path d="M22,5.125 C22,3.399 20.601,2 18.875,2 L5.125,2 C3.399,2 2,3.399 2,5.125 L2,18.875 C2,20.601 3.399,22 5.125,22 L18.875,22 C20.601,22 22,20.601 22,18.875 L22,5.125 z" fill="url(#Gradient_1)" id="SVGID_40_"/>
      <path d="M18.875,2 C20.601,2 22,3.399 22,5.125 L22,18.875 C22,20.601 20.601,22 18.875,22 L5.125,22 C3.399,22 2,20.601 2,18.875 L2,5.125 C2,3.399 3.399,2 5.125,2 L18.875,2 z" fill="url(#Gradient_2)"/>
      <g clip-path="url(#Clip_1)" opacity="0.5">
        <path d="M21.994,5.144 C21.994,3.418 20.595,2.019 18.869,2.019 L5.119,2.019 C3.393,2.019 1.994,3.418 1.994,5.144 L1.994,18.894 C1.994,20.62 3.393,22.019 5.119,22.019 L18.869,22.019 C20.595,22.019 21.994,20.62 21.994,18.894 L21.994,5.144 z" fill="url(#Gradient_3)"/>
      </g>
    </g>
    <path d="M15.522,10.56 C15.472,10.598 15.441,10.643 15.428,10.699 C15.416,10.755 15.403,10.808 15.392,10.858 C15.379,10.908 15.354,10.948 15.317,10.978 C15.28,11.01 15.212,11.007 15.113,10.969 C15.138,11.007 15.162,11.063 15.187,11.138 C15.187,11.224 15.183,11.311 15.178,11.398 C15.171,11.485 15.181,11.566 15.206,11.641 C15.28,11.889 15.363,12.138 15.457,12.387 C15.549,12.636 15.633,12.884 15.708,13.133 C15.769,13.344 15.844,13.546 15.931,13.738 C16.018,13.932 16.11,14.121 16.21,14.308 C16.284,14.432 16.353,14.556 16.414,14.681 C16.477,14.805 16.538,14.936 16.6,15.073 C16.625,15.097 16.638,15.122 16.638,15.147 C16.575,15.259 16.573,15.349 16.628,15.418 C16.684,15.486 16.737,15.551 16.787,15.613 C16.885,15.75 16.982,15.878 17.074,15.995 C17.168,16.113 17.252,16.241 17.326,16.378 C17.35,16.415 17.363,16.465 17.363,16.527 C17.363,16.589 17.363,16.651 17.363,16.713 C17.363,16.738 17.36,16.767 17.353,16.798 C17.348,16.828 17.357,16.857 17.382,16.881 C17.568,17.068 17.748,17.258 17.921,17.45 C18.094,17.643 18.33,17.77 18.628,17.833 C18.528,17.993 18.392,18.049 18.218,18 C18.045,17.95 17.865,17.91 17.679,17.879 C17.493,17.848 17.313,17.801 17.14,17.739 C16.978,17.677 16.823,17.603 16.675,17.516 C16.526,17.428 16.383,17.323 16.247,17.199 C15.627,16.64 15.088,15.982 14.629,15.225 C14.406,14.89 14.198,14.545 14.006,14.191 C13.813,13.838 13.612,13.487 13.402,13.138 C13.377,13.114 13.343,13.086 13.299,13.055 C13.255,13.024 13.222,13.015 13.197,13.027 C13.11,13.077 13.026,13.129 12.946,13.185 C12.865,13.241 12.781,13.3 12.694,13.363 C12.818,13.437 12.849,13.503 12.788,13.558 C12.725,13.614 12.663,13.673 12.602,13.735 C12.503,13.834 12.407,13.921 12.313,13.996 C12.22,14.07 12.124,14.157 12.025,14.257 C11.963,14.306 11.91,14.359 11.867,14.415 C11.823,14.471 11.771,14.529 11.709,14.592 L11.728,14.61 C11.728,14.623 11.733,14.635 11.746,14.648 C11.684,14.734 11.625,14.812 11.569,14.88 C11.513,14.948 11.454,15.013 11.393,15.076 C11.256,15.238 11.142,15.408 11.048,15.588 C10.956,15.768 10.81,15.908 10.612,16.007 C10.562,16.032 10.524,16.069 10.5,16.119 C10.475,16.168 10.444,16.224 10.407,16.286 C10.37,16.348 10.329,16.404 10.286,16.454 C10.243,16.503 10.171,16.528 10.072,16.528 C10.035,16.516 9.985,16.541 9.923,16.603 C9.787,16.777 9.65,16.948 9.514,17.115 C9.378,17.283 9.297,17.491 9.273,17.739 C9.26,17.851 9.229,17.963 9.179,18.074 C9.13,18.186 9.093,18.298 9.068,18.409 C9.056,18.458 9.053,18.508 9.058,18.558 C9.065,18.607 9.068,18.675 9.068,18.763 C9.031,18.75 8.981,18.747 8.919,18.753 C8.857,18.759 8.808,18.75 8.77,18.725 C8.597,18.613 8.458,18.48 8.352,18.325 C8.247,18.17 8.188,17.988 8.175,17.776 C8.15,17.304 8.213,16.858 8.361,16.435 C8.51,16.013 8.69,15.603 8.9,15.206 C9,15.02 9.096,14.837 9.188,14.657 C9.282,14.477 9.39,14.306 9.514,14.144 C9.898,13.635 10.283,13.136 10.668,12.645 C11.052,12.155 11.442,11.662 11.839,11.164 C11.913,11.065 11.991,10.975 12.072,10.894 C12.152,10.813 12.229,10.73 12.304,10.643 C12.403,10.556 12.428,10.444 12.378,10.308 C12.328,10.196 12.285,10.081 12.248,9.963 C12.211,9.845 12.174,9.724 12.137,9.6 C12.074,9.389 12.009,9.172 11.942,8.948 C11.873,8.725 11.808,8.501 11.746,8.278 C11.634,7.88 11.523,7.486 11.411,7.095 C11.299,6.704 11.182,6.31 11.058,5.913 C11.033,5.838 11.023,5.779 11.03,5.736 C11.036,5.693 11.083,5.646 11.169,5.596 C11.268,5.547 11.362,5.503 11.448,5.466 C11.535,5.428 11.641,5.422 11.764,5.447 C11.851,5.459 11.938,5.444 12.025,5.4 C12.112,5.357 12.204,5.323 12.304,5.298 C12.341,5.286 12.378,5.273 12.416,5.261 C12.453,5.248 12.483,5.254 12.508,5.279 C12.645,5.378 12.791,5.418 12.946,5.4 C13.101,5.382 13.246,5.398 13.383,5.447 C13.494,5.472 13.615,5.562 13.746,5.717 C13.876,5.872 13.947,6.006 13.959,6.118 C13.984,6.403 14.008,6.686 14.033,6.965 C14.058,7.244 14.083,7.527 14.108,7.813 C14.12,7.912 14.139,8.011 14.164,8.11 C14.188,8.209 14.213,8.322 14.238,8.446 C14.263,8.421 14.291,8.405 14.322,8.398 C14.353,8.393 14.381,8.378 14.406,8.353 L15.522,7.291 C15.782,7.055 16.043,6.819 16.303,6.583 C16.563,6.347 16.823,6.112 17.084,5.875 C17.357,5.664 17.626,5.453 17.893,5.243 C18.159,5.031 18.429,4.82 18.702,4.609 C18.838,4.509 18.978,4.417 19.121,4.33 C19.263,4.243 19.428,4.218 19.613,4.255 C19.663,4.268 19.707,4.278 19.743,4.285 C19.781,4.293 19.818,4.316 19.855,4.356 C19.818,4.383 19.778,4.406 19.734,4.426 C19.691,4.447 19.644,4.47 19.595,4.497 L19.595,4.553 C19.644,4.553 19.688,4.556 19.725,4.562 C19.763,4.568 19.806,4.571 19.855,4.571 C19.954,4.571 20.06,4.574 20.172,4.58 C20.283,4.587 20.376,4.639 20.45,4.738 C20.475,4.763 20.491,4.794 20.497,4.832 C20.503,4.868 20.518,4.9 20.543,4.924 C20.556,4.949 20.562,4.971 20.562,4.989 C20.562,5.008 20.568,5.024 20.581,5.036 C20.655,5.098 20.729,5.163 20.804,5.232 C20.878,5.3 20.958,5.358 21.046,5.408 C21.207,5.483 21.238,5.588 21.138,5.724 C21.163,5.774 21.188,5.818 21.213,5.854 C21.238,5.892 21.263,5.929 21.288,5.966 C21.349,6.103 21.374,6.202 21.362,6.263 C21.349,6.326 21.281,6.407 21.158,6.505 C21.021,6.605 20.888,6.71 20.758,6.822 C20.627,6.933 20.493,7.045 20.358,7.157 C20.333,7.182 20.283,7.218 20.208,7.268 C20.072,7.33 19.942,7.383 19.818,7.426 C19.694,7.47 19.563,7.523 19.428,7.584 C19.328,7.647 19.235,7.708 19.148,7.77 C19.062,7.833 18.968,7.894 18.869,7.956 C18.77,8.018 18.674,8.074 18.581,8.123 C18.488,8.173 18.398,8.229 18.312,8.291 C18.175,8.403 18.045,8.521 17.921,8.644 C17.797,8.768 17.667,8.886 17.53,8.998 C17.481,9.048 17.428,9.088 17.373,9.118 C17.317,9.149 17.263,9.183 17.214,9.221 C17.028,9.383 16.845,9.537 16.665,9.686 C16.486,9.835 16.303,9.99 16.117,10.151 C15.881,10.349 15.627,10.448 15.354,10.448 C15.329,10.436 15.311,10.439 15.298,10.458 C15.286,10.477 15.268,10.492 15.243,10.504 C15.243,10.517 15.246,10.526 15.252,10.533 C15.258,10.538 15.261,10.548 15.261,10.56 L15.522,10.56 z" fill="#F8AE18"/>
  </g>
</svg>
