<?xml version="1.0" encoding="UTF-8"?>
<!DOCTYPE svg PUBLIC "-//W3C//DTD SVG 1.1//EN" "http://www.w3.org/Graphics/SVG/1.1/DTD/svg11.dtd">
<svg version="1.1" xmlns="http://www.w3.org/2000/svg" xmlns:xlink="http://www.w3.org/1999/xlink" x="0" y="0" width="48" height="48" viewBox="0, 0, 48, 48">
  <defs>
    <linearGradient id="Gradient_1" gradientUnits="userSpaceOnUse" x1="23.552" y1="4.006" x2="24.448" y2="43.994">
      <stop offset="0" stop-color="#3B6FA8"/>
      <stop offset="1" stop-color="#284C74" stop-opacity="0.959"/>
    </linearGradient>
    <linearGradient id="Gradient_2" gradientUnits="userSpaceOnUse" x1="23.552" y1="4.006" x2="24.448" y2="43.994">
      <stop offset="0" stop-color="#3B6FA8"/>
      <stop offset="1" stop-color="#284C74" stop-opacity="0.959"/>
    </linearGradient>
    <linearGradient id="Gradient_3" gradientUnits="userSpaceOnUse" x1="23.54" y1="4.044" x2="24.436" y2="44.032">
      <stop offset="0" stop-color="#3B6FA8"/>
      <stop offset="1" stop-color="#284C74" stop-opacity="0.959"/>
    </linearGradient>
    <clipPath id="Clip_1">
      <path d="M44,10.25 C44,6.798 41.202,4 37.75,4 L10.25,4 C6.798,4 4,6.798 4,10.25 L4,37.75 C4,41.202 6.798,44 10.25,44 L37.75,44 C41.202,44 44,41.202 44,37.75 L44,10.25 z"/>
    </clipPath>
  </defs>
  <g id="Ebene_1">
    <g>
      <path d="M44,10.25 C44,6.798 41.202,4 37.75,4 L10.25,4 C6.798,4 4,6.798 4,10.25 L4,37.75 C4,41.202 6.798,44 10.25,44 L37.75,44 C41.202,44 44,41.202 44,37.75 L44,10.25 z" fill="url(#Gradient_1)" id="SVGID_40_"/>
      <path d="M37.75,4 C41.202,4 44,6.798 44,10.25 L44,37.75 C44,41.202 41.202,44 37.75,44 L10.25,44 C6.798,44 4,41.202 4,37.75 L4,10.25 C4,6.798 6.798,4 10.25,4 L37.75,4 z" fill="url(#Gradient_2)"/>
      <g clip-path="url(#Clip_1)" opacity="0.5">
        <path d="M43.988,10.288 C43.988,6.836 41.19,4.038 37.738,4.038 L10.238,4.038 C6.786,4.038 3.988,6.836 3.988,10.288 L3.988,37.788 C3.988,41.24 6.786,44.038 10.238,44.038 L37.738,44.038 C41.19,44.038 43.988,41.24 43.988,37.788 L43.988,10.288 z" fill="url(#Gradient_3)"/>
      </g>
    </g>
    <path d="M31.044,21.12 C30.944,21.196 30.882,21.286 30.856,21.398 C30.832,21.51 30.806,21.616 30.784,21.716 C30.758,21.816 30.708,21.896 30.634,21.956 C30.56,22.02 30.424,22.014 30.226,21.938 C30.276,22.014 30.324,22.126 30.374,22.276 C30.374,22.448 30.366,22.622 30.356,22.796 C30.342,22.97 30.362,23.132 30.412,23.282 C30.56,23.778 30.726,24.276 30.914,24.774 C31.098,25.272 31.266,25.768 31.416,26.266 C31.538,26.688 31.688,27.092 31.862,27.476 C32.036,27.864 32.22,28.242 32.42,28.616 C32.568,28.864 32.706,29.112 32.828,29.362 C32.954,29.61 33.076,29.872 33.2,30.146 C33.25,30.194 33.276,30.244 33.276,30.294 C33.15,30.518 33.146,30.698 33.256,30.836 C33.368,30.972 33.474,31.102 33.574,31.226 C33.77,31.5 33.964,31.756 34.148,31.99 C34.336,32.226 34.504,32.482 34.652,32.756 C34.7,32.83 34.726,32.93 34.726,33.054 C34.726,33.178 34.726,33.302 34.726,33.426 C34.726,33.476 34.72,33.534 34.706,33.596 C34.696,33.656 34.714,33.714 34.764,33.762 C35.136,34.136 35.496,34.516 35.842,34.9 C36.188,35.286 36.66,35.54 37.256,35.666 C37.056,35.986 36.784,36.098 36.436,36 C36.09,35.9 35.73,35.82 35.358,35.758 C34.986,35.696 34.626,35.602 34.28,35.478 C33.956,35.354 33.646,35.206 33.35,35.032 C33.052,34.856 32.766,34.646 32.494,34.398 C31.254,33.28 30.176,31.964 29.258,30.45 C28.812,29.78 28.396,29.09 28.012,28.382 C27.626,27.676 27.224,26.974 26.804,26.276 C26.754,26.228 26.686,26.172 26.598,26.11 C26.51,26.048 26.444,26.03 26.394,26.054 C26.22,26.154 26.052,26.258 25.892,26.37 C25.73,26.482 25.562,26.6 25.388,26.726 C25.636,26.874 25.698,27.006 25.576,27.116 C25.45,27.228 25.326,27.346 25.204,27.47 C25.006,27.668 24.814,27.842 24.626,27.992 C24.44,28.14 24.248,28.314 24.05,28.514 C23.926,28.612 23.82,28.718 23.734,28.83 C23.646,28.942 23.542,29.058 23.418,29.184 L23.456,29.22 C23.456,29.246 23.466,29.27 23.492,29.296 C23.368,29.468 23.25,29.624 23.138,29.76 C23.026,29.896 22.908,30.026 22.786,30.152 C22.512,30.476 22.284,30.816 22.096,31.176 C21.912,31.536 21.62,31.816 21.224,32.014 C21.124,32.064 21.048,32.138 21,32.238 C20.95,32.336 20.888,32.448 20.814,32.572 C20.74,32.696 20.658,32.808 20.572,32.908 C20.486,33.006 20.342,33.056 20.144,33.056 C20.07,33.032 19.97,33.082 19.846,33.206 C19.574,33.554 19.3,33.896 19.028,34.23 C18.756,34.566 18.594,34.982 18.546,35.478 C18.52,35.702 18.458,35.926 18.358,36.148 C18.26,36.372 18.186,36.596 18.136,36.818 C18.112,36.916 18.106,37.016 18.116,37.116 C18.13,37.214 18.136,37.35 18.136,37.526 C18.062,37.5 17.962,37.494 17.838,37.506 C17.714,37.518 17.616,37.5 17.54,37.45 C17.194,37.226 16.916,36.96 16.704,36.65 C16.494,36.34 16.376,35.976 16.35,35.552 C16.3,34.608 16.426,33.716 16.722,32.87 C17.02,32.026 17.38,31.206 17.8,30.412 C18,30.04 18.192,29.674 18.376,29.314 C18.564,28.954 18.78,28.612 19.028,28.288 C19.796,27.27 20.566,26.272 21.336,25.29 C22.104,24.31 22.884,23.324 23.678,22.328 C23.826,22.13 23.982,21.95 24.144,21.788 C24.304,21.626 24.458,21.46 24.608,21.286 C24.806,21.112 24.856,20.888 24.756,20.616 C24.656,20.392 24.57,20.162 24.496,19.926 C24.422,19.69 24.348,19.448 24.274,19.2 C24.148,18.778 24.018,18.344 23.884,17.896 C23.746,17.45 23.616,17.002 23.492,16.556 C23.268,15.76 23.046,14.972 22.822,14.19 C22.598,13.408 22.364,12.62 22.116,11.826 C22.066,11.676 22.046,11.558 22.06,11.472 C22.072,11.386 22.166,11.292 22.338,11.192 C22.536,11.094 22.724,11.006 22.896,10.932 C23.07,10.856 23.282,10.844 23.528,10.894 C23.702,10.918 23.876,10.888 24.05,10.8 C24.224,10.714 24.408,10.646 24.608,10.596 C24.682,10.572 24.756,10.546 24.832,10.522 C24.906,10.496 24.966,10.508 25.016,10.558 C25.29,10.756 25.582,10.836 25.892,10.8 C26.202,10.764 26.492,10.796 26.766,10.894 C26.988,10.944 27.23,11.124 27.492,11.434 C27.752,11.744 27.894,12.012 27.918,12.236 C27.968,12.806 28.016,13.372 28.066,13.93 C28.116,14.488 28.166,15.054 28.216,15.626 C28.24,15.824 28.278,16.022 28.328,16.22 C28.376,16.418 28.426,16.644 28.476,16.892 C28.526,16.842 28.582,16.81 28.644,16.796 C28.706,16.786 28.762,16.756 28.812,16.706 L31.044,14.582 C31.564,14.11 32.086,13.638 32.606,13.166 C33.126,12.694 33.646,12.224 34.168,11.75 C34.714,11.328 35.252,10.906 35.786,10.486 C36.318,10.062 36.858,9.64 37.404,9.218 C37.676,9.018 37.956,8.834 38.242,8.66 C38.526,8.486 38.856,8.436 39.226,8.51 C39.326,8.536 39.414,8.556 39.486,8.57 C39.562,8.586 39.636,8.632 39.71,8.712 C39.636,8.766 39.556,8.812 39.468,8.852 C39.382,8.894 39.288,8.94 39.19,8.994 L39.19,9.106 C39.288,9.106 39.376,9.112 39.45,9.124 C39.526,9.136 39.612,9.142 39.71,9.142 C39.908,9.142 40.12,9.148 40.344,9.16 C40.566,9.174 40.752,9.278 40.9,9.476 C40.95,9.526 40.982,9.588 40.994,9.664 C41.006,9.736 41.036,9.8 41.086,9.848 C41.112,9.898 41.124,9.942 41.124,9.978 C41.124,10.016 41.136,10.048 41.162,10.072 C41.31,10.196 41.458,10.326 41.608,10.464 C41.756,10.6 41.916,10.716 42.092,10.816 C42.414,10.966 42.476,11.176 42.276,11.448 C42.326,11.548 42.376,11.636 42.426,11.708 C42.476,11.784 42.526,11.858 42.576,11.932 C42.698,12.206 42.748,12.404 42.724,12.526 C42.698,12.652 42.562,12.814 42.316,13.01 C42.042,13.21 41.776,13.42 41.516,13.644 C41.254,13.866 40.986,14.09 40.716,14.314 C40.666,14.364 40.566,14.436 40.416,14.536 C40.144,14.66 39.884,14.766 39.636,14.852 C39.388,14.94 39.126,15.046 38.856,15.168 C38.656,15.294 38.47,15.416 38.296,15.54 C38.124,15.666 37.936,15.788 37.738,15.912 C37.54,16.036 37.348,16.148 37.162,16.246 C36.976,16.346 36.796,16.458 36.624,16.582 C36.35,16.806 36.09,17.042 35.842,17.288 C35.594,17.536 35.334,17.772 35.06,17.996 C34.962,18.096 34.856,18.176 34.746,18.236 C34.634,18.298 34.526,18.366 34.428,18.442 C34.056,18.766 33.69,19.074 33.33,19.372 C32.972,19.67 32.606,19.98 32.234,20.302 C31.762,20.698 31.254,20.896 30.708,20.896 C30.658,20.872 30.622,20.878 30.596,20.916 C30.572,20.954 30.536,20.984 30.486,21.008 C30.486,21.034 30.492,21.052 30.504,21.066 C30.516,21.076 30.522,21.096 30.522,21.12 L31.044,21.12 z" fill="#F8AE18"/>
  </g>
</svg>
