<?xml version="1.0" encoding="UTF-8"?>
<svg xmlns="http://www.w3.org/2000/svg" width="48pt"
     height="48pt" viewBox="0 0 48 48" version="1.1">
    <g id="surface1">
        <path style=" stroke:none;fill-rule:nonzero;fill:rgb(0%,0%,0%);fill-opacity:1;"
              d="M 24 34 C 26.210938 34 28 32.210938 28 30 C 28 27.78125 26.203125 26 24 26 C 21.789062 26 20 27.789062 20 30 C 20 32.210938 21.789062 34 24 34 M 36 16 C 38.210938 16 40 17.789062 40 20 L 40 40 C 40 42.210938 38.210938 44 36 44 L 12 44 C 9.789062 44 8 42.210938 8 40 L 8 20 C 8 17.78125 9.796875 16 12 16 L 14 16 L 14 12 C 14 6.476562 18.476562 2 24 2 C 29.523438 2 34 6.476562 34 12 L 34 16 L 36 16 M 24 6 C 20.6875 6 18 8.6875 18 12 L 18 16 L 30 16 L 30 12 C 30 8.6875 27.3125 6 24 6 Z M 24 6 "/>
    </g>
</svg>
