<?xml version="1.0" encoding="UTF-8"?>
<svg xmlns="http://www.w3.org/2000/svg" width="48pt"
     height="48pt" viewBox="0 0 48 48" version="1.1">
    <g id="surface1">
        <path style=" stroke:none;fill-rule:nonzero;fill:rgb(0%,0%,0%);fill-opacity:1;"
              d="M 35.890625 14.75 C 34.460938 14.179688 34.046875 13.828125 34.046875 13.203125 C 34.046875 12.695312 34.421875 12.109375 35.492188 12.109375 C 36.445312 12.109375 37.171875 12.484375 37.179688 12.492188 C 37.257812 12.53125 37.34375 12.554688 37.421875 12.554688 C 37.632812 12.554688 37.820312 12.429688 37.890625 12.234375 L 38.15625 11.5625 C 38.242188 11.320312 38.109375 11.109375 37.929688 11.039062 C 37.34375 10.78125 36.203125 10.585938 36.195312 10.585938 C 36.171875 10.578125 36.109375 10.5625 36.109375 10.492188 L 36.109375 9.523438 C 36.109375 9.234375 35.867188 9 35.570312 9 L 35.101562 9 C 34.804688 9 34.5625 9.234375 34.5625 9.523438 L 34.5625 10.539062 C 34.5625 10.617188 34.476562 10.65625 34.445312 10.65625 C 33.007812 11 32.101562 12.054688 32.101562 13.390625 C 32.101562 15.046875 33.476562 15.796875 34.953125 16.359375 C 36.140625 16.828125 36.625 17.296875 36.625 17.992188 C 36.625 18.742188 35.9375 19.265625 34.960938 19.265625 C 34.125 19.265625 32.992188 18.734375 32.976562 18.734375 C 32.90625 18.695312 32.828125 18.679688 32.75 18.679688 C 32.53125 18.679688 32.34375 18.8125 32.273438 19.007812 L 32.023438 19.6875 C 31.9375 19.9375 32.070312 20.140625 32.242188 20.234375 C 32.9375 20.59375 34.289062 20.804688 34.34375 20.8125 C 34.359375 20.820312 34.445312 20.84375 34.445312 20.921875 L 34.445312 21.929688 C 34.445312 22.226562 34.6875 22.460938 34.984375 22.460938 L 35.46875 22.460938 C 35.765625 22.460938 36.007812 22.226562 36.007812 21.929688 L 36.007812 20.867188 C 36.007812 20.765625 36.085938 20.757812 36.101562 20.757812 C 37.632812 20.414062 38.578125 19.289062 38.578125 17.875 C 38.578125 16.429688 37.773438 15.492188 35.890625 14.75 Z M 35.890625 14.75 "/>
        <path style=" stroke:none;fill-rule:nonzero;fill:rgb(0%,0%,0%);fill-opacity:1;"
              d="M 35.289062 3.046875 C 28.28125 3.046875 22.601562 8.726562 22.601562 15.726562 C 22.601562 22.734375 28.28125 28.414062 35.289062 28.414062 C 42.296875 28.414062 47.96875 22.734375 47.96875 15.726562 C 47.96875 8.726562 42.296875 3.046875 35.289062 3.046875 Z M 35.289062 25.476562 C 29.90625 25.476562 25.539062 21.109375 25.539062 15.726562 C 25.539062 10.34375 29.90625 5.984375 35.289062 5.984375 C 40.671875 5.984375 45.03125 10.34375 45.03125 15.726562 C 45.03125 21.109375 40.671875 25.476562 35.289062 25.476562 Z M 35.289062 25.476562 "/>
        <path style=" stroke:none;fill-rule:nonzero;fill:rgb(0%,0%,0%);fill-opacity:1;"
              d="M 45.398438 34.5625 C 42.695312 36.046875 38.984375 37.429688 35.289062 38.007812 C 31.992188 38.523438 25.804688 37.28125 25.804688 35.804688 C 25.804688 35.25 31.234375 37.179688 34.523438 36.304688 C 37.039062 35.632812 36.679688 33.273438 35.3125 32.960938 C 33.945312 32.65625 25.96875 29.734375 22.554688 29.632812 C 20.953125 29.585938 16.984375 30.1875 15.070312 30.5 C 14.414062 30.609375 14 30.59375 13.960938 31.226562 C 13.765625 34.148438 13.390625 40.125 13.1875 43.25 C 13.179688 43.3125 13.273438 44.203125 14.007812 43.578125 C 14.804688 42.898438 15.929688 42.140625 16.96875 42.375 C 18.601562 42.742188 32.710938 45.328125 34.65625 44.875 C 37.445312 44.226562 45.320312 39.554688 46.835938 38.109375 C 49.179688 35.851562 47.359375 33.476562 45.398438 34.5625 Z M 45.398438 34.5625 "/>
        <path style=" stroke:none;fill-rule:nonzero;fill:rgb(0%,0%,0%);fill-opacity:1;"
              d="M 10.0625 30.390625 L 2.671875 30.023438 C 2.101562 29.992188 1.515625 30.421875 1.375 30.976562 L 0.03125 43.179688 C -0.109375 43.734375 0.242188 44.203125 0.8125 44.226562 L 9.007812 44.226562 C 9.578125 44.25 10.078125 43.804688 10.125 43.234375 L 11.023438 31.476562 C 11.0625 30.90625 10.632812 30.414062 10.0625 30.390625 Z M 5.710938 42.609375 C 4.585938 42.609375 3.664062 41.695312 3.664062 40.570312 C 3.664062 39.4375 4.585938 38.523438 5.710938 38.523438 C 6.84375 38.523438 7.757812 39.4375 7.757812 40.570312 C 7.757812 41.695312 6.84375 42.609375 5.710938 42.609375 Z M 5.710938 42.609375 "/>
    </g>
</svg>
