<?xml version="1.0" encoding="UTF-8"?>
<svg xmlns="http://www.w3.org/2000/svg" xmlns:xlink="http://www.w3.org/1999/xlink" width="48pt" height="48pt" viewBox="0 0 48 48" version="1.1">
<g id="surface1">
<path style=" stroke:none;fill-rule:nonzero;fill:rgb(0%,0%,0%);fill-opacity:1;" d="M 3.296875 44.984375 L 7.375 44.710938 C 8.242188 44.65625 8.945312 44.125 9.242188 43.40625 L 27.164062 44.171875 C 29.15625 44.390625 31.023438 44.148438 32.78125 43.226562 L 33.289062 42.960938 L 46.835938 35.039062 C 47.5 34.648438 47.96875 33.976562 48 33.234375 C 48.03125 32.320312 47.5 31.3125 46.210938 31.226562 C 45.289062 31.15625 43.390625 32.1875 42.875 32.453125 C 41.023438 33.382812 38.453125 34.835938 36.765625 36 C 36.648438 36.078125 36.492188 36.1875 36.375 36.265625 C 35.609375 36.75 34.804688 37.078125 33.914062 37.273438 C 29.007812 38.320312 21.859375 38.421875 21.859375 38.421875 L 21.4375 38.445312 C 21.125 38.460938 20.84375 38.242188 20.804688 37.9375 C 20.757812 37.601562 21 37.289062 21.351562 37.257812 L 31.984375 36.257812 C 33.15625 36.125 34.085938 35.03125 33.953125 33.796875 C 33.828125 32.570312 32.695312 31.671875 31.523438 31.796875 L 22.0625 31.679688 C 21.421875 31.671875 20.390625 31.507812 19.78125 31.328125 C 13.6875 29.546875 10.242188 31.210938 8.414062 31.992188 C 8.007812 31.3125 7.234375 30.875 6.375 30.9375 L 2.296875 31.210938 C 0.9375 31.296875 -0.0859375 32.429688 0.0078125 33.742188 L 0.664062 42.796875 C 0.765625 44.09375 1.953125 45.085938 3.296875 44.984375 Z M 4.796875 40.164062 C 5.5625 40.164062 6.1875 40.765625 6.1875 41.507812 C 6.1875 42.25 5.5625 42.84375 4.796875 42.84375 C 4.03125 42.84375 3.40625 42.25 3.40625 41.507812 C 3.40625 40.773438 4.023438 40.164062 4.796875 40.164062 Z M 35.960938 32.609375 C 37.390625 31.828125 40.1875 30.476562 41.710938 29.875 C 42.476562 29.578125 43.226562 29.59375 43.921875 30.0625 C 43.375 30.257812 42.867188 30.507812 42.382812 30.742188 C 40.78125 31.539062 37.953125 33.078125 36.578125 34.046875 C 36.4375 34.140625 36.296875 34.242188 36.15625 34.335938 C 36.179688 34.09375 36.179688 33.835938 36.148438 33.585938 C 36.117188 33.265625 36.039062 32.960938 35.945312 32.664062 C 35.945312 32.648438 35.953125 32.625 35.960938 32.609375 Z M 40.234375 28.96875 C 39.132812 29.460938 37.007812 30.203125 36 30.757812 L 35.3125 31.132812 C 35.25 31.171875 35.1875 31.210938 35.132812 31.257812 C 34.828125 30.898438 34.46875 30.59375 34.0625 30.351562 C 35 29.851562 37.09375 29.171875 38.046875 28.804688 C 38.804688 28.5 39.539062 28.515625 40.234375 28.96875 Z M 11.25 22.789062 C 11.25 22.21875 11.710938 21.765625 12.28125 21.765625 L 37.867188 21.765625 C 38.4375 21.765625 38.898438 22.21875 38.898438 22.789062 C 38.898438 23.359375 38.4375 23.8125 37.867188 23.8125 L 12.265625 23.8125 C 11.710938 23.8125 11.25 23.359375 11.25 22.789062 Z M 11.25 26.507812 C 11.25 25.9375 11.710938 25.476562 12.28125 25.476562 L 37.867188 25.476562 C 38.4375 25.476562 38.898438 25.9375 38.898438 26.507812 C 38.898438 27.070312 38.4375 27.53125 37.867188 27.53125 L 12.265625 27.53125 C 11.710938 27.53125 11.25 27.070312 11.25 26.507812 Z M 31.257812 11.570312 C 31.257812 10.773438 31.914062 10.117188 32.710938 10.117188 C 33.515625 10.117188 34.171875 10.773438 34.171875 11.570312 C 34.171875 12.375 33.515625 13.03125 32.710938 13.03125 C 31.90625 13.03125 31.257812 12.375 31.257812 11.570312 Z M 15.976562 11.570312 C 15.976562 10.773438 16.632812 10.117188 17.429688 10.117188 C 18.234375 10.117188 18.890625 10.773438 18.890625 11.570312 C 18.890625 12.375 18.234375 13.03125 17.429688 13.03125 C 16.617188 13.03125 15.976562 12.375 15.976562 11.570312 Z M 13.625 20.140625 L 36.507812 20.140625 C 37.828125 20.140625 38.90625 19.0625 38.90625 17.742188 L 38.90625 5.40625 C 38.90625 4.085938 37.828125 3.007812 36.507812 3.007812 L 13.625 3.007812 C 12.304688 3.007812 11.234375 4.085938 11.234375 5.40625 L 11.234375 17.742188 C 11.234375 19.0625 12.304688 20.140625 13.625 20.140625 Z M 13.273438 7.882812 C 13.414062 7.914062 13.554688 7.921875 13.703125 7.921875 C 15.046875 7.921875 16.132812 6.84375 16.132812 5.5 C 16.132812 5.34375 16.109375 5.195312 16.09375 5.046875 L 33.90625 5.046875 C 33.859375 5.234375 33.828125 5.445312 33.828125 5.648438 C 33.828125 6.984375 34.914062 8.070312 36.257812 8.070312 C 36.460938 8.070312 36.664062 8.039062 36.851562 7.992188 L 36.851562 15.4375 C 36.65625 15.382812 36.460938 15.359375 36.257812 15.359375 C 34.914062 15.359375 33.828125 16.445312 33.828125 17.78125 C 33.828125 17.882812 33.835938 17.984375 33.851562 18.085938 L 16.09375 18.085938 C 16.117188 17.9375 16.132812 17.789062 16.132812 17.632812 C 16.132812 16.296875 15.046875 15.210938 13.703125 15.210938 C 13.554688 15.210938 13.421875 15.21875 13.273438 15.25 Z M 25.070312 16.820312 C 27.960938 16.820312 30.296875 14.476562 30.296875 11.570312 C 30.296875 8.671875 27.953125 6.320312 25.070312 6.320312 C 22.171875 6.320312 19.835938 8.671875 19.835938 11.570312 C 19.835938 14.476562 22.171875 16.820312 25.070312 16.820312 Z M 22 11.859375 C 22 11.757812 22.078125 11.671875 22.179688 11.671875 L 22.679688 11.671875 C 22.679688 11.5625 22.679688 11.453125 22.679688 11.335938 L 22.179688 11.335938 C 22.085938 11.335938 22 11.257812 22 11.15625 L 22 10.742188 C 22 10.640625 22.078125 10.554688 22.179688 10.554688 L 22.820312 10.554688 L 22.835938 10.5 C 23.007812 9.953125 23.296875 9.492188 23.757812 9.140625 C 24.117188 8.867188 24.53125 8.710938 24.96875 8.640625 C 25.609375 8.539062 26.210938 8.632812 26.804688 8.851562 C 26.84375 8.875 26.890625 8.882812 26.914062 8.90625 C 27.0625 8.992188 27.09375 9.101562 27.03125 9.242188 C 26.96875 9.398438 26.898438 9.570312 26.828125 9.726562 C 26.765625 9.859375 26.679688 9.898438 26.53125 9.875 C 26.335938 9.820312 26.132812 9.765625 25.9375 9.726562 C 25.515625 9.640625 25.09375 9.640625 24.6875 9.796875 C 24.335938 9.929688 24.117188 10.203125 23.976562 10.539062 L 23.976562 10.546875 L 25.1875 10.546875 C 25.28125 10.546875 25.367188 10.625 25.367188 10.734375 L 25.367188 11.140625 C 25.367188 11.242188 25.289062 11.328125 25.1875 11.328125 L 23.773438 11.328125 C 23.773438 11.4375 23.773438 11.546875 23.773438 11.664062 L 25.1875 11.664062 C 25.28125 11.664062 25.367188 11.742188 25.367188 11.84375 L 25.367188 12.257812 C 25.367188 12.351562 25.289062 12.445312 25.1875 12.445312 L 23.90625 12.445312 C 24.0625 12.882812 24.3125 13.234375 24.78125 13.382812 C 25.164062 13.5 25.546875 13.492188 25.929688 13.414062 C 26.125 13.375 26.320312 13.3125 26.515625 13.265625 C 26.671875 13.226562 26.75 13.273438 26.820312 13.414062 C 26.890625 13.570312 26.953125 13.734375 27.023438 13.898438 C 27.085938 14.046875 27.046875 14.164062 26.898438 14.234375 C 26.742188 14.304688 26.570312 14.359375 26.40625 14.40625 C 25.773438 14.585938 25.125 14.59375 24.5 14.390625 C 23.734375 14.132812 23.226562 13.617188 22.914062 12.882812 C 22.859375 12.734375 22.820312 12.59375 22.78125 12.445312 L 22.179688 12.445312 C 22.085938 12.445312 22 12.367188 22 12.257812 Z M 22 11.859375 "/>
</g>
</svg>
