<?xml version="1.0" encoding="UTF-8"?>
<svg xmlns="http://www.w3.org/2000/svg" width="48pt"
     height="48pt" viewBox="0 0 48 48" version="1.1">
    <g id="surface1">
        <path style=" stroke:none;fill-rule:nonzero;fill:rgb(0%,0%,0%);fill-opacity:1;"
              d="M 19.5625 9.484375 C 18.5625 9.484375 17.757812 8.671875 17.757812 7.6875 C 17.757812 6.695312 18.570312 5.882812 19.5625 5.882812 C 20.5625 5.882812 21.367188 6.695312 21.367188 7.6875 C 21.367188 8.671875 20.5625 9.484375 19.5625 9.484375 Z M 19.5625 10.640625 C 23.164062 10.640625 26.09375 13.570312 26.09375 17.171875 C 26.09375 19.15625 25.203125 20.929688 23.804688 22.132812 C 23.164062 21.820312 22.453125 21.648438 21.65625 21.648438 C 21.492188 21.648438 21.3125 21.65625 21.179688 21.664062 C 20.796875 21.695312 19.484375 21.90625 18.515625 23.320312 C 18.453125 23.40625 18.398438 23.492188 18.351562 23.585938 C 15.320312 23.015625 13.03125 20.359375 13.03125 17.171875 C 13.03125 13.570312 15.953125 10.640625 19.5625 10.640625 Z M 17.320312 18.59375 C 17.351562 19.148438 17.523438 19.585938 17.867188 19.890625 C 18.234375 20.226562 18.6875 20.421875 19.226562 20.484375 L 19.226562 21.203125 C 19.226562 21.304688 19.304688 21.382812 19.40625 21.382812 L 20.054688 21.382812 C 20.148438 21.382812 20.226562 21.304688 20.226562 21.203125 L 20.226562 20.460938 C 20.671875 20.382812 21.023438 20.203125 21.296875 19.945312 C 21.617188 19.625 21.78125 19.21875 21.78125 18.695312 C 21.78125 18.164062 21.625 17.742188 21.304688 17.453125 C 20.984375 17.164062 20.484375 16.875 19.796875 16.585938 C 19.5 16.453125 19.296875 16.328125 19.1875 16.203125 C 19.085938 16.078125 19.023438 15.90625 19.023438 15.703125 C 19.023438 15.5 19.070312 15.34375 19.171875 15.203125 C 19.265625 15.078125 19.421875 15.007812 19.640625 15.007812 C 19.84375 15.007812 20.015625 15.085938 20.140625 15.242188 C 20.234375 15.367188 20.296875 15.546875 20.3125 15.78125 C 20.328125 15.890625 20.421875 15.96875 20.523438 15.960938 L 21.578125 15.9375 C 21.695312 15.9375 21.796875 15.84375 21.78125 15.71875 C 21.757812 15.265625 21.609375 14.867188 21.335938 14.554688 C 21.046875 14.234375 20.679688 14.015625 20.21875 13.929688 L 20.21875 13.140625 C 20.21875 13.039062 20.140625 12.960938 20.039062 12.960938 L 19.398438 12.960938 C 19.296875 12.960938 19.21875 13.039062 19.21875 13.140625 L 19.21875 13.914062 C 18.726562 13.976562 18.328125 14.164062 18.023438 14.460938 C 17.695312 14.78125 17.515625 15.195312 17.515625 15.695312 C 17.515625 16.242188 17.671875 16.664062 17.992188 16.945312 C 18.3125 17.226562 18.820312 17.515625 19.515625 17.789062 C 19.796875 17.914062 20 18.039062 20.109375 18.171875 C 20.21875 18.296875 20.273438 18.484375 20.273438 18.710938 C 20.273438 18.914062 20.21875 19.070312 20.109375 19.195312 C 20 19.328125 19.835938 19.382812 19.632812 19.382812 C 19.375 19.382812 19.171875 19.304688 19.015625 19.140625 C 18.890625 19.015625 18.804688 18.804688 18.78125 18.53125 C 18.765625 18.421875 18.671875 18.34375 18.570312 18.34375 L 17.515625 18.367188 C 17.40625 18.375 17.320312 18.476562 17.320312 18.59375 Z M 37.859375 26.726562 C 37.320312 26.304688 31.695312 20.0625 30.1875 19.179688 L 30.1875 2.976562 C 30.1875 1.328125 28.851562 0 27.210938 0 L 11.914062 0 C 10.273438 0 8.9375 1.328125 8.9375 2.976562 L 8.9375 31.335938 C 8.9375 32.984375 10.273438 34.3125 11.914062 34.3125 L 18.570312 34.3125 L 18.296875 31.984375 C 18.210938 31.90625 18.15625 31.859375 18.0625 31.78125 L 15.125 31.78125 C 15.21875 31.414062 15.242188 31.03125 15.195312 30.640625 C 15.039062 29.40625 14.101562 28.382812 12.898438 28.109375 C 12.398438 27.992188 11.929688 28.007812 11.484375 28.117188 L 11.484375 6.023438 C 11.984375 6.117188 12.53125 6.085938 13.09375 5.875 C 13.6875 5.648438 14.1875 5.21875 14.539062 4.6875 C 15.039062 3.921875 15.117188 3.195312 15 2.523438 L 24.132812 2.523438 C 24.015625 3.179688 24.09375 3.898438 24.578125 4.65625 C 24.914062 5.210938 25.429688 5.640625 26.023438 5.867188 C 26.59375 6.078125 27.140625 6.109375 27.648438 6.007812 L 27.648438 33.742188 C 26.609375 32.984375 25.445312 30.59375 25.445312 30.59375 C 25.445312 30.59375 24.875 24.226562 21.65625 24.226562 C 21.570312 24.226562 21.492188 24.226562 21.40625 24.242188 C 21.40625 24.242188 18.96875 24.445312 20.984375 31.421875 L 21.882812 39.171875 C 21.882812 39.171875 22.890625 43.382812 25.671875 46.289062 L 25.671875 47.15625 C 25.671875 47.617188 26.046875 48 26.515625 48 L 35.578125 48 C 36.007812 48 36.359375 47.679688 36.414062 47.257812 C 36.734375 44.273438 37.96875 33.265625 38.703125 31.375 C 38.835938 31.015625 38.96875 30.648438 39.015625 30.273438 C 39.132812 29.289062 39.101562 27.6875 37.859375 26.726562 Z M 37.859375 26.726562 "/>
    </g>
</svg>
