<?xml version="1.0" encoding="UTF-8"?>
<svg xmlns="http://www.w3.org/2000/svg" width="48pt"
     height="48pt" viewBox="0 0 48 48" version="1.1">
    <g id="surface1">
        <path style=" stroke:none;fill-rule:nonzero;fill:rgb(0%,0%,0%);fill-opacity:1;"
              d="M 38.703125 31.375 C 37.960938 33.265625 36.734375 44.28125 36.414062 47.257812 C 36.367188 47.679688 36.007812 48 35.578125 48 L 26.515625 48 C 26.054688 48 25.671875 47.625 25.671875 47.15625 L 25.671875 46.289062 C 22.890625 43.382812 21.882812 39.171875 21.882812 39.171875 L 20.984375 31.421875 C 18.960938 24.445312 21.40625 24.242188 21.40625 24.242188 C 21.492188 24.226562 21.578125 24.226562 21.65625 24.226562 C 24.882812 24.226562 25.445312 30.59375 25.445312 30.59375 C 25.445312 30.59375 26.601562 32.984375 27.648438 33.742188 L 27.648438 6.023438 C 27.140625 6.117188 26.601562 6.085938 26.023438 5.875 C 25.429688 5.648438 24.90625 5.210938 24.570312 4.671875 C 24.085938 3.90625 24.007812 3.195312 24.125 2.539062 L 14.992188 2.539062 C 15.109375 3.203125 15.03125 3.921875 14.53125 4.695312 C 14.1875 5.226562 13.679688 5.65625 13.085938 5.882812 C 12.515625 6.101562 11.976562 6.117188 11.476562 6.03125 L 11.476562 28.117188 C 11.921875 28.007812 12.398438 27.992188 12.890625 28.109375 C 14.09375 28.382812 15.03125 29.421875 15.195312 30.640625 C 15.25 31.046875 15.21875 31.421875 15.132812 31.78125 L 18.242188 31.78125 C 18.25 31.789062 18.265625 31.796875 18.28125 31.804688 L 18.578125 34.3125 L 11.921875 34.3125 C 10.273438 34.3125 8.945312 32.984375 8.945312 31.335938 L 8.945312 2.976562 C 8.945312 1.328125 10.273438 0 11.921875 0 L 27.210938 0 C 28.851562 0 30.1875 1.328125 30.1875 2.976562 L 30.1875 19.179688 C 31.695312 20.0625 37.320312 26.304688 37.859375 26.726562 C 39.101562 27.6875 39.132812 29.289062 39.007812 30.28125 C 38.960938 30.648438 38.84375 31.023438 38.703125 31.375 Z M 21.367188 7.671875 C 21.367188 6.679688 20.554688 5.875 19.5625 5.875 C 18.5625 5.875 17.765625 6.6875 17.765625 7.671875 C 17.765625 8.664062 18.578125 9.476562 19.5625 9.476562 C 20.5625 9.484375 21.367188 8.671875 21.367188 7.671875 Z M 19.5625 10.640625 C 23.15625 10.640625 26.078125 13.5625 26.078125 17.148438 C 26.078125 19.140625 25.171875 20.921875 23.773438 22.117188 C 23.148438 21.8125 22.445312 21.632812 21.65625 21.632812 C 21.492188 21.632812 21.328125 21.648438 21.179688 21.65625 C 20.796875 21.6875 19.484375 21.898438 18.515625 23.3125 C 18.46875 23.390625 18.421875 23.46875 18.367188 23.546875 C 15.34375 22.984375 13.054688 20.335938 13.054688 17.148438 C 13.054688 13.5625 15.96875 10.640625 19.5625 10.640625 Z M 16.234375 17.375 L 17.453125 18.601562 L 18.710938 19.875 L 19.984375 18.609375 L 22.890625 15.710938 L 21.632812 14.4375 L 18.71875 17.335938 L 17.507812 16.117188 Z M 16.234375 17.375 "/>
    </g>
</svg>
