<svg xmlns="http://www.w3.org/2000/svg"
     viewBox="0 0 24 24" version="1.1" width="48" height="48">
    <g id="surface1">
        <path style=" "
              d="M 5.75 3.3125 C 5.351563 3.289063 4.945313 3.351563 4.59375 3.5 L 2.90625 4.09375 L 2.90625 4.125 C 2.367188 4.351563 2 4.878906 2 5.5 C 2 6.328125 2.671875 7 3.5 7 C 4.328125 7 5 6.328125 5 5.5 C 5 5.488281 5 5.480469 5 5.46875 L 5.1875 5.40625 C 5.488281 5.304688 5.699219 5.304688 6 5.40625 C 6.300781 5.605469 6.492188 5.800781 6.59375 6 L 11.40625 20.3125 L 21.6875 16.8125 L 21.09375 14.90625 L 12.6875 17.8125 L 8.40625 5.40625 C 8.207031 4.605469 7.605469 3.992188 6.90625 3.59375 C 6.554688 3.445313 6.148438 3.335938 5.75 3.3125 Z M 9 18 C 7.894531 18 7 18.894531 7 20 C 7 21.105469 7.894531 22 9 22 C 10.105469 22 11 21.105469 11 20 C 11 18.894531 10.105469 18 9 18 Z "/>
    </g>
</svg>