<?xml version="1.0" encoding="UTF-8"?>
<svg xmlns="http://www.w3.org/2000/svg" xmlns:xlink="http://www.w3.org/1999/xlink" width="48pt" height="48pt" viewBox="0 0 48 48" version="1.1">
<g id="surface1">
<path style=" stroke:none;fill-rule:nonzero;fill:rgb(0%,0%,0%);fill-opacity:1;" d="M 4 21.921875 C 3 21.359375 2.699219 20.140625 3.261719 19.179688 L 6.261719 14 C 6.480469 13.601562 6.820312 13.320312 7.199219 13.160156 L 22.859375 4.359375 C 23.179688 4.121094 23.578125 4 24 4 C 24.421875 4 24.820312 4.121094 25.140625 4.359375 L 40.941406 13.238281 C 41.320312 13.441406 41.640625 13.761719 41.820312 14.160156 L 44.71875 19.199219 C 45.28125 20.160156 44.941406 21.378906 44 21.921875 L 42 23.078125 L 42 33 C 42 33.761719 41.578125 34.421875 40.941406 34.761719 L 25.140625 43.640625 C 24.820312 43.878906 24.421875 44 24 44 C 23.578125 44 23.179688 43.878906 22.859375 43.640625 L 7.058594 34.761719 C 6.421875 34.421875 6 33.761719 6 33 L 6 21.921875 C 5.398438 22.261719 4.640625 22.28125 4 21.921875 M 24 8.300781 L 24 21.699219 L 35.921875 15 L 24 8.300781 M 10 31.820312 L 22 38.578125 L 22 25.160156 L 10 18.421875 L 10 31.820312 M 38 31.820312 L 38 25.378906 L 28 31.179688 C 27.339844 31.539062 26.601562 31.519531 26 31.199219 L 26 38.578125 L 38 31.820312 M 27.699219 26.71875 L 40.261719 19.460938 L 39.101562 17.441406 L 26.539062 24.699219 Z M 27.699219 26.71875 "/>
</g>
</svg>
