<?xml version="1.0" encoding="UTF-8"?>
<svg xmlns="http://www.w3.org/2000/svg" xmlns:xlink="http://www.w3.org/1999/xlink" width="48pt" height="48pt" viewBox="0 0 48 48" version="1.1">
<g id="surface1">
<path style=" stroke:none;fill-rule:nonzero;fill:rgb(0%,0%,0%);fill-opacity:1;" d="M 4 21.921875 C 3 21.359375 2.703125 20.140625 3.265625 19.179688 L 6.265625 14 C 6.484375 13.601562 6.820312 13.320312 7.203125 13.15625 L 22.859375 4.359375 C 23.179688 4.125 23.578125 4 24 4 C 24.421875 4 24.820312 4.125 25.140625 4.359375 L 40.9375 13.234375 C 41.320312 13.4375 41.640625 13.765625 41.820312 14.15625 L 44.71875 19.203125 C 45.28125 20.15625 44.9375 21.375 44 21.921875 L 42 23.078125 L 42 33 C 42 33.765625 41.578125 34.421875 40.9375 34.765625 L 25.140625 43.640625 C 24.820312 43.875 24.421875 44 24 44 C 23.578125 44 23.179688 43.875 22.859375 43.640625 L 7.0625 34.765625 C 6.421875 34.421875 6 33.765625 6 33 L 6 21.921875 C 5.398438 22.265625 4.640625 22.28125 4 21.921875 M 24 8.296875 L 24 21.703125 L 35.921875 15 L 24 8.296875 M 10 31.820312 L 22 38.578125 L 22 25.15625 L 10 18.421875 L 10 31.820312 M 38 31.820312 L 38 25.375 L 28 31.179688 C 27.34375 31.539062 26.601562 31.515625 26 31.203125 L 26 38.578125 L 38 31.820312 M 27.703125 26.71875 L 40.265625 19.460938 L 39.101562 17.4375 L 26.539062 24.703125 Z M 27.703125 26.71875 "/>
</g>
</svg>
