<?xml version="1.0" encoding="UTF-8"?>
<svg xmlns="http://www.w3.org/2000/svg" width="48pt"
     height="48pt" viewBox="0 0 48 48" version="1.1">
    <g id="surface1">
        <path style=" stroke:none;fill-rule:nonzero;fill:rgb(0%,0%,0%);fill-opacity:1;"
              d="M 13.242188 21.578125 C 16.117188 27.242188 20.757812 31.882812 26.421875 34.757812 L 30.820312 30.359375 C 31.382812 29.796875 32.15625 29.640625 32.859375 29.859375 C 35.101562 30.601562 37.5 31 40 31 C 41.101562 31 42 31.898438 42 33 L 42 40 C 42 41.101562 41.101562 42 40 42 C 21.21875 42 6 26.78125 6 8 C 6 6.898438 6.898438 6 8 6 L 15 6 C 16.101562 6 17 6.898438 17 8 C 17 10.5 17.398438 12.898438 18.140625 15.140625 C 18.359375 15.84375 18.203125 16.617188 17.640625 17.179688 Z M 13.242188 21.578125 "/>
    </g>
</svg>
