<?xml version="1.0" encoding="UTF-8"?>
<!DOCTYPE svg PUBLIC "-//W3C//DTD SVG 1.1//EN" "http://www.w3.org/Graphics/SVG/1.1/DTD/svg11.dtd">
<svg version="1.1" xmlns="http://www.w3.org/2000/svg" xmlns:xlink="http://www.w3.org/1999/xlink" x="0" y="0" width="48" height="48" viewBox="0, 0, 48, 48">
  <g id="surface1">
    <path d="M42.7,34.746 C42.7,35.521 42.262,36.191 41.6,36.537 L25.185,45.559 C24.853,45.802 24.438,45.925 24,45.925 C23.562,45.925 23.147,45.802 22.815,45.559 L6.4,36.537 C5.738,36.191 5.3,35.521 5.3,34.746 L5.3,16.454 C5.3,15.679 5.738,15.009 6.4,14.663 L22.815,5.641 C23.147,5.398 23.562,5.275 24,5.275 C24.438,5.275 24.853,5.398 25.185,5.641 L41.6,14.663 C42.262,15.009 42.7,15.679 42.7,16.454 L42.7,34.746 M24,9.646 L20.072,11.821 L32.311,18.708 L36.385,16.454 L24,9.646 M11.615,16.454 L24,23.262 L28.075,21.027 L15.855,14.116 L11.615,16.454 M9.455,33.547 L21.922,40.415 L21.922,26.779 L9.455,19.931 L9.455,33.547 M38.545,33.547 L38.545,19.931 L26.078,26.779 L26.078,40.415 z M38.545,33.547" fill="#000000"/>
  </g>
</svg>
