<?xml version="1.0" encoding="UTF-8"?>
<svg xmlns="http://www.w3.org/2000/svg" width="48pt"
     height="48pt" viewBox="0 0 48 48" version="1.1">
    <g id="surface1">
        <path style=" stroke:none;fill-rule:nonzero;fill:rgb(0%,0%,0%);fill-opacity:1;"
              d="M 42.703125 34.742188 C 42.703125 35.523438 42.265625 36.1875 41.601562 36.539062 L 25.1875 45.5625 C 24.851562 45.804688 24.4375 45.921875 24 45.921875 C 23.5625 45.921875 23.148438 45.804688 22.8125 45.5625 L 6.398438 36.539062 C 5.734375 36.1875 5.296875 35.523438 5.296875 34.742188 L 5.296875 16.453125 C 5.296875 15.679688 5.734375 15.007812 6.398438 14.664062 L 22.8125 5.640625 C 23.148438 5.398438 23.5625 5.273438 24 5.273438 C 24.4375 5.273438 24.851562 5.398438 25.1875 5.640625 L 41.601562 14.664062 C 42.265625 15.007812 42.703125 15.679688 42.703125 16.453125 L 42.703125 34.742188 M 24 9.648438 L 20.070312 11.820312 L 32.3125 18.710938 L 36.382812 16.453125 L 24 9.648438 M 11.617188 16.453125 L 24 23.265625 L 28.078125 21.023438 L 15.851562 14.117188 L 11.617188 16.453125 M 9.453125 33.546875 L 21.921875 40.414062 L 21.921875 26.78125 L 9.453125 19.929688 L 9.453125 33.546875 M 38.546875 33.546875 L 38.546875 19.929688 L 26.078125 26.78125 L 26.078125 40.414062 Z M 38.546875 33.546875 "/>
    </g>
</svg>
