<?xml version="1.0" encoding="UTF-8"?>
<svg xmlns="http://www.w3.org/2000/svg" xmlns:xlink="http://www.w3.org/1999/xlink" width="48pt" height="48pt" viewBox="0 0 48 48" version="1.1">
<g id="surface1">
<path style=" stroke:none;fill-rule:nonzero;fill:rgb(0%,0%,0%);fill-opacity:1;" d="M 42 33 C 42 33.761719 41.578125 34.421875 40.941406 34.761719 L 25.140625 43.640625 C 24.820312 43.878906 24.421875 44 24 44 C 23.578125 44 23.179688 43.878906 22.859375 43.640625 L 7.058594 34.761719 C 6.421875 34.421875 6 33.761719 6 33 L 6 15 C 6 14.238281 6.421875 13.578125 7.058594 13.238281 L 22.859375 4.359375 C 23.179688 4.121094 23.578125 4 24 4 C 24.421875 4 24.820312 4.121094 25.140625 4.359375 L 40.941406 13.238281 C 41.578125 13.578125 42 14.238281 42 15 L 42 33 M 24 8.300781 L 20.21875 10.441406 L 32 17.21875 L 35.921875 15 L 24 8.300781 M 12.078125 15 L 24 21.699219 L 27.921875 19.5 L 16.160156 12.699219 L 12.078125 15 M 10 31.820312 L 22 38.578125 L 22 25.160156 L 10 18.421875 L 10 31.820312 M 38 31.820312 L 38 18.421875 L 26 25.160156 L 26 38.578125 Z M 38 31.820312 "/>
</g>
</svg>
