<?xml version="1.0" encoding="UTF-8"?>
<!DOCTYPE svg PUBLIC "-//W3C//DTD SVG 1.1//EN" "http://www.w3.org/Graphics/SVG/1.1/DTD/svg11.dtd">
<svg version="1.1" xmlns="http://www.w3.org/2000/svg" xmlns:xlink="http://www.w3.org/1999/xlink" x="0" y="0" width="24" height="24" viewBox="0, 0, 24, 24">
  <g id="Layer_1">
    <g>
      <path d="M21.445,5.077 C21.445,5.842 20.825,6.462 20.06,6.462 C19.296,6.462 18.676,5.842 18.676,5.077 C18.676,4.312 19.296,3.692 20.06,3.692 C20.825,3.692 21.445,4.312 21.445,5.077 z" fill="#030104"/>
      <path d="M17.753,2.308 C17.753,3.072 17.133,3.692 16.368,3.692 C15.603,3.692 14.983,3.072 14.983,2.308 C14.983,1.543 15.603,0.923 16.368,0.923 C17.133,0.923 17.753,1.543 17.753,2.308 z" fill="#030104"/>
      <path d="M14.06,1.385 C14.06,2.149 13.44,2.769 12.676,2.769 C11.911,2.769 11.291,2.149 11.291,1.385 C11.291,0.62 11.911,-0 12.676,-0 C13.44,-0 14.06,0.62 14.06,1.385 z" fill="#030104"/>
      <path d="M10.368,3.231 C10.368,3.995 9.748,4.615 8.983,4.615 C8.219,4.615 7.599,3.995 7.599,3.231 C7.599,2.466 8.219,1.846 8.983,1.846 C9.748,1.846 10.368,2.466 10.368,3.231 z" fill="#030104"/>
      <path d="M18.676,5.077 L18.676,11.077 C18.676,11.332 18.469,11.538 18.214,11.538 C17.959,11.538 17.753,11.332 17.753,11.077 L17.753,2.308 L14.983,2.308 L14.983,10.154 C14.983,10.409 14.777,10.615 14.522,10.615 C14.267,10.615 14.06,10.409 14.06,10.154 L14.06,1.385 L11.291,1.385 L11.291,10.154 C11.291,10.409 11.084,10.615 10.83,10.615 C10.575,10.615 10.368,10.409 10.368,10.154 L10.368,3.231 L7.599,3.231 L7.599,14.769 L5.73,12.211 C5.176,11.358 4.095,11.071 3.303,11.561 C2.514,12.061 2.318,13.152 2.864,14.003 C2.864,14.003 5.879,18.566 7.164,20.519 C8.449,22.472 10.53,24 14.423,24 C20.868,24 21.445,19.023 21.445,17.538 C21.445,16.054 21.445,5.077 21.445,5.077 L18.676,5.077 z" fill="#030104"/>
    </g>
  </g>
</svg>
