<?xml version="1.0" encoding="UTF-8"?>
<svg xmlns="http://www.w3.org/2000/svg" xmlns:xlink="http://www.w3.org/1999/xlink" width="48pt" height="48pt" viewBox="0 0 48 48" version="1.1">
<g id="surface1">
<path style=" stroke:none;fill-rule:nonzero;fill:rgb(0%,0%,0%);fill-opacity:1;" d="M 41.078125 10.460938 C 41.65625 11.140625 42 12 42 13 L 42 38 C 42 40.210938 40.210938 42 38 42 L 10 42 C 7.789062 42 6 40.210938 6 38 L 6 13 C 6 12 6.34375 11.140625 6.921875 10.460938 L 9.679688 7.101562 C 10.242188 6.421875 11.0625 6 12 6 L 36 6 C 36.9375 6 37.757812 6.421875 38.296875 7.101562 L 41.078125 10.460938 M 10.242188 10 L 37.742188 10 L 35.859375 8 L 11.859375 8 L 10.242188 10 M 24 19 L 13 30 L 20 30 L 20 34 L 28 34 L 28 30 L 35 30 Z M 24 19 "/>
</g>
</svg>
