<?xml version="1.0" encoding="UTF-8"?>
<svg xmlns="http://www.w3.org/2000/svg" xmlns:xlink="http://www.w3.org/1999/xlink" width="48pt" height="48pt" viewBox="0 0 48 48" version="1.1">
<g id="surface1">
<path style=" stroke:none;fill-rule:nonzero;fill:rgb(0%,0%,0%);fill-opacity:1;" d="M 30 37 C 24.976562 37 20.640625 34.15625 18.476562 30 L 30 30 L 30 26 L 17.15625 26 C 17.0625 25.34375 17 24.679688 17 24 C 17 23.320312 17.0625 22.65625 17.15625 22 L 30 22 L 30 18 L 18.476562 18 C 20.640625 13.84375 25 11 30 11 C 33.21875 11 36.179688 12.179688 38.460938 14.140625 L 42 10.601562 C 38.820312 7.742188 34.601562 6 30 6 C 22.15625 6 15.523438 11.023438 13.039062 18 L 6 18 L 6 22 L 12.117188 22 C 12.039062 22.65625 12 23.320312 12 24 C 12 24.679688 12.039062 25.34375 12.117188 26 L 6 26 L 6 30 L 13.039062 30 C 15.523438 36.976562 22.15625 42 30 42 C 34.617188 42 38.820312 40.257812 42 37.398438 L 38.4375 33.859375 C 36.179688 35.820312 33.242188 37 30 37 Z M 30 37 "/>
</g>
</svg>
