<?xml version="1.0" encoding="UTF-8"?>
<svg xmlns="http://www.w3.org/2000/svg" xmlns:xlink="http://www.w3.org/1999/xlink" width="48pt" height="48pt" viewBox="0 0 48 48" version="1.1">
<g id="surface1">
<path style=" stroke:none;fill-rule:nonzero;fill:rgb(0%,0%,0%);fill-opacity:1;" d="M 11 0 L 37 0 C 43.074219 0 48 4.925781 48 11 L 48 37 C 48 43.074219 43.074219 48 37 48 L 11 48 C 4.925781 48 0 43.074219 0 37 L 0 11 C 0 4.925781 4.925781 0 11 0 M 30.78125 30.359375 C 30.78125 33.519531 29 35.621094 25.699219 35.898438 L 25.699219 25.21875 C 29.101562 26.261719 30.78125 27.320312 30.78125 30.359375 M 23.300781 12 L 23.300781 21.761719 C 20.679688 21 18.058594 19.859375 18.058594 16.859375 C 18.058594 13.878906 20.359375 12.238281 23.300781 12 M 31 15.199219 L 33 13.601562 C 31.238281 11.320312 28.800781 9.839844 25.699219 9.539062 L 25.699219 7.601562 L 23.300781 7.601562 L 23.300781 9.5 C 19 9.78125 15.359375 12.339844 15.359375 17 C 15.359375 22 19.480469 23.558594 23.300781 24.578125 L 23.300781 35.921875 C 21.078125 35.679688 18.578125 34.621094 16.859375 32.058594 L 14.601562 33.558594 C 16.398438 36.238281 19.519531 38 23.300781 38.28125 L 23.300781 40.398438 L 25.699219 40.398438 L 25.699219 38.320312 C 30.699219 38 33.398438 34.679688 33.398438 30.28125 C 33.398438 25.160156 29.621094 23.519531 25.699219 22.378906 L 25.699219 12.101562 C 28 12.441406 29.699219 13.519531 31 15.199219 Z M 31 15.199219 "/>
</g>
</svg>
