<?xml version="1.0" encoding="UTF-8"?>
<svg xmlns="http://www.w3.org/2000/svg" xmlns:xlink="http://www.w3.org/1999/xlink" width="48pt" height="48pt" viewBox="0 0 48 48" version="1.1">
<g id="surface1">
<path style=" stroke:none;fill-rule:nonzero;fill:rgb(0%,0%,0%);fill-opacity:1;" d="M 26 36 L 28 36 C 29.109375 36 30 36.890625 30 38 L 44 38 L 44 42 L 30 42 C 30 43.109375 29.109375 44 28 44 L 20 44 C 18.890625 44 18 43.109375 18 42 L 4 42 L 4 38 L 18 38 C 18 36.890625 18.890625 36 20 36 L 22 36 L 22 32 L 16 32 C 14.890625 32 14 31.109375 14 30 L 14 6 C 14 4.890625 14.890625 4 16 4 L 32 4 C 33.109375 4 34 4.890625 34 6 L 34 30 C 34 31.109375 33.109375 32 32 32 L 26 32 L 26 36 M 26 12 L 28 12 L 28 8 L 26 8 L 26 12 M 18 8 L 18 12 L 22 12 L 22 8 L 18 8 M 18 16 L 18 20 L 22 20 L 22 16 L 18 16 M 18 24 L 18 28 L 22 28 L 22 24 Z M 18 24 "/>
</g>
</svg>
