<?xml version="1.0" encoding="UTF-8"?>
<svg xmlns="http://www.w3.org/2000/svg" xmlns:xlink="http://www.w3.org/1999/xlink" width="48pt" height="48pt" viewBox="0 0 48 48" version="1.1">
<g id="surface1">
<path style=" stroke:none;fill-rule:nonzero;fill:rgb(0%,0%,0%);fill-opacity:1;" d="M 36 37 C 37.65625 37 39 35.65625 39 34 C 39 32.34375 37.65625 31 36 31 C 34.34375 31 33 32.34375 33 34 C 33 35.65625 34.34375 37 36 37 M 39 19 L 34 19 L 34 24 L 42.921875 24 L 39 19 M 12 37 C 13.65625 37 15 35.65625 15 34 C 15 32.34375 13.65625 31 12 31 C 10.34375 31 9 32.34375 9 34 C 9 35.65625 10.34375 37 12 37 M 40 16 L 46 24 L 46 34 L 42 34 C 42 37.3125 39.3125 40 36 40 C 32.6875 40 30 37.3125 30 34 L 18 34 C 18 37.3125 15.3125 40 12 40 C 8.6875 40 6 37.3125 6 34 L 2 34 L 2 12 C 2 9.78125 3.78125 8 6 8 L 34 8 L 34 16 L 40 16 M 16 12 L 16 18 L 10 18 L 10 22 L 16 22 L 16 28 L 20 28 L 20 22 L 26 22 L 26 18 L 20 18 L 20 12 Z M 16 12 "/>
</g>
</svg>
