<?xml version="1.0" encoding="UTF-8"?>
<svg xmlns="http://www.w3.org/2000/svg" xmlns:xlink="http://www.w3.org/1999/xlink" width="48pt" height="48pt" viewBox="0 0 48 48" version="1.1">
<g id="surface1">
<path style=" stroke:none;fill-rule:nonzero;fill:rgb(0%,0%,0%);fill-opacity:1;" d="M 11 0 L 37 0 C 43.078125 0 48 4.921875 48 11 L 48 37 C 48 43.078125 43.078125 48 37 48 L 11 48 C 4.921875 48 0 43.078125 0 37 L 0 11 C 0 4.921875 4.921875 0 11 0 M 30.78125 30.359375 C 30.78125 33.515625 29 35.625 25.703125 35.898438 L 25.703125 25.21875 C 29.101562 26.265625 30.78125 27.320312 30.78125 30.359375 M 23.296875 12 L 23.296875 21.765625 C 20.679688 21 18.0625 19.859375 18.0625 16.859375 C 18.0625 13.875 20.359375 12.234375 23.296875 12 M 31 15.203125 L 33 13.601562 C 31.234375 11.320312 28.796875 9.84375 25.703125 9.539062 L 25.703125 7.601562 L 23.296875 7.601562 L 23.296875 9.5 C 19 9.78125 15.359375 12.34375 15.359375 17 C 15.359375 22 19.484375 23.5625 23.296875 24.578125 L 23.296875 35.921875 C 21.078125 35.679688 18.578125 34.625 16.859375 32.0625 L 14.601562 33.5625 C 16.398438 36.234375 19.515625 38 23.296875 38.28125 L 23.296875 40.398438 L 25.703125 40.398438 L 25.703125 38.320312 C 30.703125 38 33.398438 34.679688 33.398438 30.28125 C 33.398438 25.15625 29.625 23.515625 25.703125 22.375 L 25.703125 12.101562 C 28 12.4375 29.703125 13.515625 31 15.203125 Z M 31 15.203125 "/>
</g>
</svg>
