<?xml version="1.0" encoding="UTF-8"?>
<!DOCTYPE svg PUBLIC "-//W3C//DTD SVG 1.1//EN" "http://www.w3.org/Graphics/SVG/1.1/DTD/svg11.dtd">
<svg version="1.1" xmlns="http://www.w3.org/2000/svg" xmlns:xlink="http://www.w3.org/1999/xlink" x="0" y="0" width="48" height="48" viewBox="0, 0, 48, 48">
  <g id="surface1">
    <path d="M8,33 C9.656,33 11,34.344 11,36 C11,37.656 9.656,39 8,39 C6.344,39 5,37.656 5,36 C5,34.344 6.344,33 8,33 z" fill="#000000"/>
    <path d="M23.917,34 C23.482,36.094 23.585,35.152 23.5,36.812 C23.557,37.921 23.482,37.531 23.58,38 L14,38 L14,34 L23.917,34 z" fill="#000000"/>
    <path d="M8,21 C9.656,21 11,22.344 11,24 C11,25.656 9.656,27 8,27 C6.344,27 5,25.656 5,24 C5,22.344 6.344,21 8,21 z" fill="#000000"/>
    <path d="M42,22 L42,26 L14,26 L14,22 L42,22 z" fill="#000000"/>
    <path d="M8,9 C9.656,9 11,10.344 11,12 C11,13.656 9.656,15 8,15 C6.344,15 5,13.656 5,12 C5,10.344 6.344,9 8,9 z" fill="#000000"/>
    <path d="M42,10 L42,14 L14,14 L14,10 L42,10 z" fill="#000000"/>
    <g>
      <path d="M33.083,39.982 L29.308,36.206 L28.047,37.463 L33.083,42.5 L43.873,31.71 L42.616,30.453 z M33.083,39.982" fill="#000000"/>
      <path d="M33.083,39.982 L29.308,36.206 L28.047,37.463 L33.083,42.5 L43.873,31.71 L42.616,30.453 z M33.083,39.982" fill-opacity="0" stroke="#000000" stroke-width="2"/>
    </g>
  </g>
</svg>
