<?xml version="1.0" encoding="UTF-8"?>
<svg xmlns="http://www.w3.org/2000/svg" width="48pt"
     height="48pt" viewBox="0 0 48 48" version="1.1">
    <g id="surface1">
        <path style=" stroke:none;fill-rule:nonzero;fill:rgb(0%,0%,0%);fill-opacity:1;"
              d="M 38 6 L 29.640625 6 C 28.796875 3.679688 26.601562 2 24 2 C 21.398438 2 19.203125 3.679688 18.359375 6 L 10 6 C 7.796875 6 6 7.796875 6 10 L 6 38 C 6 40.203125 7.796875 42 10 42 L 38 42 C 40.203125 42 42 40.203125 42 38 L 42 10 C 42 7.796875 40.203125 6 38 6 Z M 24 6 C 25.101562 6 26 6.898438 26 8 C 26 9.101562 25.101562 10 24 10 C 22.898438 10 22 9.101562 22 8 C 22 6.898438 22.898438 6 24 6 Z M 24 14 C 27.320312 14 30 16.679688 30 20 C 30 23.320312 27.320312 26 24 26 C 20.679688 26 18 23.320312 18 20 C 18 16.679688 20.679688 14 24 14 Z M 36 38 L 12 38 L 12 35.203125 C 12 31.203125 20 29 24 29 C 28 29 36 31.203125 36 35.203125 Z M 36 38 "/>
    </g>
</svg>
