<?xml version="1.0" encoding="UTF-8"?>
<svg xmlns="http://www.w3.org/2000/svg" xmlns:xlink="http://www.w3.org/1999/xlink" width="48pt" height="48pt" viewBox="0 0 48 48" version="1.1">
<g id="surface1">
<path style=" stroke:none;fill-rule:nonzero;fill:rgb(0%,0%,0%);fill-opacity:1;" d="M 36 30 L 32 30 L 32 34 L 36 34 M 36 22 L 32 22 L 32 26 L 36 26 M 40 38 L 24 38 L 24 34 L 28 34 L 28 30 L 24 30 L 24 26 L 28 26 L 28 22 L 24 22 L 24 18 L 40 18 M 20 14 L 16 14 L 16 10 L 20 10 M 20 22 L 16 22 L 16 18 L 20 18 M 20 30 L 16 30 L 16 26 L 20 26 M 20 38 L 16 38 L 16 34 L 20 34 M 12 14 L 8 14 L 8 10 L 12 10 M 12 22 L 8 22 L 8 18 L 12 18 M 12 30 L 8 30 L 8 26 L 12 26 M 12 38 L 8 38 L 8 34 L 12 34 M 24 14 L 24 6 L 4 6 L 4 42 L 44 42 L 44 14 Z M 24 14 "/>
</g>
</svg>
