<?xml version="1.0" encoding="UTF-8"?>
<svg xmlns="http://www.w3.org/2000/svg" xmlns:xlink="http://www.w3.org/1999/xlink" width="48pt" height="48pt" viewBox="0 0 48 48" version="1.1">
<g id="surface1">
<path style=" stroke:none;fill-rule:nonzero;fill:rgb(0%,0%,0%);fill-opacity:1;" d="M 6 8 C 3.789062 8 2 9.789062 2 12 L 2 34 L 6 34 C 6 37.3125 8.6875 40 12 40 C 15.3125 40 18 37.3125 18 34 L 30 34 C 30 37.3125 32.6875 40 36 40 C 39.3125 40 42 37.3125 42 34 L 46 34 L 46 24 L 40 16 L 34 16 L 34 8 M 20 12 L 28 20 L 20 28 L 20 22 L 8 22 L 8 18 L 20 18 M 34 19 L 39 19 L 42.9375 24 L 34 24 M 12 31 C 13.65625 31 15 32.34375 15 34 C 15 35.65625 13.65625 37 12 37 C 10.34375 37 9 35.65625 9 34 C 9 32.34375 10.34375 31 12 31 M 36 31 C 37.65625 31 39 32.34375 39 34 C 39 35.65625 37.65625 37 36 37 C 34.34375 37 33 35.65625 33 34 C 33 32.34375 34.34375 31 36 31 Z M 36 31 "/>
</g>
</svg>
