<?xml version="1.0" encoding="UTF-8"?>
<!DOCTYPE svg PUBLIC "-//W3C//DTD SVG 1.1//EN" "http://www.w3.org/Graphics/SVG/1.1/DTD/svg11.dtd">
<svg version="1.1" xmlns="http://www.w3.org/2000/svg" xmlns:xlink="http://www.w3.org/1999/xlink" x="0" y="0" width="48" height="48" viewBox="0, 0, 48, 48">
  <g id="surface1">
    <path d="M38.545,17.667 L33.091,17.667 L33.091,10.333 L7.636,10.333 C5.634,10.333 4,11.98 4,14 L4,34.167 L7.636,34.167 C7.636,37.21 10.072,39.667 13.091,39.667 C16.109,39.667 18.545,37.21 18.545,34.167 L29.455,34.167 C29.455,37.21 31.891,39.667 34.909,39.667 C37.928,39.667 40.364,37.21 40.364,34.167 L44,34.167 L44,25 z M13.091,36.917 C11.585,36.917 10.364,35.685 10.364,34.167 C10.364,32.648 11.585,31.417 13.091,31.417 C14.597,31.417 15.818,32.648 15.818,34.167 C15.818,35.685 14.597,36.917 13.091,36.917 z M37.636,20.417 L41.202,25 L33.091,25 L33.091,20.417 z M34.909,36.917 C33.403,36.917 32.182,35.685 32.182,34.167 C32.182,32.648 33.403,31.417 34.909,31.417 C36.415,31.417 37.636,32.648 37.636,34.167 C37.636,35.685 36.415,36.917 34.909,36.917 z M34.909,36.917" fill="#000000"/>
  </g>
</svg>
