<?xml version="1.0" encoding="UTF-8"?>
<!DOCTYPE svg PUBLIC "-//W3C//DTD SVG 1.1//EN" "http://www.w3.org/Graphics/SVG/1.1/DTD/svg11.dtd">
<svg version="1.1" xmlns="http://www.w3.org/2000/svg" xmlns:xlink="http://www.w3.org/1999/xlink" x="0" y="0" width="48" height="48" viewBox="0, 0, 48, 48">
  <g id="surface1">
    <path d="M6,8 C3.789,8 2,9.789 2,12 L2,34 L6,34 C6,37.312 8.688,40 12,40 C15.312,40 18,37.312 18,34 L30,34 C30,37.312 32.688,40 36,40 C39.312,40 42,37.312 42,34 L46,34 L46,24 L40,16 L34,16 L34,8 M16,28 L8,20 L16,12 L16,18 L28,18 L28,22 L16,22 M34,19 L39,19 L42.938,24 L34,24 M12,31 C13.656,31 15,32.344 15,34 C15,35.656 13.656,37 12,37 C10.344,37 9,35.656 9,34 C9,32.344 10.344,31 12,31 M36,31 C37.656,31 39,32.344 39,34 C39,35.656 37.656,37 36,37 C34.344,37 33,35.656 33,34 C33,32.344 34.344,31 36,31 z" fill="#000000"/>
  </g>
</svg>
