<?xml version="1.0" encoding="UTF-8"?>
<svg xmlns="http://www.w3.org/2000/svg" xmlns:xlink="http://www.w3.org/1999/xlink" width="48pt" height="48pt" viewBox="0 0 48 48" version="1.1">
<g id="surface1">
<path style=" stroke:none;fill-rule:nonzero;fill:rgb(0%,0%,0%);fill-opacity:1;" d="M 6 27 L 4.5 24 L 15 24 L 13.796875 21 L 4 21 L 2.5 18 L 18.101562 18 L 16.898438 15 L 2.21875 15 L 0.5 12 L 8 12 C 8 9.789062 9.789062 8 12 8 L 36 8 L 36 16 L 42 16 L 48 24 L 48 34 L 44 34 C 44 37.3125 41.3125 40 38 40 C 34.6875 40 32 37.3125 32 34 L 24 34 C 24 37.3125 21.3125 40 18 40 C 14.6875 40 12 37.3125 12 34 L 8 34 L 8 27 L 6 27 M 38 37 C 39.65625 37 41 35.65625 41 34 C 41 32.34375 39.65625 31 38 31 C 36.34375 31 35 32.34375 35 34 C 35 35.65625 36.34375 37 38 37 M 41 19 L 36 19 L 36 24 L 44.921875 24 L 41 19 M 18 37 C 19.65625 37 21 35.65625 21 34 C 21 32.34375 19.65625 31 18 31 C 16.34375 31 15 32.34375 15 34 C 15 35.65625 16.34375 37 18 37 Z M 18 37 "/>
</g>
</svg>
