<?xml version="1.0" encoding="UTF-8" standalone="no"?>
<svg
   xmlns:dc="http://purl.org/dc/elements/1.1/"
   xmlns:cc="http://creativecommons.org/ns#"
   xmlns:rdf="http://www.w3.org/1999/02/22-rdf-syntax-ns#"
   xmlns:svg="http://www.w3.org/2000/svg"
   xmlns="http://www.w3.org/2000/svg"
   xmlns:sodipodi="http://sodipodi.sourceforge.net/DTD/sodipodi-0.dtd"
   xmlns:inkscape="http://www.inkscape.org/namespaces/inkscape"
   version="1.1"
   width="24"
   height="24"
   viewBox="0 0 24 24"
   id="svg4"
   sodipodi:docname="truck-delivery2.svg"
   inkscape:version="0.92.1 r15371">
  <metadata
     id="metadata10">
    <rdf:RDF>
      <cc:Work
         rdf:about="">
        <dc:format>image/svg+xml</dc:format>
        <dc:type
           rdf:resource="http://purl.org/dc/dcmitype/StillImage" />
        <dc:title></dc:title>
      </cc:Work>
    </rdf:RDF>
  </metadata>
  <defs
     id="defs8" />
  <sodipodi:namedview
     pagecolor="#ffffff"
     bordercolor="#666666"
     borderopacity="1"
     objecttolerance="10"
     gridtolerance="10"
     guidetolerance="10"
     inkscape:pageopacity="0"
     inkscape:pageshadow="2"
     inkscape:window-width="1920"
     inkscape:window-height="1017"
     id="namedview6"
     showgrid="false"
     inkscape:zoom="15.27546"
     inkscape:cx="17.191927"
     inkscape:cy="16.089239"
     inkscape:window-x="-8"
     inkscape:window-y="-8"
     inkscape:window-maximized="1"
     inkscape:current-layer="svg4" />
  <path
     d="M 3,4 C 1.8954305,4 1,4.8954305 1,6 v 11 h 2 c 0,1.656854 1.3431458,3 3,3 1.6568542,0 3,-1.343146 3,-3 h 6 c 0,1.656854 1.343146,3 3,3 1.656854,0 3,-1.343146 3,-3 h 2 V 12 L 20,8 H 17 V 4 m 0,5.5 h 2.5 L 21.47,12 H 17 M 6,15.5 c 0.8284271,0 1.5,0.671573 1.5,1.5 0,0.828427 -0.6715729,1.5 -1.5,1.5 -0.8284271,0 -1.5,-0.671573 -1.5,-1.5 0,-0.828427 0.6715729,-1.5 1.5,-1.5 m 12,0 c 0.828427,0 1.5,0.671573 1.5,1.5 0,0.828427 -0.671573,1.5 -1.5,1.5 -0.828427,0 -1.5,-0.671573 -1.5,-1.5 0,-0.828427 0.671573,-1.5 1.5,-1.5 z"
     id="path2"
     inkscape:connector-curvature="0"
     sodipodi:nodetypes="csccsccscccccccccccssscsssss" />
  <g
     inkscape:groupmode="layer"
     id="layer1"
     inkscape:label="Layer 1" />
  <g
     inkscape:groupmode="layer"
     id="layer2"
     inkscape:label="Layer 2" />
  <path
     inkscape:connector-curvature="0"
     d="m 7.9797686,5.9218289 -4,4.0000001 4,4 v -3 h 6.0000004 v -2 H 7.9797686"
     id="path2-0"
     sodipodi:nodetypes="ccccccc"
     style="fill:#ffffff" />
</svg>
