<?xml version="1.0" encoding="UTF-8"?>
<svg xmlns="http://www.w3.org/2000/svg" xmlns:xlink="http://www.w3.org/1999/xlink" width="48pt" height="48pt" viewBox="0 0 48 48" version="1.1">
<g id="surface1">
<path style=" stroke:none;fill-rule:nonzero;fill:rgb(0%,0%,0%);fill-opacity:1;" d="M 24 38.398438 C 19 38.398438 14.578125 35.839844 12 32 C 12.058594 28 20 25.800781 24 25.800781 C 28 25.800781 35.941406 28 36 32 C 33.421875 35.839844 29 38.398438 24 38.398438 M 24 10 C 27.3125 10 30 12.6875 30 16 C 30 19.3125 27.3125 22 24 22 C 20.6875 22 18 19.3125 18 16 C 18 12.6875 20.6875 10 24 10 M 24 4 C 12.953125 4 4 12.953125 4 24 C 4 35.046875 12.953125 44 24 44 C 35.046875 44 44 35.046875 44 24 C 44 12.941406 35 4 24 4 Z M 24 4 "/>
</g>
</svg>
