<?xml version="1.0" encoding="UTF-8"?>
<!DOCTYPE svg PUBLIC "-//W3C//DTD SVG 1.1//EN" "http://www.w3.org/Graphics/SVG/1.1/DTD/svg11.dtd">
<svg version="1.1" xmlns="http://www.w3.org/2000/svg" xmlns:xlink="http://www.w3.org/1999/xlink" x="0" y="0" width="24" height="24" viewBox="0, 0, 24, 24">
  <g id="Layer_1">
    <path d="M21.517,19.888 C20.645,20.428 19.737,20.603 18.806,20.468 C17.877,20.339 16.931,19.965 16.011,19.501 C15.55,19.263 15.09,19.014 14.639,18.735 C14.173,18.465 13.767,18.192 13.245,17.859 C13.038,17.737 12.822,17.622 12.609,17.508 C12.52,16.554 12.395,15.042 12.41,14.229 C12.429,13.295 12.493,12.355 12.62,11.425 C12.747,10.497 12.938,9.573 13.23,8.677 C13.36,8.288 13.513,7.906 13.687,7.533 C13.765,7.514 13.839,7.498 13.915,7.48 C13.935,7.485 13.95,7.487 13.971,7.491 C13.964,7.483 13.958,7.479 13.953,7.47 C14.001,7.461 14.051,7.448 14.098,7.437 C14.276,7.559 14.441,7.681 14.575,7.817 C14.777,8.018 14.912,8.24 14.992,8.489 C15.074,8.736 15.1,9.017 15.098,9.319 C15.1,9.621 15.066,9.938 15.061,10.286 C15.302,10.036 15.473,9.73 15.572,9.393 C15.669,9.057 15.691,8.67 15.571,8.301 C15.455,7.931 15.18,7.609 14.856,7.434 C14.787,7.397 14.714,7.366 14.642,7.337 C14.992,7.283 15.33,7.252 15.653,7.254 C16.282,7.254 16.838,7.387 17.35,7.649 C17.863,7.911 18.343,8.306 18.81,8.776 C19.283,9.247 19.726,9.79 20.258,10.341 C20.24,9.576 20.031,8.839 19.66,8.155 C19.287,7.479 18.722,6.842 17.956,6.454 C17.196,6.057 16.269,5.983 15.49,6.214 C14.838,6.406 14.271,6.769 13.85,7.254 C13.841,7.254 13.831,7.254 13.823,7.255 C13.828,7.258 13.833,7.262 13.839,7.265 C13.829,7.276 13.821,7.287 13.812,7.297 C13.809,7.294 13.805,7.289 13.802,7.286 C13.826,7.239 13.854,7.193 13.879,7.148 C14.395,6.635 14.896,6.205 15.416,5.895 C15.954,5.57 16.501,5.397 17.072,5.357 C17.646,5.317 18.261,5.405 18.907,5.567 C19.552,5.726 20.214,5.962 20.955,6.157 C20.543,5.511 19.984,4.987 19.313,4.594 C18.643,4.208 17.831,3.956 16.976,4.02 C16.122,4.073 15.29,4.489 14.74,5.09 C14.567,5.281 14.416,5.488 14.286,5.704 C14.298,5.575 14.316,5.447 14.315,5.315 C14.311,4.502 13.969,3.635 13.372,3.024 C12.779,2.404 12.005,2.048 11.252,1.886 C10.489,1.728 9.724,1.743 8.985,1.947 C9.666,2.297 10.315,2.565 10.901,2.882 C11.488,3.192 12.006,3.537 12.405,3.953 C12.805,4.367 13.092,4.86 13.275,5.463 C13.423,5.943 13.507,6.476 13.552,7.059 C13.433,6.467 13.139,5.904 12.713,5.427 C12.17,4.822 11.341,4.398 10.489,4.337 C9.632,4.268 8.818,4.512 8.145,4.893 C7.47,5.28 6.907,5.797 6.489,6.439 C7.231,6.25 7.895,6.02 8.543,5.867 C9.188,5.71 9.804,5.627 10.379,5.673 C10.951,5.718 11.494,5.896 12.031,6.226 C12.31,6.396 12.583,6.602 12.855,6.833 C12.567,6.802 12.262,6.854 11.998,6.992 C11.651,7.167 11.394,7.456 11.227,7.764 C11.059,8.073 10.964,8.409 10.956,8.755 C11.195,8.505 11.398,8.259 11.613,8.046 C11.825,7.832 12.043,7.652 12.275,7.535 C12.508,7.416 12.76,7.355 13.044,7.355 C13.16,7.355 13.282,7.368 13.407,7.384 C13.16,7.724 12.928,8.081 12.721,8.449 C12.238,9.31 11.855,10.225 11.534,11.162 C11.215,12.098 10.958,13.055 10.746,14.025 C10.607,14.678 10.551,15.71 10.498,16.632 C10.299,16.573 10.1,16.51 9.897,16.46 C8.714,16.175 7.483,16.088 6.287,16.203 C5.09,16.319 3.932,16.631 2.865,17.108 C1.807,17.598 0.803,18.2 -0,19.018 C2.117,18.224 4.271,17.847 6.333,17.954 C8.399,18.057 10.346,18.704 12.087,19.768 C12.509,20.028 13.033,20.364 13.537,20.646 C14.05,20.926 14.575,21.192 15.126,21.424 C16.224,21.875 17.427,22.243 18.73,22.22 C19.377,22.207 20.042,22.079 20.646,21.819 C21.252,21.562 21.782,21.173 22.209,20.733 C23.054,19.835 23.579,18.814 24,17.758 C23.173,18.542 22.4,19.368 21.517,19.888 z" fill="#030104"/>
  </g>
</svg>
