<?xml version="1.0" encoding="UTF-8"?>
<!DOCTYPE svg PUBLIC "-//W3C//DTD SVG 1.1//EN" "http://www.w3.org/Graphics/SVG/1.1/DTD/svg11.dtd">
<svg version="1.1" xmlns="http://www.w3.org/2000/svg" xmlns:xlink="http://www.w3.org/1999/xlink" x="0" y="0" width="48" height="48" viewBox="0, 0, 48, 48">
  <g id="surface1">
    <path d="M33.182,12 L7.939,12 C5.953,12 4.333,13.739 4.333,15.905 L4.333,33.476 L7.939,33.476 C7.939,36.695 10.355,39.333 13.348,39.333 C16.342,39.333 18.758,36.695 18.758,33.476 L28.674,33.476 C28.674,36.695 31.09,39.333 34.083,39.333 C37.077,39.333 39.492,36.695 39.492,33.476 L44,33.476 L44,23.714 z M7.939,23.714 L7.939,15.905 L15.152,15.905 L15.152,23.714 z M13.348,36.405 C11.855,36.405 10.644,35.093 10.644,33.476 C10.644,31.859 11.855,30.548 13.348,30.548 C14.842,30.548 16.053,31.859 16.053,33.476 C16.053,35.093 14.842,36.405 13.348,36.405 z M25.97,23.714 L18.758,23.714 L18.758,15.905 L25.97,15.905 z M34.083,36.405 C32.59,36.405 31.379,35.093 31.379,33.476 C31.379,31.859 32.59,30.548 34.083,30.548 C35.576,30.548 36.788,31.859 36.788,33.476 C36.788,35.093 35.576,36.405 34.083,36.405 z M29.576,23.714 L29.576,15.905 L31.379,15.905 L38.591,23.714 z M29.576,23.714" fill="#000000"/>
  </g>
</svg>
