<?xml version="1.0" encoding="UTF-8"?>
<svg xmlns="http://www.w3.org/2000/svg" xmlns:xlink="http://www.w3.org/1999/xlink" width="48pt" height="48pt" viewBox="0 0 48 48" version="1.1">
<g id="surface1">
<path style=" stroke:none;fill-rule:nonzero;fill:rgb(0%,0%,0%);fill-opacity:1;" d="M 34 10 L 6 10 C 3.796875 10 2 11.78125 2 14 L 2 32 L 6 32 C 6 35.296875 8.679688 38 12 38 C 15.320312 38 18 35.296875 18 32 L 29 32 C 29 35.296875 31.679688 38 35 38 C 38.320312 38 41 35.296875 41 32 L 46 32 L 46 22 Z M 6 22 L 6 14 L 14 14 L 14 22 Z M 12 35 C 10.34375 35 9 33.65625 9 32 C 9 30.34375 10.34375 29 12 29 C 13.65625 29 15 30.34375 15 32 C 15 33.65625 13.65625 35 12 35 Z M 26 22 L 18 22 L 18 14 L 26 14 Z M 35 35 C 33.34375 35 32 33.65625 32 32 C 32 30.34375 33.34375 29 35 29 C 36.65625 29 38 30.34375 38 32 C 38 33.65625 36.65625 35 35 35 Z M 30 22 L 30 14 L 32 14 L 40 22 Z M 30 22 "/>
</g>
</svg>
