<?xml version="1.0" encoding="UTF-8"?>
<svg xmlns="http://www.w3.org/2000/svg" xmlns:xlink="http://www.w3.org/1999/xlink" width="48pt" height="48pt" viewBox="0 0 48 48" version="1.1">
<g id="surface1">
<path style=" stroke:none;fill-rule:nonzero;fill:rgb(0%,0%,0%);fill-opacity:1;" d="M 15 11.203125 L 10 14 L 12.796875 9 L 10 4 L 15 6.796875 L 20 4 L 17.203125 9 L 20 14 L 15 11.203125 M 39 30.796875 L 44 28 L 41.203125 33 L 44 38 L 39 35.203125 L 34 38 L 36.796875 33 L 34 28 L 39 30.796875 M 44 4 L 41.203125 9 L 44 14 L 39 11.203125 L 34 14 L 36.796875 9 L 34 4 L 39 6.796875 L 44 4 M 26.679688 25.5625 L 31.5625 20.679688 L 27.320312 16.4375 L 22.4375 21.320312 L 26.679688 25.5625 M 28.734375 14.578125 L 33.421875 19.265625 C 34.203125 20 34.203125 21.296875 33.421875 22.078125 L 10.078125 45.421875 C 9.296875 46.203125 8 46.203125 7.265625 45.421875 L 2.578125 40.734375 C 1.796875 40 1.796875 38.703125 2.578125 37.921875 L 25.921875 14.578125 C 26.703125 13.796875 28 13.796875 28.734375 14.578125 Z M 28.734375 14.578125 "/>
</g>
</svg>
