<?xml version="1.0" encoding="UTF-8"?>
<svg xmlns="http://www.w3.org/2000/svg" xmlns:xlink="http://www.w3.org/1999/xlink" width="48pt" height="48pt" viewBox="0 0 48 48" version="1.1">
<g id="surface1">
<path style=" stroke:none;fill-rule:nonzero;fill:rgb(0%,0%,0%);fill-opacity:1;" d="M 16.921875 30.117188 L 14.101562 32.9375 L 11.359375 30.203125 C 9.640625 32.421875 8.476562 35.078125 8.117188 38 L 12 38 L 12 42 L 4 42 L 4 40 C 4 30.320312 10.882812 22.257812 20 20.398438 L 20 16.398438 L 4 10 L 4 6 L 44 6 L 44 10 L 28 16.398438 L 28 20.398438 C 37.117188 22.257812 44 30.320312 44 40 L 44 42 L 36 42 L 36 38 L 39.882812 38 C 39.523438 35.078125 38.359375 32.421875 36.640625 30.203125 L 33.898438 32.9375 L 31.078125 30.117188 L 33.820312 27.359375 C 31.601562 25.640625 28.921875 24.476562 26 24.117188 L 26 28 L 22 28 L 22 24.117188 C 19.078125 24.476562 16.398438 25.640625 14.179688 27.359375 L 16.921875 30.117188 M 24 36 C 26.210938 36 28 37.789062 28 40 C 28 42.210938 26.210938 44 24 44 C 23.359375 44 22.757812 43.859375 22.242188 43.578125 L 14.539062 40 L 22.242188 36.421875 C 22.757812 36.140625 23.359375 36 24 36 Z M 24 36 "/>
</g>
</svg>
