<svg xmlns="http://www.w3.org/2000/svg"
     viewBox="0 0 24 24" version="1.1" width="48" height="48">
    <g id="surface1">
        <path style=" "
              d="M 2 5 L 2 19 L 4 19 L 4 5 Z M 4 12 L 8 15 L 8 13 L 16 13 L 16 15 L 20 12 L 16 9 L 16 11 L 8 11 L 8 9 Z M 20 12 L 20 19 L 22 19 L 22 5 L 20 5 Z M 6 5 C 5.449219 5 5 5.449219 5 6 C 5 6.550781 5.449219 7 6 7 C 6.550781 7 7 6.550781 7 6 C 7 5.449219 6.550781 5 6 5 Z M 10 5 C 9.449219 5 9 5.449219 9 6 C 9 6.550781 9.449219 7 10 7 C 10.550781 7 11 6.550781 11 6 C 11 5.449219 10.550781 5 10 5 Z M 14 5 C 13.449219 5 13 5.449219 13 6 C 13 6.550781 13.449219 7 14 7 C 14.550781 7 15 6.550781 15 6 C 15 5.449219 14.550781 5 14 5 Z M 18 5 C 17.449219 5 17 5.449219 17 6 C 17 6.550781 17.449219 7 18 7 C 18.550781 7 19 6.550781 19 6 C 19 5.449219 18.550781 5 18 5 Z M 6 17 C 5.449219 17 5 17.449219 5 18 C 5 18.550781 5.449219 19 6 19 C 6.550781 19 7 18.550781 7 18 C 7 17.449219 6.550781 17 6 17 Z M 10 17 C 9.449219 17 9 17.449219 9 18 C 9 18.550781 9.449219 19 10 19 C 10.550781 19 11 18.550781 11 18 C 11 17.449219 10.550781 17 10 17 Z M 14 17 C 13.449219 17 13 17.449219 13 18 C 13 18.550781 13.449219 19 14 19 C 14.550781 19 15 18.550781 15 18 C 15 17.449219 14.550781 17 14 17 Z M 18 17 C 17.449219 17 17 17.449219 17 18 C 17 18.550781 17.449219 19 18 19 C 18.550781 19 19 18.550781 19 18 C 19 17.449219 18.550781 17 18 17 Z "/>
    </g>
</svg>