<?xml version="1.0" encoding="UTF-8"?>
<svg xmlns="http://www.w3.org/2000/svg" xmlns:xlink="http://www.w3.org/1999/xlink" width="48pt" height="48pt" viewBox="0 0 48 48" version="1.1">
<g id="surface1">
<path style=" stroke:none;fill-rule:nonzero;fill:rgb(0%,0%,0%);fill-opacity:1;" d="M 15 11.199219 L 10 14 L 12.800781 9 L 10 4 L 15 6.800781 L 20 4 L 17.199219 9 L 20 14 L 15 11.199219 M 39 30.800781 L 44 28 L 41.199219 33 L 44 38 L 39 35.199219 L 34 38 L 36.800781 33 L 34 28 L 39 30.800781 M 44 4 L 41.199219 9 L 44 14 L 39 11.199219 L 34 14 L 36.800781 9 L 34 4 L 39 6.800781 L 44 4 M 26.679688 25.558594 L 31.558594 20.679688 L 27.320312 16.441406 L 22.441406 21.320312 L 26.679688 25.558594 M 28.738281 14.578125 L 33.421875 19.261719 C 34.199219 20 34.199219 21.300781 33.421875 22.078125 L 10.078125 45.421875 C 9.300781 46.199219 8 46.199219 7.261719 45.421875 L 2.578125 40.738281 C 1.800781 40 1.800781 38.699219 2.578125 37.921875 L 25.921875 14.578125 C 26.699219 13.800781 28 13.800781 28.738281 14.578125 Z M 28.738281 14.578125 "/>
</g>
</svg>
