<?xml version="1.0" encoding="UTF-8"?>
<svg xmlns="http://www.w3.org/2000/svg" xmlns:xlink="http://www.w3.org/1999/xlink" width="48pt" height="48pt" viewBox="0 0 48 48" version="1.1">
<g id="surface1">
<path style=" stroke:none;fill-rule:nonzero;fill:rgb(0%,0%,0%);fill-opacity:1;" d="M 24 6 C 28.421875 6 32 9.578125 32 14 C 32 15.460938 31.617188 16.820312 30.921875 18 L 36 18 C 37.898438 18 39.5 19.34375 39.898438 21.117188 C 43.921875 37.140625 44 37.5625 44 38 C 44 40.210938 42.210938 42 40 42 L 8 42 C 5.789062 42 4 40.210938 4 38 C 4 37.5625 4.078125 37.140625 8.101562 21.117188 C 8.5 19.34375 10.101562 18 12 18 L 17.078125 18 C 16.382812 16.820312 16 15.460938 16 14 C 16 9.578125 19.578125 6 24 6 M 24 10 C 21.789062 10 20 11.789062 20 14 C 20 16.210938 21.789062 18 24 18 C 26.210938 18 28 16.210938 28 14 C 28 11.789062 26.210938 10 24 10 Z M 24 10 "/>
</g>
</svg>
