<?xml version="1.0" encoding="utf-8"?>
<!-- Generator: Adobe Illustrator 17.0.0, SVG Export Plug-In . SVG Version: 6.00 Build 0)  -->
<!DOCTYPE svg PUBLIC "-//W3C//DTD SVG 1.1//EN" "http://www.w3.org/Graphics/SVG/1.1/DTD/svg11.dtd">
<svg version="1.1" xmlns="http://www.w3.org/2000/svg" xmlns:xlink="http://www.w3.org/1999/xlink" x="0px" y="0px" width="512px"
	 height="512px" viewBox="0 0 512 512" enable-background="new 0 0 512 512" xml:space="preserve">
<g id="Ebene_4">
</g>
<g id="Ebene_2">
</g>
<g id="Ebene_3">
</g>
<g id="Ebene_5">
</g>
<g id="Ebene_1">
	<g>
		<defs>
			<path id="SVGID_40_" d="M512,79.974c0-44.183-35.817-80-80-80H80c-44.183,0-80,35.817-80,80v352c0,44.183,35.817,80,80,80h352
				c44.183,0,80-35.817,80-80V79.974z"/>
		</defs>
		<radialGradient id="SVGID_2_" cx="256" cy="255.9742" r="256" gradientUnits="userSpaceOnUse">
			<stop  offset="0.0099" style="stop-color:#2C4A79"/>
			<stop  offset="0.5961" style="stop-color:#002E5F"/>
		</radialGradient>
		<use xlink:href="#SVGID_40_"  overflow="visible" fill-rule="evenodd" clip-rule="evenodd" fill="url(#SVGID_2_)"/>
		<clipPath id="SVGID_4_">
			<use xlink:href="#SVGID_40_"  overflow="visible"/>
		</clipPath>
		<radialGradient id="SVGID_5_" cx="256" cy="255.9742" r="256" gradientUnits="userSpaceOnUse">
			<stop  offset="0.0099" style="stop-color:#2C4A79"/>
			<stop  offset="0.5961" style="stop-color:#002E5F"/>
		</radialGradient>
		<path clip-path="url(#SVGID_4_)" fill-rule="evenodd" clip-rule="evenodd" fill="url(#SVGID_5_)" d="M512,79.974
			c0-44.183-35.817-80-80-80H80c-44.183,0-80,35.817-80,80v352c0,44.183,35.817,80,80,80h352c44.183,0,80-35.817,80-80V79.974z"/>
		<g opacity="0.5" clip-path="url(#SVGID_4_)">
			<path fill-rule="evenodd" clip-rule="evenodd" fill="#1C3553" d="M511.853,80.474c0-44.183-35.817-80-80-80h-352
				c-44.183,0-80,35.817-80,80v352c0,44.183,35.817,80,80,80h352c44.183,0,80-35.817,80-80V80.474z"/>
		</g>
	</g>
	<path fill-rule="evenodd" clip-rule="evenodd" fill="none" d="M511.788,81.805c0-44.183-35.817-80-80-80h-352
		c-44.183,0-80,35.817-80,80v352c0,44.183,35.817,80,80,80h352c44.183,0,80-35.817,80-80V81.805z"/>
	<g opacity="0.5">
		<path fill-rule="evenodd" clip-rule="evenodd" fill="none" d="M511.641,82.305c0-44.183-35.817-80-80-80h-352
			c-44.183,0-80,35.817-80,80v352c0,44.183,35.817,80,80,80h352c44.183,0,80-35.817,80-80V82.305z"/>
	</g>
	<path fill-rule="evenodd" clip-rule="evenodd" fill="none" d="M511.788,81.805c0-44.183-35.817-80-80-80h-352
		c-44.183,0-80,35.817-80,80v352c0,44.183,35.817,80,80,80h352c44.183,0,80-35.817,80-80V81.805z"/>
	<g>
		<path fill="#FF8B00" d="M346.154,219.113c-1.273,0.953-2.07,2.143-2.381,3.573c-0.32,1.428-0.64,2.781-0.953,4.047
			c-0.32,1.271-0.951,2.306-1.905,3.094c-0.951,0.797-2.699,0.715-5.237-0.238c0.633,0.96,1.265,2.396,1.904,4.301
			c0,2.231-0.082,4.455-0.238,6.68c-0.163,2.233,0.075,4.301,0.715,6.205c1.904,6.368,4.047,12.737,6.426,19.105
			c2.381,6.368,4.524,12.729,6.429,19.09c1.585,5.415,3.489,10.585,5.714,15.52c2.218,4.938,4.597,9.789,7.141,14.558
			c1.904,3.184,3.646,6.368,5.239,9.553c1.585,3.184,3.169,6.525,4.76,10.023c0.633,0.64,0.953,1.28,0.953,1.911
			c-1.593,2.871-1.666,5.179-0.239,6.927c1.428,1.748,2.774,3.414,4.047,5.007c2.536,3.504,4.999,6.77,7.38,9.791
			c2.381,3.027,4.524,6.285,6.429,9.782c0.631,0.96,0.951,2.231,0.951,3.824c0,1.591,0,3.184,0,4.775
			c0,0.64-0.081,1.355-0.238,2.152c-0.163,0.794,0.075,1.509,0.715,2.143c4.76,4.775,9.36,9.634,13.808,14.566
			c4.44,4.932,10.474,8.191,18.092,9.782c-2.544,4.129-6.033,5.55-10.474,4.286c-4.449-1.264-9.046-2.3-13.808-3.094
			c-4.762-0.797-9.366-1.988-13.808-3.579c-4.129-1.593-8.095-3.498-11.904-5.722c-3.809-2.224-7.461-4.923-10.95-8.108
			c-15.876-14.3-29.684-31.151-41.425-50.537c-5.713-8.578-11.032-17.394-15.949-26.457c-4.926-9.061-10.081-18.04-15.474-26.945
			c-0.64-0.633-1.512-1.348-2.619-2.143c-1.117-0.79-1.986-1.029-2.62-0.715c-2.224,1.273-4.367,2.626-6.426,4.054
			c-2.07,1.43-4.21,2.94-6.429,4.524c3.169,1.913,3.966,3.586,2.381,5.013c-1.593,1.43-3.177,2.94-4.762,4.524
			c-2.544,2.544-4.998,4.777-7.38,6.682c-2.381,1.905-4.844,4.129-7.38,6.673c-1.593,1.271-2.939,2.626-4.047,4.054
			c-1.117,1.428-2.463,2.939-4.048,4.524l0.477,0.474c0,0.32,0.157,0.64,0.477,0.953c-1.593,2.231-3.096,4.217-4.524,5.967
			c-1.428,1.748-2.939,3.414-4.524,4.999c-3.496,4.138-6.427,8.511-8.808,13.117c-2.381,4.612-6.115,8.183-11.189,10.727
			c-1.273,0.64-2.224,1.593-2.858,2.864c-0.64,1.273-1.428,2.701-2.381,4.286c-0.951,1.591-1.986,3.021-3.094,4.292
			c-1.116,1.273-2.939,1.904-5.475,1.904c-0.953-0.311-2.224,0.32-3.809,1.904c-3.498,4.458-6.987,8.831-10.476,13.117
			c-3.496,4.292-5.557,9.619-6.19,15.973c-0.32,2.864-1.114,5.72-2.379,8.578c-1.267,2.858-2.218,5.713-2.858,8.571
			c-0.314,1.265-0.395,2.536-0.239,3.809c0.163,1.265,0.239,3.013,0.239,5.237c-0.953-0.32-2.218-0.401-3.809-0.238
			c-1.584,0.157-2.858-0.082-3.809-0.715c-4.442-2.856-8.013-6.272-10.714-10.236c-2.693-3.975-4.202-8.653-4.522-14.055
			c-0.633-12.074,0.951-23.516,4.76-34.326c3.809-10.802,8.415-21.291,13.808-31.469c2.544-4.763,5.001-9.45,7.38-14.062
			c2.381-4.612,5.157-8.979,8.333-13.115c9.836-13.035,19.679-25.824,29.521-38.383c9.834-12.55,19.833-25.184,29.996-37.906
			c1.904-2.544,3.884-4.842,5.952-6.91c2.061-2.07,4.047-4.213,5.952-6.437c2.538-2.224,3.169-5.089,1.904-8.585
			c-1.271-2.858-2.381-5.795-3.333-8.816c-0.953-3.021-1.904-6.115-2.858-9.299c-1.591-5.402-3.257-10.965-4.998-16.688
			c-1.748-5.72-3.414-11.442-4.999-17.162c-2.858-10.171-5.716-20.267-8.571-30.281c-2.858-10.012-5.877-20.102-9.046-30.27
			c-0.64-1.905-0.878-3.416-0.715-4.53c0.157-1.11,1.346-2.3,3.571-3.579c2.538-1.265,4.917-2.381,7.142-3.332
			c2.218-0.953,4.919-1.117,8.095-0.477c2.218,0.32,4.442-0.075,6.667-1.19c2.216-1.117,4.597-1.988,7.142-2.628
			c0.953-0.311,1.904-0.631,2.858-0.951c0.951-0.313,1.739-0.157,2.379,0.477c3.489,2.544,7.217,3.571,11.191,3.094
			c3.964-0.477,7.691-0.075,11.189,1.198c2.856,0.64,5.952,2.939,9.284,6.912c3.333,3.972,5.155,7.395,5.475,10.251
			c0.633,7.313,1.265,14.545,1.904,21.695c0.633,7.157,1.265,14.388,1.904,21.695c0.314,2.545,0.79,5.08,1.43,7.625
			c0.631,2.544,1.265,5.409,1.904,8.587c0.631-0.64,1.347-1.035,2.141-1.198c0.79-0.157,1.503-0.55,2.143-1.189l28.57-27.179
			c6.665-6.04,13.332-12.073,19.996-18.115c6.667-6.04,13.332-12.073,19.999-18.115c6.978-5.4,13.881-10.809,20.712-16.211
			c6.823-5.4,13.727-10.809,20.711-16.211c3.491-2.544,7.062-4.926,10.714-7.15c3.646-2.224,7.856-2.864,12.617-1.911
			c1.265,0.342,2.381,0.603,3.334,0.773c0.951,0.178,1.904,0.782,2.856,1.808c-0.951,0.685-1.986,1.288-3.094,1.801
			c-1.117,0.52-2.306,1.123-3.571,1.808v1.428c1.265,0,2.379,0.082,3.332,0.238c0.951,0.163,2.061,0.238,3.332,0.238
			c2.538,0,5.239,0.082,8.095,0.238c2.858,0.163,5.237,1.51,7.142,4.047c0.633,0.638,1.026,1.428,1.192,2.379
			c0.157,0.953,0.55,1.75,1.19,2.381c0.313,0.64,0.477,1.19,0.477,1.666c0,0.477,0.157,0.878,0.477,1.192
			c1.905,1.591,3.809,3.257,5.714,4.999c1.904,1.748,3.964,3.259,6.188,4.524c4.122,1.905,4.919,4.604,2.381,8.093
			c0.633,1.273,1.264,2.381,1.904,3.334c0.633,0.951,1.265,1.904,1.904,2.856c1.584,3.498,2.218,6.033,1.904,7.618
			c-0.32,1.593-2.068,3.655-5.237,6.19c-3.498,2.545-6.903,5.237-10.238,8.095c-3.332,2.856-6.746,5.713-10.236,8.571
			c-0.64,0.638-1.904,1.591-3.809,2.856c-3.498,1.593-6.83,2.939-9.999,4.047c-3.178,1.116-6.51,2.463-9.999,4.047
			c-2.544,1.591-4.926,3.176-7.142,4.76c-2.224,1.593-4.606,3.178-7.144,4.762c-2.544,1.591-4.999,3.021-7.38,4.286
			c-2.381,1.271-4.687,2.699-6.903,4.284c-3.498,2.858-6.83,5.879-9.999,9.048c-3.177,3.176-6.51,6.19-9.999,9.046
			c-1.273,1.273-2.62,2.306-4.048,3.096c-1.428,0.794-2.783,1.666-4.047,2.617c-4.76,4.129-9.448,8.095-14.047,11.904
			c-4.603,3.809-9.284,7.781-14.044,11.904c-6.033,5.08-12.544,7.618-19.522,7.618c-0.64-0.314-1.116-0.238-1.428,0.239
			c-0.32,0.477-0.796,0.878-1.43,1.189c0,0.32,0.075,0.558,0.238,0.715c0.157,0.163,0.238,0.401,0.238,0.713H346.154z"/>
	</g>
	<g>
		<g>
			<path fill="#FFFFFF" d="M42.81,247.28c0-7.135-0.412-13.037-0.823-15.37H65.18c0.412,2.882,0.55,7.96,0.55,11.94h0.274
				c1.373-3.843,6.177-13.587,20.175-13.587c7.685,0,15.234,2.333,19.625,11.94c4.667-7.412,11.254-11.94,21.41-11.94
				c11.527,0,20.997,6.45,20.997,21.821v51.329h-24.704v-42.957c0-6.862-2.058-10.155-6.999-10.155
				c-7.137,0-8.647,6.45-8.647,11.803v41.309H83.159v-42.957c0-6.862-2.058-10.155-6.725-10.155c-6.175,0-8.92,6.45-8.92,13.862
				v39.251H42.81V247.28z"/>
			<path fill="#FFFFFF" d="M195.689,230.262c26.076,0,35.546,17.979,35.546,37.467c0,19.487-9.47,37.329-35.546,37.329
				c-26.077,0-35.546-17.842-35.546-37.329C160.144,248.241,169.613,230.262,195.689,230.262z M195.689,288.315
				c8.372,0,9.744-10.155,9.744-20.586s-1.372-20.724-9.744-20.724c-8.372,0-9.745,10.293-9.745,20.724
				S187.318,288.315,195.689,288.315z"/>
			<path fill="#FFFFFF" d="M243.169,200.48h24.704v29.095c0,5.352-0.275,9.744-0.548,12.764h0.274
				c5.078-8.235,10.293-12.077,19.763-12.077c17.842,0,25.527,18.939,25.527,35.682c0,21.684-7.96,38.565-26.762,38.565
				c-7.412,0-13.725-3.02-18.94-12.627h-0.274c0,3.843-0.412,7.685-0.687,11.528H242.62c0.275-4.255,0.548-8.372,0.548-12.627
				V200.48z M277.479,247.006c-6.175,0-9.607,8.097-9.607,20.037c0,11.94,3.432,20.174,9.607,20.174
				c7.274,0,9.607-8.234,9.607-20.174C287.086,255.103,284.753,247.006,277.479,247.006z"/>
			<path fill="#FFFFFF" d="M325.507,200.48h24.704v20.587h-24.704V200.48z M325.507,231.909h24.704v71.503h-24.704V231.909z"/>
			<path fill="#FFFFFF" d="M366.127,200.48h24.704v102.931h-24.704V200.48z"/>
			<path fill="#FFFFFF" d="M426.92,274.453c0.687,11.528,8.647,14.96,17.842,14.96c6.725,0,14.822-3.02,20.86-5.627l0.55,17.155
				c-5.902,1.922-14.96,3.98-24.979,4.117c-28.957,0.137-37.329-19.35-37.329-37.741c0-19.627,11.665-37.055,33.212-37.055
				c22.37,0,32.937,17.704,32.937,37.192v6.999H426.92z M447.507,261.553v-2.058c0-9.607-2.607-14.135-10.019-14.135
				c-7,0-11.117,6.312-11.117,16.194H447.507z"/>
		</g>
	</g>
</g>
</svg>
