<?xml version="1.0" encoding="UTF-8"?>
<!DOCTYPE svg PUBLIC "-//W3C//DTD SVG 1.1//EN" "http://www.w3.org/Graphics/SVG/1.1/DTD/svg11.dtd">
<svg version="1.1" xmlns="http://www.w3.org/2000/svg" xmlns:xlink="http://www.w3.org/1999/xlink" x="0" y="0" width="74" height="74" viewBox="0, 0, 74, 74">
  <defs>
    <clipPath id="Clip_1">
      <path d="M1.5,-0.5 L72.5,-0.5 L72.5,74.5 L1.5,74.5 z M37,3.5 C18.498,3.5 3.5,18.498 3.5,37 C3.5,55.502 18.498,70.5 37,70.5 C55.502,70.5 70.5,55.502 70.5,37 C70.5,18.498 55.502,3.5 37,3.5 z"/>
    </clipPath>
    <filter id="Shadow_2">
      <feGaussianBlur in="SourceAlpha" stdDeviation="0.5"/>
      <feOffset dx="0" dy="2" result="offsetblur"/>
      <feFlood flood-color="#000000"/>
      <feComposite in2="offsetblur" operator="in"/>
    </filter>
    <clipPath id="Clip_3">
      <path d="M0.5,-0.5 L74.5,-0.5 L74.5,75.5 L0.5,75.5 z M37.5,4.5 C55.725,4.5 70.5,19.275 70.5,37.5 C70.5,55.725 55.725,70.5 37.5,70.5 C19.275,70.5 4.5,55.725 4.5,37.5 C4.5,19.275 19.275,4.5 37.5,4.5 z M37.5,3.5 C18.722,3.5 3.5,18.722 3.5,37.5 C3.5,56.278 18.722,71.5 37.5,71.5 C56.278,71.5 71.5,56.278 71.5,37.5 C71.5,18.722 56.278,3.5 37.5,3.5 z"/>
    </clipPath>
    <filter id="Shadow_4">
      <feGaussianBlur in="SourceAlpha" stdDeviation="1"/>
      <feOffset dx="0" dy="1" result="offsetblur"/>
      <feFlood flood-color="#6E6E6E"/>
      <feComposite in2="offsetblur" operator="in"/>
    </filter>
  </defs>
  <g id="Icon">
    <g>
      <g>
        <path d="M37,3.5 C55.502,3.5 70.5,18.498 70.5,37 C70.5,55.502 55.502,70.5 37,70.5 C18.498,70.5 3.5,55.502 3.5,37 C3.5,18.498 18.498,3.5 37,3.5 z" clip-path="url(#Clip_1)" filter="url(#Shadow_2)" fill="rgba(0,0,0,0.75)"/>
        <path d="M37,70.5 C18.498,70.5 3.5,55.502 3.5,37 C3.5,18.498 18.498,3.5 37,3.5 C55.502,3.5 70.5,18.498 70.5,37 C70.5,55.502 55.502,70.5 37,70.5 z" fill="#F3F3F3"/>
      </g>
      <path d="M49.904,47.791 L68.632,47.816 C67.111,52.802 64.221,56.934 60.585,60.571 C54.574,59.02 50.685,53.773 49.904,47.791 L49.904,47.791 z" fill="#2D5682"/>
      <path d="M61.525,33.033 C61.524,33.046 61.522,33.058 61.522,33.071 L70.222,33.055 C70.556,34.692 70.318,33.396 70.5,36.997 C70.224,42.471 70.556,39.302 69.097,46.455 L47.301,46.422 C47.128,46.429 46.954,46.434 46.779,46.434 C46.605,46.434 46.432,46.429 46.26,46.422 L45.31,46.422 L45.31,46.36 C38.254,45.666 32.63,40.038 32.035,33.033 L61.525,33.033 z" fill="#2D5682"/>
      <path d="M44.109,18.228 C44.108,18.241 44.106,18.252 44.104,18.267 L64.578,18.246 C67.892,22.322 68.919,26.67 69.933,31.637 L29.885,31.618 C29.711,31.623 29.538,31.628 29.362,31.628 C29.189,31.628 29.015,31.623 28.843,31.618 L27.893,31.618 L27.893,31.554 C20.838,30.862 15.214,25.233 14.619,18.228 L44.109,18.228 z" fill="#2D5682"/>
      <path d="M37.067,3.5 C47.24,3.775 57.786,8.187 63.641,16.858 L12.562,16.858 C12.389,16.864 12.215,16.869 12.04,16.868 C11.866,16.869 11.693,16.865 11.521,16.859 L10.571,16.858 L10.571,16.796 L10.416,16.774 C16.357,8.001 26.747,4.014 36.931,3.5 L37.067,3.5 z" fill="#2D5682"/>
      <g>
        <path d="M37.5,3.5 C56.278,3.5 71.5,18.722 71.5,37.5 C71.5,56.278 56.278,71.5 37.5,71.5 C18.722,71.5 3.5,56.278 3.5,37.5 C3.5,18.722 18.722,3.5 37.5,3.5 z M37.5,4.5 C19.275,4.5 4.5,19.275 4.5,37.5 C4.5,55.725 19.275,70.5 37.5,70.5 C55.725,70.5 70.5,55.725 70.5,37.5 C70.5,19.275 55.725,4.5 37.5,4.5 z" clip-path="url(#Clip_3)" filter="url(#Shadow_4)" fill="rgba(0,0,0,0.75)"/>
        <path d="M37.5,71 C18.998,71 4,56.002 4,37.5 C4,18.998 18.998,4 37.5,4 C56.002,4 71,18.998 71,37.5 C71,56.002 56.002,71 37.5,71 z" fill-opacity="0" stroke="#898989" stroke-width="1"/>
      </g>
    </g>
  </g>
  <g id="Preparation" display="none">
    <path d="M46.275,43.575 L72.502,43.609 C72.498,43.656 72.501,50.863 72.5,54.398 L58.578,54.367 C58.439,54.373 58.297,54.375 58.157,54.375 C58.017,54.375 57.878,54.373 57.738,54.368 L56.972,54.367 L56.972,54.317 C51.285,53.758 46.754,49.222 46.275,43.575 z M55.641,31.681 L31.874,31.681 C32.353,37.326 36.886,41.862 42.572,42.421 L42.572,42.472 L43.338,42.472 C43.476,42.477 43.616,42.481 43.756,42.481 C43.897,42.481 44.037,42.477 44.177,42.472 L72.502,42.514 L72.502,31.681 L55.639,31.711 C55.639,31.701 55.64,31.691 55.641,31.681 z M41.604,19.748 L17.837,19.748 C18.316,25.394 22.849,29.93 28.535,30.489 L28.535,30.54 L29.301,30.54 C29.439,30.544 29.579,30.548 29.719,30.548 C29.861,30.548 30,30.544 30.14,30.54 L72.502,30.56 L72.502,19.748 L41.601,19.78 C41.602,19.768 41.603,19.758 41.604,19.748 z M27.643,7.852 L3.875,7.852 C4.354,13.498 8.887,18.035 14.574,18.594 L14.574,18.644 L15.339,18.644 C15.478,18.65 15.618,18.652 15.758,18.652 C15.899,18.652 16.039,18.648 16.179,18.644 L72.502,18.644 L72.502,7.852 L27.639,7.884 L27.643,7.852 z" fill="#2D5682"/>
    <path d="M67.875,2.875 L67.875,66.875 L3.875,66.875 L3.875,2.875 L67.875,2.875 z M35.875,7.875 C20.963,7.875 8.875,19.963 8.875,34.875 C8.875,49.787 20.963,61.875 35.875,61.875 C50.787,61.875 62.875,49.787 62.875,34.875 C62.875,19.963 50.787,7.875 35.875,7.875 z" fill="#000000"/>
  </g>
</svg>
