<?xml version="1.0" encoding="UTF-8"?>
<!DOCTYPE svg PUBLIC "-//W3C//DTD SVG 1.1//EN" "http://www.w3.org/Graphics/SVG/1.1/DTD/svg11.dtd">
<svg version="1.1" xmlns="http://www.w3.org/2000/svg" xmlns:xlink="http://www.w3.org/1999/xlink" x="0" y="0" width="24" height="24" viewBox="0, 0, 24, 24">
  <defs>
    <clipPath id="Clip_1">
      <path d="M22,5.125 C22,3.399 20.601,2 18.875,2 L5.125,2 C3.399,2 2,3.399 2,5.125 L2,18.875 C2,20.601 3.399,22 5.125,22 L18.875,22 C20.601,22 22,20.601 22,18.875 L22,5.125 z"/>
    </clipPath>
  </defs>
  <g id="Ebene_1">
    <g>
      <path d="M22,5.125 C22,3.399 20.601,2 18.875,2 L5.125,2 C3.399,2 2,3.399 2,5.125 L2,18.875 C2,20.601 3.399,22 5.125,22 L18.875,22 C20.601,22 22,20.601 22,18.875 L22,5.125 z" fill="#2D5682" id="SVGID_40_"/>
      <path d="M18.875,2 C20.601,2 22,3.399 22,5.125 L22,18.875 C22,20.601 20.601,22 18.875,22 L5.125,22 C3.399,22 2,20.601 2,18.875 L2,5.125 C2,3.399 3.399,2 5.125,2 L18.875,2 z" fill="#2D5682"/>
      <g clip-path="url(#Clip_1)" opacity="0.5">
        <path d="M21.994,5.145 C21.994,3.419 20.595,2.02 18.869,2.02 L5.119,2.02 C3.393,2.02 1.994,3.419 1.994,5.145 L1.994,18.895 C1.994,20.62 3.393,22.02 5.119,22.02 L18.869,22.02 C20.595,22.02 21.994,20.62 21.994,18.895 L21.994,5.145 z" fill="#2D5682"/>
      </g>
    </g>
    <path d="M15.522,10.521 C15.472,10.558 15.441,10.605 15.429,10.661 C15.416,10.716 15.404,10.769 15.391,10.819 C15.379,10.868 15.354,10.909 15.317,10.94 C15.28,10.971 15.212,10.967 15.112,10.93 C15.137,10.968 15.162,11.024 15.187,11.098 C15.187,11.185 15.184,11.272 15.178,11.359 C15.171,11.446 15.18,11.527 15.205,11.602 C15.28,11.85 15.364,12.099 15.456,12.348 C15.549,12.597 15.633,12.845 15.708,13.094 C15.77,13.305 15.844,13.507 15.931,13.7 C16.017,13.893 16.11,14.082 16.21,14.269 C16.284,14.393 16.352,14.517 16.414,14.642 C16.476,14.766 16.538,14.897 16.6,15.033 C16.625,15.058 16.638,15.083 16.638,15.108 C16.575,15.22 16.572,15.31 16.628,15.378 C16.684,15.447 16.737,15.512 16.786,15.574 C16.885,15.711 16.982,15.838 17.075,15.956 C17.168,16.075 17.251,16.202 17.326,16.339 C17.35,16.376 17.363,16.426 17.363,16.488 C17.363,16.55 17.363,16.612 17.363,16.674 C17.363,16.699 17.36,16.727 17.354,16.759 C17.347,16.79 17.356,16.817 17.381,16.842 C17.567,17.029 17.747,17.219 17.921,17.411 C18.094,17.604 18.33,17.731 18.628,17.793 C18.528,17.955 18.392,18.01 18.218,17.961 C18.045,17.911 17.865,17.871 17.679,17.84 C17.493,17.809 17.313,17.762 17.14,17.7 C16.978,17.638 16.823,17.563 16.675,17.477 C16.526,17.39 16.383,17.284 16.247,17.16 C15.627,16.601 15.087,15.943 14.629,15.186 C14.406,14.851 14.198,14.506 14.006,14.152 C13.813,13.798 13.612,13.448 13.401,13.1 C13.376,13.075 13.342,13.047 13.299,13.016 C13.255,12.985 13.221,12.976 13.197,12.988 C13.11,13.038 13.026,13.091 12.946,13.146 C12.865,13.202 12.781,13.261 12.695,13.323 C12.818,13.398 12.849,13.463 12.788,13.519 C12.725,13.575 12.663,13.634 12.602,13.696 C12.502,13.795 12.406,13.882 12.313,13.957 C12.22,14.031 12.124,14.118 12.025,14.217 C11.963,14.267 11.91,14.32 11.867,14.376 C11.823,14.432 11.771,14.491 11.709,14.552 L11.727,14.571 C11.727,14.584 11.734,14.596 11.746,14.608 C11.684,14.695 11.625,14.773 11.569,14.841 C11.514,14.91 11.455,14.975 11.393,15.037 C11.256,15.198 11.142,15.369 11.049,15.549 C10.956,15.729 10.81,15.869 10.611,15.968 C10.562,15.993 10.525,16.03 10.5,16.08 C10.475,16.13 10.444,16.185 10.407,16.247 C10.37,16.309 10.329,16.365 10.286,16.415 C10.242,16.465 10.171,16.489 10.072,16.489 C10.035,16.477 9.985,16.502 9.923,16.564 C9.787,16.738 9.65,16.909 9.514,17.076 C9.378,17.244 9.297,17.452 9.272,17.7 C9.26,17.812 9.229,17.923 9.179,18.035 C9.13,18.147 9.093,18.258 9.068,18.37 C9.055,18.419 9.052,18.469 9.058,18.519 C9.065,18.568 9.068,18.636 9.068,18.723 C9.03,18.711 8.981,18.708 8.919,18.714 C8.857,18.72 8.807,18.711 8.77,18.686 C8.597,18.574 8.457,18.441 8.352,18.286 C8.246,18.131 8.187,17.948 8.175,17.737 C8.15,17.266 8.212,16.819 8.361,16.396 C8.51,15.974 8.69,15.565 8.9,15.167 C9,14.981 9.096,14.798 9.189,14.618 C9.282,14.438 9.39,14.267 9.514,14.105 C9.898,13.596 10.283,13.097 10.667,12.606 C11.051,12.116 11.442,11.622 11.839,11.125 C11.913,11.026 11.991,10.936 12.071,10.855 C12.152,10.775 12.23,10.691 12.304,10.604 C12.403,10.517 12.428,10.405 12.378,10.269 C12.329,10.157 12.285,10.042 12.248,9.924 C12.211,9.806 12.174,9.685 12.136,9.561 C12.074,9.35 12.009,9.133 11.941,8.909 C11.873,8.686 11.808,8.462 11.746,8.239 C11.634,7.842 11.523,7.447 11.411,7.056 C11.3,6.665 11.182,6.271 11.058,5.874 C11.033,5.799 11.024,5.74 11.03,5.697 C11.036,5.653 11.082,5.607 11.169,5.557 C11.269,5.507 11.361,5.464 11.448,5.427 C11.535,5.389 11.641,5.383 11.765,5.408 C11.851,5.42 11.938,5.405 12.025,5.362 C12.112,5.318 12.205,5.284 12.304,5.259 C12.341,5.247 12.378,5.234 12.416,5.222 C12.453,5.209 12.484,5.216 12.509,5.24 C12.645,5.34 12.79,5.38 12.946,5.361 C13.101,5.343 13.246,5.358 13.383,5.408 C13.494,5.433 13.615,5.523 13.745,5.678 C13.876,5.833 13.947,5.967 13.959,6.078 C13.984,6.364 14.009,6.647 14.034,6.926 C14.058,7.205 14.083,7.488 14.108,7.773 C14.12,7.873 14.139,7.972 14.164,8.071 C14.189,8.171 14.213,8.282 14.238,8.407 C14.263,8.382 14.291,8.366 14.322,8.36 C14.353,8.354 14.381,8.338 14.406,8.313 L15.522,7.252 C15.782,7.016 16.042,6.78 16.303,6.544 C16.563,6.308 16.824,6.072 17.084,5.836 C17.357,5.626 17.626,5.414 17.893,5.203 C18.16,4.992 18.429,4.781 18.702,4.57 C18.838,4.471 18.978,4.378 19.121,4.291 C19.263,4.204 19.427,4.179 19.613,4.216 C19.663,4.229 19.706,4.24 19.744,4.246 C19.781,4.253 19.818,4.277 19.855,4.317 C19.818,4.344 19.778,4.367 19.734,4.387 C19.691,4.408 19.644,4.431 19.595,4.458 L19.595,4.514 C19.644,4.514 19.688,4.517 19.725,4.523 C19.762,4.529 19.806,4.532 19.855,4.532 C19.954,4.532 20.06,4.535 20.171,4.542 C20.283,4.548 20.376,4.6 20.45,4.7 C20.475,4.725 20.49,4.755 20.497,4.793 C20.503,4.83 20.518,4.861 20.543,4.886 C20.556,4.911 20.562,4.932 20.562,4.951 C20.562,4.969 20.568,4.985 20.581,4.997 C20.655,5.059 20.729,5.124 20.804,5.192 C20.878,5.261 20.959,5.32 21.046,5.369 C21.207,5.444 21.238,5.549 21.139,5.685 C21.163,5.735 21.188,5.778 21.213,5.816 C21.238,5.853 21.262,5.89 21.287,5.927 C21.349,6.064 21.374,6.163 21.362,6.225 C21.349,6.287 21.281,6.367 21.157,6.466 C21.021,6.566 20.888,6.671 20.757,6.783 C20.627,6.894 20.494,7.006 20.357,7.117 C20.332,7.142 20.283,7.18 20.209,7.229 C20.072,7.291 19.942,7.344 19.818,7.387 C19.694,7.431 19.564,7.483 19.427,7.545 C19.328,7.607 19.235,7.669 19.148,7.731 C19.062,7.793 18.969,7.855 18.869,7.917 C18.77,7.979 18.674,8.035 18.581,8.085 C18.488,8.134 18.398,8.19 18.311,8.252 C18.175,8.364 18.045,8.482 17.921,8.605 C17.797,8.729 17.667,8.847 17.53,8.959 C17.481,9.008 17.428,9.049 17.372,9.08 C17.316,9.111 17.263,9.145 17.214,9.182 C17.028,9.343 16.845,9.498 16.665,9.647 C16.486,9.796 16.303,9.951 16.117,10.112 C15.881,10.31 15.627,10.409 15.354,10.409 C15.329,10.397 15.311,10.4 15.298,10.419 C15.286,10.437 15.267,10.453 15.243,10.465 C15.243,10.478 15.245,10.487 15.252,10.493 C15.258,10.5 15.261,10.509 15.261,10.521 L15.522,10.521 z" fill="#F8AE18"/>
    <g>
      <path d="M3.672,11.66 C3.672,11.382 3.656,11.151 3.64,11.06 L4.546,11.06 C4.562,11.173 4.568,11.371 4.568,11.526 L4.578,11.526 C4.632,11.376 4.82,10.996 5.366,10.996 C5.667,10.996 5.961,11.087 6.133,11.462 C6.315,11.173 6.573,10.996 6.969,10.996 C7.42,10.996 7.789,11.248 7.789,11.848 L7.789,13.853 L6.824,13.853 L6.824,12.175 C6.824,11.907 6.744,11.778 6.551,11.778 C6.272,11.778 6.213,12.03 6.213,12.239 L6.213,13.853 L5.248,13.853 L5.248,12.175 C5.248,11.907 5.168,11.778 4.986,11.778 C4.744,11.778 4.637,12.03 4.637,12.32 L4.637,13.853 L3.672,13.853 L3.672,11.66 z" fill="#FFFFFF"/>
      <path d="M9.644,10.996 C10.663,10.996 11.033,11.698 11.033,12.459 C11.033,13.22 10.663,13.917 9.644,13.917 C8.625,13.917 8.256,13.22 8.256,12.459 C8.256,11.698 8.626,10.996 9.644,10.996 z M9.644,13.263 C9.971,13.263 10.025,12.867 10.025,12.459 C10.025,12.052 9.971,11.65 9.644,11.65 C9.317,11.65 9.263,12.052 9.263,12.459 C9.263,12.867 9.317,13.263 9.644,13.263 z" fill="#FFFFFF"/>
      <path d="M11.499,9.832 L12.464,9.832 L12.464,10.969 C12.464,11.178 12.453,11.349 12.442,11.467 L12.453,11.467 C12.651,11.146 12.855,10.996 13.225,10.996 C13.922,10.996 14.222,11.735 14.222,12.389 C14.222,13.236 13.911,13.896 13.177,13.896 C12.887,13.896 12.641,13.778 12.437,13.403 L12.426,13.403 C12.426,13.553 12.41,13.703 12.399,13.853 L11.477,13.853 C11.488,13.687 11.499,13.526 11.499,13.36 L11.499,9.832 z M12.839,11.65 C12.598,11.65 12.464,11.966 12.464,12.432 C12.464,12.899 12.598,13.22 12.839,13.22 C13.123,13.22 13.214,12.899 13.214,12.432 C13.214,11.966 13.123,11.65 12.839,11.65 z" fill="#FFFFFF"/>
      <path d="M14.715,9.832 L15.68,9.832 L15.68,10.636 L14.715,10.636 L14.715,9.832 z M14.715,11.06 L15.68,11.06 L15.68,13.853 L14.715,13.853 L14.715,11.06 z" fill="#FFFFFF"/>
      <path d="M16.302,9.832 L17.267,9.832 L17.267,13.853 L16.302,13.853 L16.302,9.832 z" fill="#FFFFFF"/>
      <path d="M18.677,12.722 C18.703,13.172 19.014,13.306 19.374,13.306 C19.636,13.306 19.953,13.188 20.188,13.086 L20.21,13.757 C19.979,13.832 19.625,13.912 19.234,13.917 C18.103,13.923 17.776,13.161 17.776,12.443 C17.776,11.676 18.232,10.996 19.073,10.996 C19.947,10.996 20.36,11.687 20.36,12.448 L20.36,12.722 L18.677,12.722 z M19.481,12.218 L19.481,12.138 C19.481,11.762 19.379,11.585 19.089,11.585 C18.816,11.585 18.655,11.832 18.655,12.218 L19.481,12.218 z" fill="#FFFFFF"/>
    </g>
  </g>
</svg>
