<?xml version="1.0" encoding="UTF-8"?>
<!DOCTYPE svg PUBLIC "-//W3C//DTD SVG 1.1//EN" "http://www.w3.org/Graphics/SVG/1.1/DTD/svg11.dtd">
<svg version="1.1" xmlns="http://www.w3.org/2000/svg" xmlns:xlink="http://www.w3.org/1999/xlink" x="0" y="0" width="512" height="512" viewBox="0, 0, 512, 512">
  <defs>
    <clipPath id="Clip_1">
      <path d="M512,79.974 C512,35.791 476.183,-0.026 432,-0.026 L80,-0.026 C35.817,-0.026 0,35.791 0,79.974 L0,431.974 C0,476.157 35.817,511.974 80,511.974 L432,511.974 C476.183,511.974 512,476.157 512,431.974 L512,79.974 z"/>
    </clipPath>
  </defs>
  <g id="Ebene_1">
    <g>
      <path d="M512,79.974 C512,35.791 476.183,-0.026 432,-0.026 L80,-0.026 C35.817,-0.026 0,35.791 0,79.974 L0,431.974 C0,476.157 35.817,511.974 80,511.974 L432,511.974 C476.183,511.974 512,476.157 512,431.974 L512,79.974 z" fill="#2D5682" id="SVGID_40_"/>
      <path d="M432,-0.026 C476.183,-0.026 512,35.791 512,79.974 L512,431.974 C512,476.157 476.183,511.974 432,511.974 L80,511.974 C35.817,511.974 0,476.157 0,431.974 L0,79.974 C0,35.791 35.817,-0.026 80,-0.026 L432,-0.026 z" fill="#2D5682"/>
      <g clip-path="url(#Clip_1)" opacity="0.5">
        <path d="M511.853,80.474 C511.853,36.291 476.036,0.474 431.853,0.474 L79.853,0.474 C35.67,0.474 -0.147,36.291 -0.147,80.474 L-0.147,432.474 C-0.147,476.657 35.67,512.474 79.853,512.474 L431.853,512.474 C476.036,512.474 511.853,476.657 511.853,432.474 L511.853,80.474 z" fill="#2D5682"/>
      </g>
    </g>
    <path d="M346.154,218.113 C344.881,219.066 344.084,220.256 343.773,221.686 C343.453,223.114 343.133,224.467 342.82,225.733 C342.5,227.004 341.869,228.039 340.915,228.827 C339.964,229.624 338.216,229.542 335.678,228.589 C336.311,229.549 336.943,230.985 337.582,232.89 C337.582,235.121 337.5,237.345 337.344,239.57 C337.181,241.803 337.419,243.871 338.059,245.775 C339.963,252.143 342.106,258.512 344.485,264.88 C346.866,271.248 349.009,277.609 350.914,283.97 C352.499,289.385 354.403,294.555 356.628,299.49 C358.846,304.428 361.225,309.279 363.769,314.048 C365.673,317.232 367.415,320.416 369.008,323.601 C370.593,326.785 372.177,330.126 373.768,333.624 C374.401,334.264 374.721,334.904 374.721,335.535 C373.128,338.406 373.055,340.714 374.482,342.462 C375.91,344.21 377.256,345.876 378.529,347.469 C381.065,350.973 383.528,354.239 385.909,357.26 C388.29,360.287 390.433,363.545 392.338,367.042 C392.969,368.002 393.289,369.273 393.289,370.866 C393.289,372.457 393.289,374.05 393.289,375.641 C393.289,376.281 393.208,376.996 393.051,377.793 C392.888,378.587 393.126,379.302 393.766,379.936 C398.526,384.711 403.126,389.57 407.574,394.502 C412.014,399.434 418.048,402.693 425.666,404.284 C423.122,408.413 419.633,409.834 415.192,408.57 C410.743,407.306 406.146,406.27 401.384,405.476 C396.622,404.679 392.018,403.488 387.576,401.897 C383.447,400.304 379.481,398.399 375.672,396.175 C371.863,393.951 368.211,391.252 364.722,388.067 C348.846,373.767 335.038,356.916 323.297,337.53 C317.584,328.952 312.265,320.136 307.348,311.073 C302.422,302.012 297.267,293.033 291.874,284.128 C291.234,283.495 290.362,282.78 289.255,281.985 C288.138,281.195 287.269,280.956 286.635,281.27 C284.411,282.543 282.268,283.896 280.209,285.324 C278.139,286.754 275.999,288.264 273.78,289.848 C276.949,291.761 277.746,293.434 276.161,294.861 C274.568,296.291 272.984,297.801 271.399,299.385 C268.855,301.929 266.401,304.162 264.019,306.067 C261.638,307.972 259.175,310.196 256.639,312.74 C255.046,314.011 253.7,315.366 252.592,316.794 C251.475,318.222 250.129,319.733 248.544,321.318 L249.021,321.792 C249.021,322.112 249.178,322.432 249.498,322.745 C247.905,324.976 246.402,326.962 244.974,328.712 C243.546,330.46 242.035,332.126 240.45,333.711 C236.954,337.849 234.023,342.222 231.642,346.828 C229.261,351.44 225.527,355.011 220.453,357.555 C219.18,358.195 218.229,359.148 217.595,360.419 C216.955,361.692 216.167,363.12 215.214,364.705 C214.263,366.296 213.228,367.726 212.12,368.997 C211.004,370.27 209.181,370.901 206.645,370.901 C205.692,370.59 204.421,371.221 202.836,372.805 C199.338,377.263 195.849,381.636 192.36,385.922 C188.864,390.214 186.803,395.541 186.17,401.895 C185.85,404.759 185.056,407.615 183.791,410.473 C182.524,413.331 181.573,416.186 180.933,419.044 C180.619,420.309 180.538,421.58 180.694,422.853 C180.857,424.118 180.933,425.866 180.933,428.09 C179.98,427.77 178.715,427.689 177.124,427.852 C175.54,428.009 174.266,427.77 173.315,427.137 C168.873,424.281 165.302,420.865 162.601,416.901 C159.908,412.926 158.399,408.248 158.079,402.846 C157.446,390.772 159.03,379.33 162.839,368.52 C166.648,357.718 171.254,347.229 176.647,337.051 C179.191,332.288 181.648,327.601 184.027,322.989 C186.408,318.377 189.184,314.01 192.36,309.874 C202.196,296.839 212.039,284.05 221.881,271.491 C231.715,258.941 241.714,246.307 251.877,233.585 C253.781,231.041 255.761,228.743 257.829,226.675 C259.89,224.605 261.876,222.462 263.781,220.238 C266.319,218.014 266.95,215.149 265.685,211.653 C264.414,208.795 263.304,205.858 262.352,202.837 C261.399,199.816 260.448,196.722 259.494,193.538 C257.903,188.136 256.237,182.573 254.496,176.85 C252.748,171.13 251.082,165.408 249.497,159.688 C246.639,149.517 243.781,139.421 240.926,129.407 C238.068,119.395 235.049,109.305 231.88,99.137 C231.24,97.232 231.002,95.721 231.165,94.607 C231.322,93.497 232.511,92.307 234.736,91.028 C237.274,89.763 239.653,88.647 241.878,87.696 C244.096,86.743 246.797,86.579 249.973,87.219 C252.191,87.539 254.415,87.144 256.64,86.029 C258.856,84.912 261.237,84.041 263.782,83.401 C264.735,83.09 265.686,82.77 266.64,82.45 C267.591,82.137 268.379,82.293 269.019,82.927 C272.508,85.471 276.236,86.498 280.21,86.021 C284.174,85.544 287.901,85.946 291.399,87.219 C294.255,87.859 297.351,90.158 300.683,94.131 C304.016,98.103 305.838,101.526 306.158,104.382 C306.791,111.695 307.423,118.927 308.062,126.077 C308.695,133.234 309.327,140.465 309.966,147.772 C310.28,150.317 310.756,152.852 311.396,155.397 C312.027,157.941 312.661,160.806 313.3,163.984 C313.931,163.344 314.647,162.949 315.441,162.786 C316.231,162.629 316.944,162.236 317.584,161.597 L346.154,134.418 C352.819,128.378 359.486,122.345 366.15,116.303 C372.817,110.263 379.482,104.23 386.149,98.188 C393.127,92.788 400.03,87.379 406.861,81.977 C413.684,76.577 420.588,71.168 427.572,65.766 C431.063,63.222 434.634,60.84 438.286,58.616 C441.932,56.392 446.142,55.752 450.903,56.705 C452.168,57.047 453.284,57.308 454.237,57.478 C455.188,57.656 456.141,58.26 457.093,59.286 C456.142,59.971 455.107,60.574 453.999,61.087 C452.882,61.607 451.693,62.21 450.428,62.895 L450.428,64.323 C451.693,64.323 452.807,64.405 453.76,64.561 C454.711,64.724 455.821,64.799 457.092,64.799 C459.63,64.799 462.331,64.881 465.187,65.037 C468.045,65.2 470.424,66.547 472.329,69.084 C472.962,69.722 473.355,70.512 473.521,71.463 C473.678,72.416 474.071,73.213 474.711,73.844 C475.024,74.484 475.188,75.034 475.188,75.51 C475.188,75.987 475.345,76.388 475.665,76.702 C477.57,78.293 479.474,79.959 481.379,81.701 C483.283,83.449 485.343,84.96 487.567,86.225 C491.689,88.13 492.486,90.829 489.948,94.318 C490.581,95.591 491.212,96.699 491.852,97.652 C492.485,98.603 493.117,99.556 493.756,100.508 C495.34,104.006 495.974,106.541 495.66,108.126 C495.34,109.719 493.592,111.781 490.423,114.316 C486.925,116.861 483.52,119.553 480.185,122.411 C476.853,125.267 473.439,128.124 469.949,130.982 C469.309,131.62 468.045,132.573 466.14,133.838 C462.642,135.431 459.31,136.777 456.141,137.885 C452.963,139.001 449.631,140.348 446.142,141.932 C443.598,143.523 441.216,145.108 439,146.692 C436.776,148.285 434.394,149.87 431.856,151.454 C429.312,153.045 426.857,154.475 424.476,155.74 C422.095,157.011 419.789,158.439 417.573,160.024 C414.075,162.882 410.743,165.903 407.574,169.072 C404.397,172.248 401.064,175.262 397.575,178.118 C396.302,179.391 394.955,180.424 393.527,181.214 C392.099,182.008 390.744,182.88 389.48,183.831 C384.72,187.96 380.032,191.926 375.433,195.735 C370.83,199.544 366.149,203.516 361.389,207.639 C355.356,212.719 348.845,215.257 341.867,215.257 C341.227,214.943 340.751,215.019 340.439,215.496 C340.119,215.973 339.643,216.374 339.009,216.685 C339.009,217.005 339.084,217.243 339.247,217.4 C339.404,217.563 339.485,217.801 339.485,218.113 L346.154,218.113 z" fill="#F8AE18"/>
    <g>
      <path d="M42.81,247.28 C42.81,240.145 42.398,234.243 41.987,231.91 L65.18,231.91 C65.592,234.792 65.73,239.87 65.73,243.85 L66.004,243.85 C67.377,240.007 72.181,230.263 86.179,230.263 C93.864,230.263 101.413,232.596 105.804,242.203 C110.471,234.791 117.058,230.263 127.214,230.263 C138.741,230.263 148.211,236.713 148.211,252.084 L148.211,303.413 L123.507,303.413 L123.507,260.456 C123.507,253.594 121.449,250.301 116.508,250.301 C109.371,250.301 107.861,256.751 107.861,262.104 L107.861,303.413 L83.159,303.413 L83.159,260.456 C83.159,253.594 81.101,250.301 76.434,250.301 C70.259,250.301 67.514,256.751 67.514,264.163 L67.514,303.414 L42.81,303.414 L42.81,247.28 z" fill="#FFFFFF"/>
      <path d="M195.689,230.262 C221.765,230.262 231.235,248.241 231.235,267.729 C231.235,287.216 221.765,305.058 195.689,305.058 C169.612,305.058 160.143,287.216 160.143,267.729 C160.144,248.241 169.613,230.262 195.689,230.262 z M195.689,288.315 C204.061,288.315 205.433,278.16 205.433,267.729 C205.433,257.298 204.061,247.005 195.689,247.005 C187.317,247.005 185.944,257.298 185.944,267.729 C185.944,278.16 187.318,288.315 195.689,288.315 z" fill="#FFFFFF"/>
      <path d="M243.169,200.48 L267.873,200.48 L267.873,229.575 C267.873,234.927 267.598,239.319 267.325,242.339 L267.599,242.339 C272.677,234.104 277.892,230.262 287.362,230.262 C305.204,230.262 312.889,249.201 312.889,265.944 C312.889,287.628 304.929,304.509 286.127,304.509 C278.715,304.509 272.402,301.489 267.187,291.882 L266.913,291.882 C266.913,295.725 266.501,299.567 266.226,303.41 L242.62,303.41 C242.895,299.155 243.168,295.038 243.168,290.783 L243.168,200.48 z M277.479,247.006 C271.304,247.006 267.872,255.103 267.872,267.043 C267.872,278.983 271.304,287.217 277.479,287.217 C284.753,287.217 287.086,278.983 287.086,267.043 C287.086,255.103 284.753,247.006 277.479,247.006 z" fill="#FFFFFF"/>
      <path d="M325.507,200.48 L350.211,200.48 L350.211,221.067 L325.507,221.067 L325.507,200.48 z M325.507,231.909 L350.211,231.909 L350.211,303.412 L325.507,303.412 L325.507,231.909 z" fill="#FFFFFF"/>
      <path d="M366.127,200.48 L390.831,200.48 L390.831,303.411 L366.127,303.411 L366.127,200.48 z" fill="#FFFFFF"/>
      <path d="M426.92,274.453 C427.607,285.981 435.567,289.413 444.762,289.413 C451.487,289.413 459.584,286.393 465.622,283.786 L466.172,300.941 C460.27,302.863 451.212,304.921 441.193,305.058 C412.236,305.195 403.864,285.708 403.864,267.317 C403.864,247.69 415.529,230.262 437.076,230.262 C459.446,230.262 470.013,247.966 470.013,267.454 L470.013,274.453 L426.92,274.453 z M447.507,261.553 L447.507,259.495 C447.507,249.888 444.9,245.36 437.488,245.36 C430.488,245.36 426.371,251.672 426.371,261.554 L447.507,261.554 z" fill="#FFFFFF"/>
    </g>
  </g>
</svg>
